M48
;DRILL file {KiCad 0.201603131216+6619~43~ubuntu14.04.1-product} date Do 28 Apr 2016 22:30:18 CEST
;FORMAT={-:-/ absolute / metric / decimal}
FMAT,2
METRIC,TZ
T1C0.500
T2C0.899
%
G90
G05
M71
T1
X40.75Y-58.65
X40.75Y-59.45
X40.75Y-60.25
X40.75Y-61.05
X40.75Y-61.85
X40.75Y-79.65
X40.75Y-80.45
X40.75Y-81.25
X40.75Y-82.05
X40.75Y-82.85
X40.75Y-100.9
X40.75Y-101.7
X40.75Y-102.5
X40.75Y-103.3
X40.75Y-104.1
X40.75Y-121.9
X40.75Y-122.7
X40.75Y-123.5
X40.75Y-124.3
X40.75Y-125.1
X48.65Y-70.75
X48.65Y-92.
X48.65Y-113.
X49.45Y-70.75
X49.45Y-92.
X49.45Y-113.
X50.25Y-70.75
X50.25Y-92.
X50.25Y-113.
X51.05Y-70.75
X51.05Y-92.
X51.05Y-113.
X51.85Y-70.75
X51.85Y-92.
X51.85Y-113.
X65.65Y-70.75
X65.65Y-92.
X65.65Y-113.
X66.45Y-70.75
X66.45Y-92.
X66.45Y-113.
X67.25Y-70.75
X67.25Y-92.
X67.25Y-113.
X68.05Y-70.75
X68.05Y-92.
X68.05Y-113.
X68.85Y-70.75
X68.85Y-92.
X68.85Y-113.
X81.75Y-58.65
X81.75Y-59.45
X81.75Y-60.25
X81.75Y-61.05
X81.75Y-61.85
X81.75Y-79.65
X81.75Y-80.45
X81.75Y-81.25
X81.75Y-82.05
X81.75Y-82.85
X81.75Y-100.9
X81.75Y-101.7
X81.75Y-102.5
X81.75Y-103.3
X81.75Y-104.1
X81.75Y-121.9
X81.75Y-122.7
X81.75Y-123.5
X81.75Y-124.3
X81.75Y-125.1
X89.65Y-70.75
X89.65Y-92.
X89.65Y-113.
X90.45Y-70.75
X90.45Y-92.
X90.45Y-113.
X91.25Y-70.75
X91.25Y-92.
X91.25Y-113.
X92.05Y-70.75
X92.05Y-92.
X92.05Y-113.
X92.85Y-70.75
X92.85Y-92.
X92.85Y-113.
X106.65Y-70.75
X106.65Y-92.
X106.65Y-113.
X107.45Y-70.75
X107.45Y-92.
X107.45Y-113.
X108.25Y-70.75
X108.25Y-92.
X108.25Y-113.
X109.05Y-70.75
X109.05Y-92.
X109.05Y-113.
X109.85Y-70.75
X109.85Y-92.
X109.85Y-113.
X122.75Y-58.6
X122.75Y-59.4
X122.75Y-60.2
X122.75Y-61.
X122.75Y-61.8
X122.75Y-79.65
X122.75Y-80.45
X122.75Y-81.25
X122.75Y-82.05
X122.75Y-82.85
X122.75Y-100.85
X122.75Y-101.65
X122.75Y-102.45
X122.75Y-103.25
X122.75Y-104.05
X122.75Y-121.9
X122.75Y-122.7
X122.75Y-123.5
X122.75Y-124.3
X122.75Y-125.1
T2
X45.945Y-58.14
X45.945Y-62.54
X45.945Y-79.14
X45.945Y-83.54
X45.945Y-100.39
X45.945Y-104.79
X45.945Y-121.39
X45.945Y-125.79
X86.945Y-58.14
X86.945Y-62.54
X86.945Y-79.14
X86.945Y-83.54
X86.945Y-100.39
X86.945Y-104.79
X86.945Y-121.39
X86.945Y-125.79
T0
M30
