G04 #@! TF.FileFunction,Soldermask,Top*
%FSLAX46Y46*%
G04 Gerber Fmt 4.6, Leading zero omitted, Abs format (unit mm)*
G04 Created by KiCad (PCBNEW 0.201603131216+6619~43~ubuntu14.04.1-product) date Do 28 Apr 2016 22:30:15 CEST*
%MOMM*%
G01*
G04 APERTURE LIST*
%ADD10C,0.100000*%
G04 APERTURE END LIST*
D10*
G36*
X84382500Y-132991000D02*
X82725500Y-132991000D01*
X82725500Y-131842000D01*
X84382500Y-131842000D01*
X84382500Y-132991000D01*
X84382500Y-132991000D01*
G37*
G36*
X43382500Y-132991000D02*
X41725500Y-132991000D01*
X41725500Y-131842000D01*
X43382500Y-131842000D01*
X43382500Y-132991000D01*
X43382500Y-132991000D01*
G37*
G36*
X80678500Y-132974500D02*
X79021500Y-132974500D01*
X79021500Y-131825500D01*
X80678500Y-131825500D01*
X80678500Y-132974500D01*
X80678500Y-132974500D01*
G37*
G36*
X121678500Y-132974500D02*
X120021500Y-132974500D01*
X120021500Y-131825500D01*
X121678500Y-131825500D01*
X121678500Y-132974500D01*
X121678500Y-132974500D01*
G37*
G36*
X89253780Y-132119660D02*
X88196220Y-132119660D01*
X88196220Y-131260220D01*
X89253780Y-131260220D01*
X89253780Y-132119660D01*
X89253780Y-132119660D01*
G37*
G36*
X48253780Y-132119660D02*
X47196220Y-132119660D01*
X47196220Y-131260220D01*
X48253780Y-131260220D01*
X48253780Y-132119660D01*
X48253780Y-132119660D01*
G37*
G36*
X90778780Y-132094660D02*
X89721220Y-132094660D01*
X89721220Y-131235220D01*
X90778780Y-131235220D01*
X90778780Y-132094660D01*
X90778780Y-132094660D01*
G37*
G36*
X49778780Y-132094660D02*
X48721220Y-132094660D01*
X48721220Y-131235220D01*
X49778780Y-131235220D01*
X49778780Y-132094660D01*
X49778780Y-132094660D01*
G37*
G36*
X101080000Y-132080000D02*
X99070000Y-132080000D01*
X99070000Y-125520000D01*
X101080000Y-125520000D01*
X101080000Y-132080000D01*
X101080000Y-132080000D01*
G37*
G36*
X93880000Y-132080000D02*
X91870000Y-132080000D01*
X91870000Y-125520000D01*
X93880000Y-125520000D01*
X93880000Y-132080000D01*
X93880000Y-132080000D01*
G37*
G36*
X52880000Y-132080000D02*
X50870000Y-132080000D01*
X50870000Y-125520000D01*
X52880000Y-125520000D01*
X52880000Y-132080000D01*
X52880000Y-132080000D01*
G37*
G36*
X60080000Y-132080000D02*
X58070000Y-132080000D01*
X58070000Y-125520000D01*
X60080000Y-125520000D01*
X60080000Y-132080000D01*
X60080000Y-132080000D01*
G37*
G36*
X43382500Y-131086000D02*
X41725500Y-131086000D01*
X41725500Y-129937000D01*
X43382500Y-129937000D01*
X43382500Y-131086000D01*
X43382500Y-131086000D01*
G37*
G36*
X84382500Y-131086000D02*
X82725500Y-131086000D01*
X82725500Y-129937000D01*
X84382500Y-129937000D01*
X84382500Y-131086000D01*
X84382500Y-131086000D01*
G37*
G36*
X80678500Y-131069500D02*
X79021500Y-131069500D01*
X79021500Y-129920500D01*
X80678500Y-129920500D01*
X80678500Y-131069500D01*
X80678500Y-131069500D01*
G37*
G36*
X121678500Y-131069500D02*
X120021500Y-131069500D01*
X120021500Y-129920500D01*
X121678500Y-129920500D01*
X121678500Y-131069500D01*
X121678500Y-131069500D01*
G37*
G36*
X87069660Y-130976780D02*
X86210220Y-130976780D01*
X86210220Y-129919220D01*
X87069660Y-129919220D01*
X87069660Y-130976780D01*
X87069660Y-130976780D01*
G37*
G36*
X85489780Y-130976780D02*
X84630340Y-130976780D01*
X84630340Y-129919220D01*
X85489780Y-129919220D01*
X85489780Y-130976780D01*
X85489780Y-130976780D01*
G37*
G36*
X46069660Y-130976780D02*
X45210220Y-130976780D01*
X45210220Y-129919220D01*
X46069660Y-129919220D01*
X46069660Y-130976780D01*
X46069660Y-130976780D01*
G37*
G36*
X44489780Y-130976780D02*
X43630340Y-130976780D01*
X43630340Y-129919220D01*
X44489780Y-129919220D01*
X44489780Y-130976780D01*
X44489780Y-130976780D01*
G37*
G36*
X89253780Y-130539780D02*
X88196220Y-130539780D01*
X88196220Y-129680340D01*
X89253780Y-129680340D01*
X89253780Y-130539780D01*
X89253780Y-130539780D01*
G37*
G36*
X48253780Y-130539780D02*
X47196220Y-130539780D01*
X47196220Y-129680340D01*
X48253780Y-129680340D01*
X48253780Y-130539780D01*
X48253780Y-130539780D01*
G37*
G36*
X90778780Y-130514780D02*
X89721220Y-130514780D01*
X89721220Y-129655340D01*
X90778780Y-129655340D01*
X90778780Y-130514780D01*
X90778780Y-130514780D01*
G37*
G36*
X49778780Y-130514780D02*
X48721220Y-130514780D01*
X48721220Y-129655340D01*
X49778780Y-129655340D01*
X49778780Y-130514780D01*
X49778780Y-130514780D01*
G37*
G36*
X110546000Y-129821000D02*
X109226000Y-129821000D01*
X109226000Y-127011000D01*
X110546000Y-127011000D01*
X110546000Y-129821000D01*
X110546000Y-129821000D01*
G37*
G36*
X71746000Y-129821000D02*
X70426000Y-129821000D01*
X70426000Y-127011000D01*
X71746000Y-127011000D01*
X71746000Y-129821000D01*
X71746000Y-129821000D01*
G37*
G36*
X69546000Y-129821000D02*
X68226000Y-129821000D01*
X68226000Y-127011000D01*
X69546000Y-127011000D01*
X69546000Y-129821000D01*
X69546000Y-129821000D01*
G37*
G36*
X112746000Y-129821000D02*
X111426000Y-129821000D01*
X111426000Y-127011000D01*
X112746000Y-127011000D01*
X112746000Y-129821000D01*
X112746000Y-129821000D01*
G37*
G36*
X118118780Y-129635660D02*
X117061220Y-129635660D01*
X117061220Y-128776220D01*
X118118780Y-128776220D01*
X118118780Y-129635660D01*
X118118780Y-129635660D01*
G37*
G36*
X77118780Y-129635660D02*
X76061220Y-129635660D01*
X76061220Y-128776220D01*
X77118780Y-128776220D01*
X77118780Y-129635660D01*
X77118780Y-129635660D01*
G37*
G36*
X116594780Y-129635660D02*
X115537220Y-129635660D01*
X115537220Y-128776220D01*
X116594780Y-128776220D01*
X116594780Y-129635660D01*
X116594780Y-129635660D01*
G37*
G36*
X115070780Y-129635660D02*
X114013220Y-129635660D01*
X114013220Y-128776220D01*
X115070780Y-128776220D01*
X115070780Y-129635660D01*
X115070780Y-129635660D01*
G37*
G36*
X108720780Y-129635660D02*
X107663220Y-129635660D01*
X107663220Y-128776220D01*
X108720780Y-128776220D01*
X108720780Y-129635660D01*
X108720780Y-129635660D01*
G37*
G36*
X67720780Y-129635660D02*
X66663220Y-129635660D01*
X66663220Y-128776220D01*
X67720780Y-128776220D01*
X67720780Y-129635660D01*
X67720780Y-129635660D01*
G37*
G36*
X75594780Y-129635660D02*
X74537220Y-129635660D01*
X74537220Y-128776220D01*
X75594780Y-128776220D01*
X75594780Y-129635660D01*
X75594780Y-129635660D01*
G37*
G36*
X74070780Y-129635660D02*
X73013220Y-129635660D01*
X73013220Y-128776220D01*
X74070780Y-128776220D01*
X74070780Y-129635660D01*
X74070780Y-129635660D01*
G37*
G36*
X90823940Y-129169570D02*
X88064580Y-129169570D01*
X88064580Y-126910590D01*
X90823940Y-126910590D01*
X90823940Y-129169570D01*
X90823940Y-129169570D01*
G37*
G36*
X85324840Y-129169570D02*
X82565480Y-129169570D01*
X82565480Y-126910590D01*
X85324840Y-126910590D01*
X85324840Y-129169570D01*
X85324840Y-129169570D01*
G37*
G36*
X49823940Y-129169570D02*
X47064580Y-129169570D01*
X47064580Y-126910590D01*
X49823940Y-126910590D01*
X49823940Y-129169570D01*
X49823940Y-129169570D01*
G37*
G36*
X44324840Y-129169570D02*
X41565480Y-129169570D01*
X41565480Y-126910590D01*
X44324840Y-126910590D01*
X44324840Y-129169570D01*
X44324840Y-129169570D01*
G37*
G36*
X120363442Y-126230715D02*
X120570910Y-126273302D01*
X120766161Y-126355378D01*
X120850601Y-126412334D01*
X120867849Y-126421650D01*
X120886583Y-126427422D01*
X120906520Y-126429430D01*
X121879870Y-126429430D01*
X121879870Y-128190570D01*
X120907168Y-128190570D01*
X120887659Y-128192491D01*
X120868900Y-128198182D01*
X120853585Y-128206137D01*
X120739302Y-128278663D01*
X120541844Y-128355252D01*
X120333257Y-128392032D01*
X120121504Y-128387596D01*
X119914644Y-128342115D01*
X119720560Y-128257322D01*
X119650250Y-128208455D01*
X119633134Y-128198899D01*
X119614482Y-128192865D01*
X119593179Y-128190570D01*
X118620130Y-128190570D01*
X118620130Y-126429430D01*
X119593373Y-126429430D01*
X119612882Y-126427509D01*
X119631641Y-126421818D01*
X119648129Y-126413106D01*
X119747215Y-126348266D01*
X119943592Y-126268924D01*
X120151642Y-126229236D01*
X120363442Y-126230715D01*
X120363442Y-126230715D01*
G37*
G36*
X79363442Y-126230715D02*
X79570910Y-126273302D01*
X79766161Y-126355378D01*
X79850601Y-126412334D01*
X79867849Y-126421650D01*
X79886583Y-126427422D01*
X79906520Y-126429430D01*
X80879870Y-126429430D01*
X80879870Y-128190570D01*
X79907168Y-128190570D01*
X79887659Y-128192491D01*
X79868900Y-128198182D01*
X79853585Y-128206137D01*
X79739302Y-128278663D01*
X79541844Y-128355252D01*
X79333257Y-128392032D01*
X79121504Y-128387596D01*
X78914644Y-128342115D01*
X78720560Y-128257322D01*
X78650250Y-128208455D01*
X78633134Y-128198899D01*
X78614482Y-128192865D01*
X78593179Y-128190570D01*
X77620130Y-128190570D01*
X77620130Y-126429430D01*
X78593373Y-126429430D01*
X78612882Y-126427509D01*
X78631641Y-126421818D01*
X78648129Y-126413106D01*
X78747215Y-126348266D01*
X78943592Y-126268924D01*
X79151642Y-126229236D01*
X79363442Y-126230715D01*
X79363442Y-126230715D01*
G37*
G36*
X118118780Y-128055780D02*
X117061220Y-128055780D01*
X117061220Y-127196340D01*
X118118780Y-127196340D01*
X118118780Y-128055780D01*
X118118780Y-128055780D01*
G37*
G36*
X77118780Y-128055780D02*
X76061220Y-128055780D01*
X76061220Y-127196340D01*
X77118780Y-127196340D01*
X77118780Y-128055780D01*
X77118780Y-128055780D01*
G37*
G36*
X75594780Y-128055780D02*
X74537220Y-128055780D01*
X74537220Y-127196340D01*
X75594780Y-127196340D01*
X75594780Y-128055780D01*
X75594780Y-128055780D01*
G37*
G36*
X74070780Y-128055780D02*
X73013220Y-128055780D01*
X73013220Y-127196340D01*
X74070780Y-127196340D01*
X74070780Y-128055780D01*
X74070780Y-128055780D01*
G37*
G36*
X67720780Y-128055780D02*
X66663220Y-128055780D01*
X66663220Y-127196340D01*
X67720780Y-127196340D01*
X67720780Y-128055780D01*
X67720780Y-128055780D01*
G37*
G36*
X108720780Y-128055780D02*
X107663220Y-128055780D01*
X107663220Y-127196340D01*
X108720780Y-127196340D01*
X108720780Y-128055780D01*
X108720780Y-128055780D01*
G37*
G36*
X115070780Y-128055780D02*
X114013220Y-128055780D01*
X114013220Y-127196340D01*
X115070780Y-127196340D01*
X115070780Y-128055780D01*
X115070780Y-128055780D01*
G37*
G36*
X116594780Y-128055780D02*
X115537220Y-128055780D01*
X115537220Y-127196340D01*
X116594780Y-127196340D01*
X116594780Y-128055780D01*
X116594780Y-128055780D01*
G37*
G36*
X118047660Y-126828780D02*
X117188220Y-126828780D01*
X117188220Y-125771220D01*
X118047660Y-125771220D01*
X118047660Y-126828780D01*
X118047660Y-126828780D01*
G37*
G36*
X75467780Y-126828780D02*
X74608340Y-126828780D01*
X74608340Y-125771220D01*
X75467780Y-125771220D01*
X75467780Y-126828780D01*
X75467780Y-126828780D01*
G37*
G36*
X77047660Y-126828780D02*
X76188220Y-126828780D01*
X76188220Y-125771220D01*
X77047660Y-125771220D01*
X77047660Y-126828780D01*
X77047660Y-126828780D01*
G37*
G36*
X116467780Y-126828780D02*
X115608340Y-126828780D01*
X115608340Y-125771220D01*
X116467780Y-125771220D01*
X116467780Y-126828780D01*
X116467780Y-126828780D01*
G37*
G36*
X66189780Y-126503780D02*
X65330340Y-126503780D01*
X65330340Y-125446220D01*
X66189780Y-125446220D01*
X66189780Y-126503780D01*
X66189780Y-126503780D01*
G37*
G36*
X108769660Y-126503780D02*
X107910220Y-126503780D01*
X107910220Y-125446220D01*
X108769660Y-125446220D01*
X108769660Y-126503780D01*
X108769660Y-126503780D01*
G37*
G36*
X67769660Y-126503780D02*
X66910220Y-126503780D01*
X66910220Y-125446220D01*
X67769660Y-125446220D01*
X67769660Y-126503780D01*
X67769660Y-126503780D01*
G37*
G36*
X107189780Y-126503780D02*
X106330340Y-126503780D01*
X106330340Y-125446220D01*
X107189780Y-125446220D01*
X107189780Y-126503780D01*
X107189780Y-126503780D01*
G37*
G36*
X46005776Y-125210443D02*
X46117123Y-125233299D01*
X46221893Y-125277340D01*
X46316129Y-125340903D01*
X46396221Y-125421555D01*
X46459117Y-125516223D01*
X46502432Y-125621311D01*
X46524372Y-125732120D01*
X46524372Y-125732136D01*
X46524505Y-125732809D01*
X46522692Y-125862632D01*
X46522540Y-125863300D01*
X46522540Y-125863319D01*
X46497514Y-125973473D01*
X46451285Y-126077303D01*
X46385764Y-126170186D01*
X46303456Y-126248566D01*
X46207484Y-126309473D01*
X46101517Y-126350575D01*
X45989580Y-126370312D01*
X45875942Y-126367931D01*
X45764932Y-126343525D01*
X45660779Y-126298022D01*
X45567442Y-126233150D01*
X45488487Y-126151390D01*
X45426914Y-126055848D01*
X45385072Y-125950167D01*
X45364554Y-125838373D01*
X45366141Y-125724724D01*
X45389773Y-125613544D01*
X45434550Y-125509070D01*
X45498764Y-125415290D01*
X45579973Y-125335763D01*
X45675084Y-125273524D01*
X45780465Y-125230947D01*
X45892116Y-125209648D01*
X46005776Y-125210443D01*
X46005776Y-125210443D01*
G37*
G36*
X87005776Y-125210443D02*
X87117123Y-125233299D01*
X87221893Y-125277340D01*
X87316129Y-125340903D01*
X87396221Y-125421555D01*
X87459117Y-125516223D01*
X87502432Y-125621311D01*
X87524372Y-125732120D01*
X87524372Y-125732136D01*
X87524505Y-125732809D01*
X87522692Y-125862632D01*
X87522540Y-125863300D01*
X87522540Y-125863319D01*
X87497514Y-125973473D01*
X87451285Y-126077303D01*
X87385764Y-126170186D01*
X87303456Y-126248566D01*
X87207484Y-126309473D01*
X87101517Y-126350575D01*
X86989580Y-126370312D01*
X86875942Y-126367931D01*
X86764932Y-126343525D01*
X86660779Y-126298022D01*
X86567442Y-126233150D01*
X86488487Y-126151390D01*
X86426914Y-126055848D01*
X86385072Y-125950167D01*
X86364554Y-125838373D01*
X86366141Y-125724724D01*
X86389773Y-125613544D01*
X86434550Y-125509070D01*
X86498764Y-125415290D01*
X86579973Y-125335763D01*
X86675084Y-125273524D01*
X86780465Y-125230947D01*
X86892116Y-125209648D01*
X87005776Y-125210443D01*
X87005776Y-125210443D01*
G37*
G36*
X120363442Y-123690715D02*
X120570910Y-123733302D01*
X120766161Y-123815378D01*
X120850601Y-123872334D01*
X120867849Y-123881650D01*
X120886583Y-123887422D01*
X120906520Y-123889430D01*
X121879870Y-123889430D01*
X121879870Y-125650570D01*
X120907168Y-125650570D01*
X120887659Y-125652491D01*
X120868900Y-125658182D01*
X120853585Y-125666137D01*
X120739302Y-125738663D01*
X120541844Y-125815252D01*
X120333257Y-125852032D01*
X120121504Y-125847596D01*
X119914644Y-125802115D01*
X119720560Y-125717322D01*
X119650250Y-125668455D01*
X119633134Y-125658899D01*
X119614482Y-125652865D01*
X119593179Y-125650570D01*
X118620130Y-125650570D01*
X118620130Y-123889430D01*
X119593373Y-123889430D01*
X119612882Y-123887509D01*
X119631641Y-123881818D01*
X119648129Y-123873106D01*
X119747215Y-123808266D01*
X119943592Y-123728924D01*
X120151642Y-123689236D01*
X120363442Y-123690715D01*
X120363442Y-123690715D01*
G37*
G36*
X79363442Y-123690715D02*
X79570910Y-123733302D01*
X79766161Y-123815378D01*
X79850601Y-123872334D01*
X79867849Y-123881650D01*
X79886583Y-123887422D01*
X79906520Y-123889430D01*
X80879870Y-123889430D01*
X80879870Y-125650570D01*
X79907168Y-125650570D01*
X79887659Y-125652491D01*
X79868900Y-125658182D01*
X79853585Y-125666137D01*
X79739302Y-125738663D01*
X79541844Y-125815252D01*
X79333257Y-125852032D01*
X79121504Y-125847596D01*
X78914644Y-125802115D01*
X78720560Y-125717322D01*
X78650250Y-125668455D01*
X78633134Y-125658899D01*
X78614482Y-125652865D01*
X78593179Y-125650570D01*
X77620130Y-125650570D01*
X77620130Y-123889430D01*
X78593373Y-123889430D01*
X78612882Y-123887509D01*
X78631641Y-123881818D01*
X78648129Y-123873106D01*
X78747215Y-123808266D01*
X78943592Y-123728924D01*
X79151642Y-123689236D01*
X79363442Y-123690715D01*
X79363442Y-123690715D01*
G37*
G36*
X90823940Y-125570390D02*
X88262700Y-125570390D01*
X88262700Y-121609610D01*
X90823940Y-121609610D01*
X90823940Y-125570390D01*
X90823940Y-125570390D01*
G37*
G36*
X49823940Y-125570390D02*
X47262700Y-125570390D01*
X47262700Y-121609610D01*
X49823940Y-121609610D01*
X49823940Y-125570390D01*
X49823940Y-125570390D01*
G37*
G36*
X118255000Y-125260000D02*
X115445000Y-125260000D01*
X115445000Y-123940000D01*
X118255000Y-123940000D01*
X118255000Y-125260000D01*
X118255000Y-125260000D01*
G37*
G36*
X77255000Y-125260000D02*
X74445000Y-125260000D01*
X74445000Y-123940000D01*
X77255000Y-123940000D01*
X77255000Y-125260000D01*
X77255000Y-125260000D01*
G37*
G36*
X110038000Y-124880000D02*
X108718000Y-124880000D01*
X108718000Y-122070000D01*
X110038000Y-122070000D01*
X110038000Y-124880000D01*
X110038000Y-124880000D01*
G37*
G36*
X71238000Y-124880000D02*
X69918000Y-124880000D01*
X69918000Y-122070000D01*
X71238000Y-122070000D01*
X71238000Y-124880000D01*
X71238000Y-124880000D01*
G37*
G36*
X112238000Y-124880000D02*
X110918000Y-124880000D01*
X110918000Y-122070000D01*
X112238000Y-122070000D01*
X112238000Y-124880000D01*
X112238000Y-124880000D01*
G37*
G36*
X69038000Y-124880000D02*
X67718000Y-124880000D01*
X67718000Y-122070000D01*
X69038000Y-122070000D01*
X69038000Y-124880000D01*
X69038000Y-124880000D01*
G37*
G36*
X98717212Y-123801732D02*
X98711521Y-123820491D01*
X98709600Y-123840000D01*
X98709600Y-124853780D01*
X97850160Y-124853780D01*
X97850160Y-123796220D01*
X98695000Y-123796220D01*
X98714509Y-123794299D01*
X98722477Y-123791882D01*
X98717212Y-123801732D01*
X98717212Y-123801732D01*
G37*
G36*
X97129720Y-124853780D02*
X96270280Y-124853780D01*
X96270280Y-123796220D01*
X97129720Y-123796220D01*
X97129720Y-124853780D01*
X97129720Y-124853780D01*
G37*
G36*
X57717212Y-123801732D02*
X57711521Y-123820491D01*
X57709600Y-123840000D01*
X57709600Y-124853780D01*
X56850160Y-124853780D01*
X56850160Y-123796220D01*
X57695000Y-123796220D01*
X57714509Y-123794299D01*
X57722477Y-123791882D01*
X57717212Y-123801732D01*
X57717212Y-123801732D01*
G37*
G36*
X56129720Y-124853780D02*
X55270280Y-124853780D01*
X55270280Y-123796220D01*
X56129720Y-123796220D01*
X56129720Y-124853780D01*
X56129720Y-124853780D01*
G37*
G36*
X59755000Y-123740000D02*
X57809600Y-123740000D01*
X57790091Y-123741921D01*
X57782123Y-123744338D01*
X57787388Y-123734488D01*
X57793079Y-123715729D01*
X57795000Y-123696220D01*
X57795000Y-122830000D01*
X59755000Y-122830000D01*
X59755000Y-123740000D01*
X59755000Y-123740000D01*
G37*
G36*
X100755000Y-123740000D02*
X98809600Y-123740000D01*
X98790091Y-123741921D01*
X98782123Y-123744338D01*
X98787388Y-123734488D01*
X98793079Y-123715729D01*
X98795000Y-123696220D01*
X98795000Y-122830000D01*
X100755000Y-122830000D01*
X100755000Y-123740000D01*
X100755000Y-123740000D01*
G37*
G36*
X108055000Y-123740000D02*
X106095000Y-123740000D01*
X106095000Y-122830000D01*
X108055000Y-122830000D01*
X108055000Y-123740000D01*
X108055000Y-123740000D01*
G37*
G36*
X67055000Y-123740000D02*
X65095000Y-123740000D01*
X65095000Y-122830000D01*
X67055000Y-122830000D01*
X67055000Y-123740000D01*
X67055000Y-123740000D01*
G37*
G36*
X52255780Y-123516660D02*
X51198220Y-123516660D01*
X51198220Y-122657220D01*
X52255780Y-122657220D01*
X52255780Y-123516660D01*
X52255780Y-123516660D01*
G37*
G36*
X93255780Y-123516660D02*
X92198220Y-123516660D01*
X92198220Y-122657220D01*
X93255780Y-122657220D01*
X93255780Y-123516660D01*
X93255780Y-123516660D01*
G37*
G36*
X54803780Y-123509600D02*
X53746220Y-123509600D01*
X53746220Y-122650160D01*
X54803780Y-122650160D01*
X54803780Y-123509600D01*
X54803780Y-123509600D01*
G37*
G36*
X53528780Y-123509600D02*
X52471220Y-123509600D01*
X52471220Y-122650160D01*
X53528780Y-122650160D01*
X53528780Y-123509600D01*
X53528780Y-123509600D01*
G37*
G36*
X94528780Y-123509600D02*
X93471220Y-123509600D01*
X93471220Y-122650160D01*
X94528780Y-122650160D01*
X94528780Y-123509600D01*
X94528780Y-123509600D01*
G37*
G36*
X95803780Y-123509600D02*
X94746220Y-123509600D01*
X94746220Y-122650160D01*
X95803780Y-122650160D01*
X95803780Y-123509600D01*
X95803780Y-123509600D01*
G37*
G36*
X97453780Y-123494660D02*
X96396220Y-123494660D01*
X96396220Y-122635220D01*
X97453780Y-122635220D01*
X97453780Y-123494660D01*
X97453780Y-123494660D01*
G37*
G36*
X56453780Y-123494660D02*
X55396220Y-123494660D01*
X55396220Y-122635220D01*
X56453780Y-122635220D01*
X56453780Y-123494660D01*
X56453780Y-123494660D01*
G37*
G36*
X79363442Y-121150715D02*
X79570910Y-121193302D01*
X79766161Y-121275378D01*
X79850601Y-121332334D01*
X79867849Y-121341650D01*
X79886583Y-121347422D01*
X79906520Y-121349430D01*
X80879870Y-121349430D01*
X80879870Y-123110570D01*
X79907168Y-123110570D01*
X79887659Y-123112491D01*
X79868900Y-123118182D01*
X79853585Y-123126137D01*
X79739302Y-123198663D01*
X79541844Y-123275252D01*
X79333257Y-123312032D01*
X79121504Y-123307596D01*
X78914644Y-123262115D01*
X78720560Y-123177322D01*
X78650250Y-123128455D01*
X78633134Y-123118899D01*
X78614482Y-123112865D01*
X78593179Y-123110570D01*
X77620130Y-123110570D01*
X77620130Y-121349430D01*
X78593373Y-121349430D01*
X78612882Y-121347509D01*
X78631641Y-121341818D01*
X78648129Y-121333106D01*
X78747215Y-121268266D01*
X78943592Y-121188924D01*
X79151642Y-121149236D01*
X79363442Y-121150715D01*
X79363442Y-121150715D01*
G37*
G36*
X120363442Y-121150715D02*
X120570910Y-121193302D01*
X120766161Y-121275378D01*
X120850601Y-121332334D01*
X120867849Y-121341650D01*
X120886583Y-121347422D01*
X120906520Y-121349430D01*
X121879870Y-121349430D01*
X121879870Y-123110570D01*
X120907168Y-123110570D01*
X120887659Y-123112491D01*
X120868900Y-123118182D01*
X120853585Y-123126137D01*
X120739302Y-123198663D01*
X120541844Y-123275252D01*
X120333257Y-123312032D01*
X120121504Y-123307596D01*
X119914644Y-123262115D01*
X119720560Y-123177322D01*
X119650250Y-123128455D01*
X119633134Y-123118899D01*
X119614482Y-123112865D01*
X119593179Y-123110570D01*
X118620130Y-123110570D01*
X118620130Y-121349430D01*
X119593373Y-121349430D01*
X119612882Y-121347509D01*
X119631641Y-121341818D01*
X119648129Y-121333106D01*
X119747215Y-121268266D01*
X119943592Y-121188924D01*
X120151642Y-121149236D01*
X120363442Y-121150715D01*
X120363442Y-121150715D01*
G37*
G36*
X118255000Y-123060000D02*
X115445000Y-123060000D01*
X115445000Y-121740000D01*
X118255000Y-121740000D01*
X118255000Y-123060000D01*
X118255000Y-123060000D01*
G37*
G36*
X77255000Y-123060000D02*
X74445000Y-123060000D01*
X74445000Y-121740000D01*
X77255000Y-121740000D01*
X77255000Y-123060000D01*
X77255000Y-123060000D01*
G37*
G36*
X73816780Y-122777660D02*
X72759220Y-122777660D01*
X72759220Y-121918220D01*
X73816780Y-121918220D01*
X73816780Y-122777660D01*
X73816780Y-122777660D01*
G37*
G36*
X114816780Y-122777660D02*
X113759220Y-122777660D01*
X113759220Y-121918220D01*
X114816780Y-121918220D01*
X114816780Y-122777660D01*
X114816780Y-122777660D01*
G37*
G36*
X100755000Y-122470000D02*
X98795000Y-122470000D01*
X98795000Y-121560000D01*
X100755000Y-121560000D01*
X100755000Y-122470000D01*
X100755000Y-122470000D01*
G37*
G36*
X108055000Y-122470000D02*
X106095000Y-122470000D01*
X106095000Y-121560000D01*
X108055000Y-121560000D01*
X108055000Y-122470000D01*
X108055000Y-122470000D01*
G37*
G36*
X59755000Y-122470000D02*
X57795000Y-122470000D01*
X57795000Y-121560000D01*
X59755000Y-121560000D01*
X59755000Y-122470000D01*
X59755000Y-122470000D01*
G37*
G36*
X67055000Y-122470000D02*
X65095000Y-122470000D01*
X65095000Y-121560000D01*
X67055000Y-121560000D01*
X67055000Y-122470000D01*
X67055000Y-122470000D01*
G37*
G36*
X87005776Y-120811163D02*
X87117123Y-120834019D01*
X87221893Y-120878060D01*
X87316129Y-120941623D01*
X87396221Y-121022275D01*
X87459117Y-121116943D01*
X87502432Y-121222031D01*
X87524372Y-121332840D01*
X87524372Y-121332856D01*
X87524505Y-121333529D01*
X87522692Y-121463352D01*
X87522540Y-121464020D01*
X87522540Y-121464039D01*
X87497514Y-121574193D01*
X87451285Y-121678023D01*
X87385764Y-121770906D01*
X87303456Y-121849286D01*
X87207484Y-121910193D01*
X87101517Y-121951295D01*
X86989580Y-121971032D01*
X86875942Y-121968651D01*
X86764932Y-121944245D01*
X86660779Y-121898742D01*
X86567442Y-121833870D01*
X86488487Y-121752110D01*
X86426914Y-121656568D01*
X86385072Y-121550887D01*
X86364554Y-121439093D01*
X86366141Y-121325444D01*
X86389773Y-121214264D01*
X86434550Y-121109790D01*
X86498764Y-121016010D01*
X86579973Y-120936483D01*
X86675084Y-120874244D01*
X86780465Y-120831667D01*
X86892116Y-120810368D01*
X87005776Y-120811163D01*
X87005776Y-120811163D01*
G37*
G36*
X46005776Y-120811163D02*
X46117123Y-120834019D01*
X46221893Y-120878060D01*
X46316129Y-120941623D01*
X46396221Y-121022275D01*
X46459117Y-121116943D01*
X46502432Y-121222031D01*
X46524372Y-121332840D01*
X46524372Y-121332856D01*
X46524505Y-121333529D01*
X46522692Y-121463352D01*
X46522540Y-121464020D01*
X46522540Y-121464039D01*
X46497514Y-121574193D01*
X46451285Y-121678023D01*
X46385764Y-121770906D01*
X46303456Y-121849286D01*
X46207484Y-121910193D01*
X46101517Y-121951295D01*
X45989580Y-121971032D01*
X45875942Y-121968651D01*
X45764932Y-121944245D01*
X45660779Y-121898742D01*
X45567442Y-121833870D01*
X45488487Y-121752110D01*
X45426914Y-121656568D01*
X45385072Y-121550887D01*
X45364554Y-121439093D01*
X45366141Y-121325444D01*
X45389773Y-121214264D01*
X45434550Y-121109790D01*
X45498764Y-121016010D01*
X45579973Y-120936483D01*
X45675084Y-120874244D01*
X45780465Y-120831667D01*
X45892116Y-120810368D01*
X46005776Y-120811163D01*
X46005776Y-120811163D01*
G37*
G36*
X52255780Y-121936780D02*
X51198220Y-121936780D01*
X51198220Y-121077340D01*
X52255780Y-121077340D01*
X52255780Y-121936780D01*
X52255780Y-121936780D01*
G37*
G36*
X93255780Y-121936780D02*
X92198220Y-121936780D01*
X92198220Y-121077340D01*
X93255780Y-121077340D01*
X93255780Y-121936780D01*
X93255780Y-121936780D01*
G37*
G36*
X94528780Y-121929720D02*
X93471220Y-121929720D01*
X93471220Y-121070280D01*
X94528780Y-121070280D01*
X94528780Y-121929720D01*
X94528780Y-121929720D01*
G37*
G36*
X95803780Y-121929720D02*
X94746220Y-121929720D01*
X94746220Y-121070280D01*
X95803780Y-121070280D01*
X95803780Y-121929720D01*
X95803780Y-121929720D01*
G37*
G36*
X54803780Y-121929720D02*
X53746220Y-121929720D01*
X53746220Y-121070280D01*
X54803780Y-121070280D01*
X54803780Y-121929720D01*
X54803780Y-121929720D01*
G37*
G36*
X53528780Y-121929720D02*
X52471220Y-121929720D01*
X52471220Y-121070280D01*
X53528780Y-121070280D01*
X53528780Y-121929720D01*
X53528780Y-121929720D01*
G37*
G36*
X97453780Y-121914780D02*
X96396220Y-121914780D01*
X96396220Y-121055340D01*
X97453780Y-121055340D01*
X97453780Y-121914780D01*
X97453780Y-121914780D01*
G37*
G36*
X56453780Y-121914780D02*
X55396220Y-121914780D01*
X55396220Y-121055340D01*
X56453780Y-121055340D01*
X56453780Y-121914780D01*
X56453780Y-121914780D01*
G37*
G36*
X77269660Y-121328780D02*
X76410220Y-121328780D01*
X76410220Y-120271220D01*
X77269660Y-120271220D01*
X77269660Y-121328780D01*
X77269660Y-121328780D01*
G37*
G36*
X118269660Y-121328780D02*
X117410220Y-121328780D01*
X117410220Y-120271220D01*
X118269660Y-120271220D01*
X118269660Y-121328780D01*
X118269660Y-121328780D01*
G37*
G36*
X75689780Y-121328780D02*
X74830340Y-121328780D01*
X74830340Y-120271220D01*
X75689780Y-120271220D01*
X75689780Y-121328780D01*
X75689780Y-121328780D01*
G37*
G36*
X116689780Y-121328780D02*
X115830340Y-121328780D01*
X115830340Y-120271220D01*
X116689780Y-120271220D01*
X116689780Y-121328780D01*
X116689780Y-121328780D01*
G37*
G36*
X111768780Y-121324780D02*
X110909340Y-121324780D01*
X110909340Y-120267220D01*
X111768780Y-120267220D01*
X111768780Y-121324780D01*
X111768780Y-121324780D01*
G37*
G36*
X113348660Y-121324780D02*
X112489220Y-121324780D01*
X112489220Y-120267220D01*
X113348660Y-120267220D01*
X113348660Y-121324780D01*
X113348660Y-121324780D01*
G37*
G36*
X72348660Y-121324780D02*
X71489220Y-121324780D01*
X71489220Y-120267220D01*
X72348660Y-120267220D01*
X72348660Y-121324780D01*
X72348660Y-121324780D01*
G37*
G36*
X70768780Y-121324780D02*
X69909340Y-121324780D01*
X69909340Y-120267220D01*
X70768780Y-120267220D01*
X70768780Y-121324780D01*
X70768780Y-121324780D01*
G37*
G36*
X100755000Y-121200000D02*
X98795000Y-121200000D01*
X98795000Y-120290000D01*
X100755000Y-120290000D01*
X100755000Y-121200000D01*
X100755000Y-121200000D01*
G37*
G36*
X109089780Y-121053780D02*
X108155000Y-121053780D01*
X108135491Y-121055701D01*
X108116732Y-121061392D01*
X108099443Y-121070633D01*
X108084289Y-121083069D01*
X108071853Y-121098223D01*
X108062612Y-121115512D01*
X108056921Y-121134271D01*
X108055000Y-121153780D01*
X108055000Y-121200000D01*
X106095000Y-121200000D01*
X106095000Y-120290000D01*
X108130340Y-120290000D01*
X108149849Y-120288079D01*
X108168608Y-120282388D01*
X108185897Y-120273147D01*
X108201051Y-120260711D01*
X108213487Y-120245557D01*
X108222728Y-120228268D01*
X108228419Y-120209509D01*
X108230340Y-120190000D01*
X108230340Y-120030000D01*
X108228419Y-120010491D01*
X108224090Y-119996220D01*
X109089780Y-119996220D01*
X109089780Y-121053780D01*
X109089780Y-121053780D01*
G37*
G36*
X68089780Y-121053780D02*
X67155000Y-121053780D01*
X67135491Y-121055701D01*
X67116732Y-121061392D01*
X67099443Y-121070633D01*
X67084289Y-121083069D01*
X67071853Y-121098223D01*
X67062612Y-121115512D01*
X67056921Y-121134271D01*
X67055000Y-121153780D01*
X67055000Y-121200000D01*
X65095000Y-121200000D01*
X65095000Y-120290000D01*
X67130340Y-120290000D01*
X67149849Y-120288079D01*
X67168608Y-120282388D01*
X67185897Y-120273147D01*
X67201051Y-120260711D01*
X67213487Y-120245557D01*
X67222728Y-120228268D01*
X67228419Y-120209509D01*
X67230340Y-120190000D01*
X67230340Y-120030000D01*
X67228419Y-120010491D01*
X67224090Y-119996220D01*
X68089780Y-119996220D01*
X68089780Y-121053780D01*
X68089780Y-121053780D01*
G37*
G36*
X59755000Y-121200000D02*
X57795000Y-121200000D01*
X57795000Y-120290000D01*
X59755000Y-120290000D01*
X59755000Y-121200000D01*
X59755000Y-121200000D01*
G37*
G36*
X114816780Y-121197780D02*
X113759220Y-121197780D01*
X113759220Y-120338340D01*
X114816780Y-120338340D01*
X114816780Y-121197780D01*
X114816780Y-121197780D01*
G37*
G36*
X73816780Y-121197780D02*
X72759220Y-121197780D01*
X72759220Y-120338340D01*
X73816780Y-120338340D01*
X73816780Y-121197780D01*
X73816780Y-121197780D01*
G37*
G36*
X69669660Y-121053780D02*
X68810220Y-121053780D01*
X68810220Y-119996220D01*
X69669660Y-119996220D01*
X69669660Y-121053780D01*
X69669660Y-121053780D01*
G37*
G36*
X110669660Y-121053780D02*
X109810220Y-121053780D01*
X109810220Y-119996220D01*
X110669660Y-119996220D01*
X110669660Y-121053780D01*
X110669660Y-121053780D01*
G37*
G36*
X121330000Y-118709430D02*
X121331921Y-118728939D01*
X121337612Y-118747698D01*
X121346853Y-118764987D01*
X121359289Y-118780141D01*
X121374443Y-118792577D01*
X121391732Y-118801818D01*
X121410491Y-118807509D01*
X121430000Y-118809430D01*
X121879870Y-118809430D01*
X121879870Y-120570570D01*
X121430000Y-120570570D01*
X121410491Y-120572491D01*
X121391732Y-120578182D01*
X121374443Y-120587423D01*
X121359289Y-120599859D01*
X121346853Y-120615013D01*
X121337612Y-120632302D01*
X121331921Y-120651061D01*
X121330000Y-120670570D01*
X121330000Y-120770000D01*
X119170000Y-120770000D01*
X119170000Y-120670570D01*
X119168079Y-120651061D01*
X119162388Y-120632302D01*
X119153147Y-120615013D01*
X119140711Y-120599859D01*
X119125557Y-120587423D01*
X119108268Y-120578182D01*
X119089509Y-120572491D01*
X119070000Y-120570570D01*
X118620130Y-120570570D01*
X118620130Y-118809430D01*
X119070000Y-118809430D01*
X119089509Y-118807509D01*
X119108268Y-118801818D01*
X119125557Y-118792577D01*
X119140711Y-118780141D01*
X119153147Y-118764987D01*
X119162388Y-118747698D01*
X119168079Y-118728939D01*
X119170000Y-118709430D01*
X119170000Y-118610000D01*
X121330000Y-118610000D01*
X121330000Y-118709430D01*
X121330000Y-118709430D01*
G37*
G36*
X80330000Y-118709430D02*
X80331921Y-118728939D01*
X80337612Y-118747698D01*
X80346853Y-118764987D01*
X80359289Y-118780141D01*
X80374443Y-118792577D01*
X80391732Y-118801818D01*
X80410491Y-118807509D01*
X80430000Y-118809430D01*
X80879870Y-118809430D01*
X80879870Y-120570570D01*
X80430000Y-120570570D01*
X80410491Y-120572491D01*
X80391732Y-120578182D01*
X80374443Y-120587423D01*
X80359289Y-120599859D01*
X80346853Y-120615013D01*
X80337612Y-120632302D01*
X80331921Y-120651061D01*
X80330000Y-120670570D01*
X80330000Y-120770000D01*
X78170000Y-120770000D01*
X78170000Y-120670570D01*
X78168079Y-120651061D01*
X78162388Y-120632302D01*
X78153147Y-120615013D01*
X78140711Y-120599859D01*
X78125557Y-120587423D01*
X78108268Y-120578182D01*
X78089509Y-120572491D01*
X78070000Y-120570570D01*
X77620130Y-120570570D01*
X77620130Y-118809430D01*
X78070000Y-118809430D01*
X78089509Y-118807509D01*
X78108268Y-118801818D01*
X78125557Y-118792577D01*
X78140711Y-118780141D01*
X78153147Y-118764987D01*
X78162388Y-118747698D01*
X78168079Y-118728939D01*
X78170000Y-118709430D01*
X78170000Y-118610000D01*
X80330000Y-118610000D01*
X80330000Y-118709430D01*
X80330000Y-118709430D01*
G37*
G36*
X53855000Y-120635000D02*
X51045000Y-120635000D01*
X51045000Y-119315000D01*
X53855000Y-119315000D01*
X53855000Y-120635000D01*
X53855000Y-120635000D01*
G37*
G36*
X94855000Y-120635000D02*
X92045000Y-120635000D01*
X92045000Y-119315000D01*
X94855000Y-119315000D01*
X94855000Y-120635000D01*
X94855000Y-120635000D01*
G37*
G36*
X90823940Y-120269410D02*
X88064580Y-120269410D01*
X88064580Y-118010430D01*
X90823940Y-118010430D01*
X90823940Y-120269410D01*
X90823940Y-120269410D01*
G37*
G36*
X44324840Y-120269410D02*
X41565480Y-120269410D01*
X41565480Y-118010430D01*
X44324840Y-118010430D01*
X44324840Y-120269410D01*
X44324840Y-120269410D01*
G37*
G36*
X49823940Y-120269410D02*
X47064580Y-120269410D01*
X47064580Y-118010430D01*
X49823940Y-118010430D01*
X49823940Y-120269410D01*
X49823940Y-120269410D01*
G37*
G36*
X85324840Y-120269410D02*
X82565480Y-120269410D01*
X82565480Y-118010430D01*
X85324840Y-118010430D01*
X85324840Y-120269410D01*
X85324840Y-120269410D01*
G37*
G36*
X108055000Y-119896220D02*
X108056921Y-119915729D01*
X108061250Y-119930000D01*
X106095000Y-119930000D01*
X106095000Y-119020000D01*
X108055000Y-119020000D01*
X108055000Y-119896220D01*
X108055000Y-119896220D01*
G37*
G36*
X59755000Y-119930000D02*
X57795000Y-119930000D01*
X57795000Y-119020000D01*
X59755000Y-119020000D01*
X59755000Y-119930000D01*
X59755000Y-119930000D01*
G37*
G36*
X67055000Y-119896220D02*
X67056921Y-119915729D01*
X67061250Y-119930000D01*
X65095000Y-119930000D01*
X65095000Y-119020000D01*
X67055000Y-119020000D01*
X67055000Y-119896220D01*
X67055000Y-119896220D01*
G37*
G36*
X100755000Y-119930000D02*
X98795000Y-119930000D01*
X98795000Y-119020000D01*
X100755000Y-119020000D01*
X100755000Y-119930000D01*
X100755000Y-119930000D01*
G37*
G36*
X96928780Y-119909600D02*
X95871220Y-119909600D01*
X95871220Y-119050160D01*
X96928780Y-119050160D01*
X96928780Y-119909600D01*
X96928780Y-119909600D01*
G37*
G36*
X55928780Y-119909600D02*
X54871220Y-119909600D01*
X54871220Y-119050160D01*
X55928780Y-119050160D01*
X55928780Y-119909600D01*
X55928780Y-119909600D01*
G37*
G36*
X73905000Y-119835000D02*
X71095000Y-119835000D01*
X71095000Y-118515000D01*
X73905000Y-118515000D01*
X73905000Y-119835000D01*
X73905000Y-119835000D01*
G37*
G36*
X114905000Y-119835000D02*
X112095000Y-119835000D01*
X112095000Y-118515000D01*
X114905000Y-118515000D01*
X114905000Y-119835000D01*
X114905000Y-119835000D01*
G37*
G36*
X77081000Y-119524000D02*
X74321000Y-119524000D01*
X74321000Y-118364000D01*
X77081000Y-118364000D01*
X77081000Y-119524000D01*
X77081000Y-119524000D01*
G37*
G36*
X118081000Y-119524000D02*
X115321000Y-119524000D01*
X115321000Y-118364000D01*
X118081000Y-118364000D01*
X118081000Y-119524000D01*
X118081000Y-119524000D01*
G37*
G36*
X109128780Y-118325720D02*
X109130701Y-118345229D01*
X109136392Y-118363988D01*
X109145633Y-118381277D01*
X109158069Y-118396431D01*
X109173223Y-118408867D01*
X109190512Y-118418108D01*
X109209271Y-118423799D01*
X109228780Y-118425720D01*
X109246220Y-118425720D01*
X109265729Y-118423799D01*
X109284488Y-118418108D01*
X109301777Y-118408867D01*
X109316931Y-118396431D01*
X109329367Y-118381277D01*
X109338608Y-118363988D01*
X109344299Y-118345229D01*
X109346220Y-118325720D01*
X109346220Y-117410220D01*
X110403780Y-117410220D01*
X110403780Y-118269660D01*
X109963780Y-118269660D01*
X109944271Y-118271581D01*
X109925512Y-118277272D01*
X109908223Y-118286513D01*
X109893069Y-118298949D01*
X109880633Y-118314103D01*
X109871392Y-118331392D01*
X109865701Y-118350151D01*
X109863780Y-118369660D01*
X109863780Y-119483280D01*
X109004340Y-119483280D01*
X109004340Y-118369660D01*
X109002419Y-118350151D01*
X108996728Y-118331392D01*
X108987487Y-118314103D01*
X108975051Y-118298949D01*
X108959897Y-118286513D01*
X108942608Y-118277272D01*
X108923849Y-118271581D01*
X108904340Y-118269660D01*
X108071220Y-118269660D01*
X108071220Y-117410220D01*
X109128780Y-117410220D01*
X109128780Y-118325720D01*
X109128780Y-118325720D01*
G37*
G36*
X111678780Y-118269660D02*
X111543660Y-118269660D01*
X111524151Y-118271581D01*
X111505392Y-118277272D01*
X111488103Y-118286513D01*
X111472949Y-118298949D01*
X111460513Y-118314103D01*
X111451272Y-118331392D01*
X111445581Y-118350151D01*
X111443660Y-118369660D01*
X111443660Y-119483280D01*
X110584220Y-119483280D01*
X110584220Y-118402759D01*
X110591931Y-118396431D01*
X110604367Y-118381277D01*
X110613608Y-118363988D01*
X110619299Y-118345229D01*
X110621220Y-118325720D01*
X110621220Y-117410220D01*
X111678780Y-117410220D01*
X111678780Y-118269660D01*
X111678780Y-118269660D01*
G37*
G36*
X68128780Y-118325720D02*
X68130701Y-118345229D01*
X68136392Y-118363988D01*
X68145633Y-118381277D01*
X68158069Y-118396431D01*
X68173223Y-118408867D01*
X68190512Y-118418108D01*
X68209271Y-118423799D01*
X68228780Y-118425720D01*
X68246220Y-118425720D01*
X68265729Y-118423799D01*
X68284488Y-118418108D01*
X68301777Y-118408867D01*
X68316931Y-118396431D01*
X68329367Y-118381277D01*
X68338608Y-118363988D01*
X68344299Y-118345229D01*
X68346220Y-118325720D01*
X68346220Y-117410220D01*
X69403780Y-117410220D01*
X69403780Y-118269660D01*
X68963780Y-118269660D01*
X68944271Y-118271581D01*
X68925512Y-118277272D01*
X68908223Y-118286513D01*
X68893069Y-118298949D01*
X68880633Y-118314103D01*
X68871392Y-118331392D01*
X68865701Y-118350151D01*
X68863780Y-118369660D01*
X68863780Y-119483280D01*
X68004340Y-119483280D01*
X68004340Y-118369660D01*
X68002419Y-118350151D01*
X67996728Y-118331392D01*
X67987487Y-118314103D01*
X67975051Y-118298949D01*
X67959897Y-118286513D01*
X67942608Y-118277272D01*
X67923849Y-118271581D01*
X67904340Y-118269660D01*
X67071220Y-118269660D01*
X67071220Y-117410220D01*
X68128780Y-117410220D01*
X68128780Y-118325720D01*
X68128780Y-118325720D01*
G37*
G36*
X70678780Y-118269660D02*
X70543660Y-118269660D01*
X70524151Y-118271581D01*
X70505392Y-118277272D01*
X70488103Y-118286513D01*
X70472949Y-118298949D01*
X70460513Y-118314103D01*
X70451272Y-118331392D01*
X70445581Y-118350151D01*
X70443660Y-118369660D01*
X70443660Y-119483280D01*
X69584220Y-119483280D01*
X69584220Y-118402759D01*
X69591931Y-118396431D01*
X69604367Y-118381277D01*
X69613608Y-118363988D01*
X69619299Y-118345229D01*
X69621220Y-118325720D01*
X69621220Y-117410220D01*
X70678780Y-117410220D01*
X70678780Y-118269660D01*
X70678780Y-118269660D01*
G37*
G36*
X94855000Y-118435000D02*
X92045000Y-118435000D01*
X92045000Y-117115000D01*
X94855000Y-117115000D01*
X94855000Y-118435000D01*
X94855000Y-118435000D01*
G37*
G36*
X53855000Y-118435000D02*
X51045000Y-118435000D01*
X51045000Y-117115000D01*
X53855000Y-117115000D01*
X53855000Y-118435000D01*
X53855000Y-118435000D01*
G37*
G36*
X119824840Y-118378780D02*
X118965400Y-118378780D01*
X118965400Y-117321220D01*
X119824840Y-117321220D01*
X119824840Y-118378780D01*
X119824840Y-118378780D01*
G37*
G36*
X78824840Y-118378780D02*
X77965400Y-118378780D01*
X77965400Y-117321220D01*
X78824840Y-117321220D01*
X78824840Y-118378780D01*
X78824840Y-118378780D01*
G37*
G36*
X121404720Y-118378780D02*
X120545280Y-118378780D01*
X120545280Y-117321220D01*
X121404720Y-117321220D01*
X121404720Y-118378780D01*
X121404720Y-118378780D01*
G37*
G36*
X80404720Y-118378780D02*
X79545280Y-118378780D01*
X79545280Y-117321220D01*
X80404720Y-117321220D01*
X80404720Y-118378780D01*
X80404720Y-118378780D01*
G37*
G36*
X55928780Y-118329720D02*
X54871220Y-118329720D01*
X54871220Y-117470280D01*
X55928780Y-117470280D01*
X55928780Y-118329720D01*
X55928780Y-118329720D01*
G37*
G36*
X96928780Y-118329720D02*
X95871220Y-118329720D01*
X95871220Y-117470280D01*
X96928780Y-117470280D01*
X96928780Y-118329720D01*
X96928780Y-118329720D01*
G37*
G36*
X66828780Y-118269660D02*
X65771220Y-118269660D01*
X65771220Y-117410220D01*
X66828780Y-117410220D01*
X66828780Y-118269660D01*
X66828780Y-118269660D01*
G37*
G36*
X107828780Y-118269660D02*
X106771220Y-118269660D01*
X106771220Y-117410220D01*
X107828780Y-117410220D01*
X107828780Y-118269660D01*
X107828780Y-118269660D01*
G37*
G36*
X73905000Y-117635000D02*
X71095000Y-117635000D01*
X71095000Y-116315000D01*
X73905000Y-116315000D01*
X73905000Y-117635000D01*
X73905000Y-117635000D01*
G37*
G36*
X114905000Y-117635000D02*
X112095000Y-117635000D01*
X112095000Y-116315000D01*
X114905000Y-116315000D01*
X114905000Y-117635000D01*
X114905000Y-117635000D01*
G37*
G36*
X43378500Y-117227000D02*
X41721500Y-117227000D01*
X41721500Y-116078000D01*
X43378500Y-116078000D01*
X43378500Y-117227000D01*
X43378500Y-117227000D01*
G37*
G36*
X84378500Y-117227000D02*
X82721500Y-117227000D01*
X82721500Y-116078000D01*
X84378500Y-116078000D01*
X84378500Y-117227000D01*
X84378500Y-117227000D01*
G37*
G36*
X121384600Y-117003780D02*
X120525160Y-117003780D01*
X120525160Y-115946220D01*
X121384600Y-115946220D01*
X121384600Y-117003780D01*
X121384600Y-117003780D01*
G37*
G36*
X119804720Y-117003780D02*
X118945280Y-117003780D01*
X118945280Y-115946220D01*
X119804720Y-115946220D01*
X119804720Y-117003780D01*
X119804720Y-117003780D01*
G37*
G36*
X80384600Y-117003780D02*
X79525160Y-117003780D01*
X79525160Y-115946220D01*
X80384600Y-115946220D01*
X80384600Y-117003780D01*
X80384600Y-117003780D01*
G37*
G36*
X78804720Y-117003780D02*
X77945280Y-117003780D01*
X77945280Y-115946220D01*
X78804720Y-115946220D01*
X78804720Y-117003780D01*
X78804720Y-117003780D01*
G37*
G36*
X66828780Y-116689780D02*
X65771220Y-116689780D01*
X65771220Y-115830340D01*
X66828780Y-115830340D01*
X66828780Y-116689780D01*
X66828780Y-116689780D01*
G37*
G36*
X68128780Y-116689780D02*
X67071220Y-116689780D01*
X67071220Y-115830340D01*
X68128780Y-115830340D01*
X68128780Y-116689780D01*
X68128780Y-116689780D01*
G37*
G36*
X107828780Y-116689780D02*
X106771220Y-116689780D01*
X106771220Y-115830340D01*
X107828780Y-115830340D01*
X107828780Y-116689780D01*
X107828780Y-116689780D01*
G37*
G36*
X110403780Y-116689780D02*
X109346220Y-116689780D01*
X109346220Y-115830340D01*
X110403780Y-115830340D01*
X110403780Y-116689780D01*
X110403780Y-116689780D01*
G37*
G36*
X109128780Y-116689780D02*
X108071220Y-116689780D01*
X108071220Y-115830340D01*
X109128780Y-115830340D01*
X109128780Y-116689780D01*
X109128780Y-116689780D01*
G37*
G36*
X111678780Y-116689780D02*
X110621220Y-116689780D01*
X110621220Y-115830340D01*
X111678780Y-115830340D01*
X111678780Y-116689780D01*
X111678780Y-116689780D01*
G37*
G36*
X69403780Y-116689780D02*
X68346220Y-116689780D01*
X68346220Y-115830340D01*
X69403780Y-115830340D01*
X69403780Y-116689780D01*
X69403780Y-116689780D01*
G37*
G36*
X70678780Y-116689780D02*
X69621220Y-116689780D01*
X69621220Y-115830340D01*
X70678780Y-115830340D01*
X70678780Y-116689780D01*
X70678780Y-116689780D01*
G37*
G36*
X118081000Y-116624000D02*
X115321000Y-116624000D01*
X115321000Y-115464000D01*
X118081000Y-115464000D01*
X118081000Y-116624000D01*
X118081000Y-116624000D01*
G37*
G36*
X77081000Y-116624000D02*
X74321000Y-116624000D01*
X74321000Y-115464000D01*
X77081000Y-115464000D01*
X77081000Y-116624000D01*
X77081000Y-116624000D01*
G37*
G36*
X89428780Y-116594660D02*
X88371220Y-116594660D01*
X88371220Y-115735220D01*
X89428780Y-115735220D01*
X89428780Y-116594660D01*
X89428780Y-116594660D01*
G37*
G36*
X48428780Y-116594660D02*
X47371220Y-116594660D01*
X47371220Y-115735220D01*
X48428780Y-115735220D01*
X48428780Y-116594660D01*
X48428780Y-116594660D01*
G37*
G36*
X43378500Y-115322000D02*
X41721500Y-115322000D01*
X41721500Y-114173000D01*
X43378500Y-114173000D01*
X43378500Y-115322000D01*
X43378500Y-115322000D01*
G37*
G36*
X84378500Y-115322000D02*
X82721500Y-115322000D01*
X82721500Y-114173000D01*
X84378500Y-114173000D01*
X84378500Y-115322000D01*
X84378500Y-115322000D01*
G37*
G36*
X48428780Y-115014780D02*
X47371220Y-115014780D01*
X47371220Y-114155340D01*
X48428780Y-114155340D01*
X48428780Y-115014780D01*
X48428780Y-115014780D01*
G37*
G36*
X89428780Y-115014780D02*
X88371220Y-115014780D01*
X88371220Y-114155340D01*
X89428780Y-114155340D01*
X89428780Y-115014780D01*
X89428780Y-115014780D01*
G37*
G36*
X43382500Y-111991000D02*
X41725500Y-111991000D01*
X41725500Y-110842000D01*
X43382500Y-110842000D01*
X43382500Y-111991000D01*
X43382500Y-111991000D01*
G37*
G36*
X84382500Y-111991000D02*
X82725500Y-111991000D01*
X82725500Y-110842000D01*
X84382500Y-110842000D01*
X84382500Y-111991000D01*
X84382500Y-111991000D01*
G37*
G36*
X121678500Y-111974500D02*
X120021500Y-111974500D01*
X120021500Y-110825500D01*
X121678500Y-110825500D01*
X121678500Y-111974500D01*
X121678500Y-111974500D01*
G37*
G36*
X80678500Y-111974500D02*
X79021500Y-111974500D01*
X79021500Y-110825500D01*
X80678500Y-110825500D01*
X80678500Y-111974500D01*
X80678500Y-111974500D01*
G37*
G36*
X89253780Y-111119660D02*
X88196220Y-111119660D01*
X88196220Y-110260220D01*
X89253780Y-110260220D01*
X89253780Y-111119660D01*
X89253780Y-111119660D01*
G37*
G36*
X48253780Y-111119660D02*
X47196220Y-111119660D01*
X47196220Y-110260220D01*
X48253780Y-110260220D01*
X48253780Y-111119660D01*
X48253780Y-111119660D01*
G37*
G36*
X90778780Y-111094660D02*
X89721220Y-111094660D01*
X89721220Y-110235220D01*
X90778780Y-110235220D01*
X90778780Y-111094660D01*
X90778780Y-111094660D01*
G37*
G36*
X49778780Y-111094660D02*
X48721220Y-111094660D01*
X48721220Y-110235220D01*
X49778780Y-110235220D01*
X49778780Y-111094660D01*
X49778780Y-111094660D01*
G37*
G36*
X60080000Y-111080000D02*
X58070000Y-111080000D01*
X58070000Y-104520000D01*
X60080000Y-104520000D01*
X60080000Y-111080000D01*
X60080000Y-111080000D01*
G37*
G36*
X93880000Y-111080000D02*
X91870000Y-111080000D01*
X91870000Y-104520000D01*
X93880000Y-104520000D01*
X93880000Y-111080000D01*
X93880000Y-111080000D01*
G37*
G36*
X101080000Y-111080000D02*
X99070000Y-111080000D01*
X99070000Y-104520000D01*
X101080000Y-104520000D01*
X101080000Y-111080000D01*
X101080000Y-111080000D01*
G37*
G36*
X52880000Y-111080000D02*
X50870000Y-111080000D01*
X50870000Y-104520000D01*
X52880000Y-104520000D01*
X52880000Y-111080000D01*
X52880000Y-111080000D01*
G37*
G36*
X43382500Y-110086000D02*
X41725500Y-110086000D01*
X41725500Y-108937000D01*
X43382500Y-108937000D01*
X43382500Y-110086000D01*
X43382500Y-110086000D01*
G37*
G36*
X84382500Y-110086000D02*
X82725500Y-110086000D01*
X82725500Y-108937000D01*
X84382500Y-108937000D01*
X84382500Y-110086000D01*
X84382500Y-110086000D01*
G37*
G36*
X80678500Y-110069500D02*
X79021500Y-110069500D01*
X79021500Y-108920500D01*
X80678500Y-108920500D01*
X80678500Y-110069500D01*
X80678500Y-110069500D01*
G37*
G36*
X121678500Y-110069500D02*
X120021500Y-110069500D01*
X120021500Y-108920500D01*
X121678500Y-108920500D01*
X121678500Y-110069500D01*
X121678500Y-110069500D01*
G37*
G36*
X87069660Y-109976780D02*
X86210220Y-109976780D01*
X86210220Y-108919220D01*
X87069660Y-108919220D01*
X87069660Y-109976780D01*
X87069660Y-109976780D01*
G37*
G36*
X44489780Y-109976780D02*
X43630340Y-109976780D01*
X43630340Y-108919220D01*
X44489780Y-108919220D01*
X44489780Y-109976780D01*
X44489780Y-109976780D01*
G37*
G36*
X46069660Y-109976780D02*
X45210220Y-109976780D01*
X45210220Y-108919220D01*
X46069660Y-108919220D01*
X46069660Y-109976780D01*
X46069660Y-109976780D01*
G37*
G36*
X85489780Y-109976780D02*
X84630340Y-109976780D01*
X84630340Y-108919220D01*
X85489780Y-108919220D01*
X85489780Y-109976780D01*
X85489780Y-109976780D01*
G37*
G36*
X89253780Y-109539780D02*
X88196220Y-109539780D01*
X88196220Y-108680340D01*
X89253780Y-108680340D01*
X89253780Y-109539780D01*
X89253780Y-109539780D01*
G37*
G36*
X48253780Y-109539780D02*
X47196220Y-109539780D01*
X47196220Y-108680340D01*
X48253780Y-108680340D01*
X48253780Y-109539780D01*
X48253780Y-109539780D01*
G37*
G36*
X90778780Y-109514780D02*
X89721220Y-109514780D01*
X89721220Y-108655340D01*
X90778780Y-108655340D01*
X90778780Y-109514780D01*
X90778780Y-109514780D01*
G37*
G36*
X49778780Y-109514780D02*
X48721220Y-109514780D01*
X48721220Y-108655340D01*
X49778780Y-108655340D01*
X49778780Y-109514780D01*
X49778780Y-109514780D01*
G37*
G36*
X69546000Y-108821000D02*
X68226000Y-108821000D01*
X68226000Y-106011000D01*
X69546000Y-106011000D01*
X69546000Y-108821000D01*
X69546000Y-108821000D01*
G37*
G36*
X71746000Y-108821000D02*
X70426000Y-108821000D01*
X70426000Y-106011000D01*
X71746000Y-106011000D01*
X71746000Y-108821000D01*
X71746000Y-108821000D01*
G37*
G36*
X110546000Y-108821000D02*
X109226000Y-108821000D01*
X109226000Y-106011000D01*
X110546000Y-106011000D01*
X110546000Y-108821000D01*
X110546000Y-108821000D01*
G37*
G36*
X112746000Y-108821000D02*
X111426000Y-108821000D01*
X111426000Y-106011000D01*
X112746000Y-106011000D01*
X112746000Y-108821000D01*
X112746000Y-108821000D01*
G37*
G36*
X77118780Y-108635660D02*
X76061220Y-108635660D01*
X76061220Y-107776220D01*
X77118780Y-107776220D01*
X77118780Y-108635660D01*
X77118780Y-108635660D01*
G37*
G36*
X75594780Y-108635660D02*
X74537220Y-108635660D01*
X74537220Y-107776220D01*
X75594780Y-107776220D01*
X75594780Y-108635660D01*
X75594780Y-108635660D01*
G37*
G36*
X74070780Y-108635660D02*
X73013220Y-108635660D01*
X73013220Y-107776220D01*
X74070780Y-107776220D01*
X74070780Y-108635660D01*
X74070780Y-108635660D01*
G37*
G36*
X67720780Y-108635660D02*
X66663220Y-108635660D01*
X66663220Y-107776220D01*
X67720780Y-107776220D01*
X67720780Y-108635660D01*
X67720780Y-108635660D01*
G37*
G36*
X116594780Y-108635660D02*
X115537220Y-108635660D01*
X115537220Y-107776220D01*
X116594780Y-107776220D01*
X116594780Y-108635660D01*
X116594780Y-108635660D01*
G37*
G36*
X115070780Y-108635660D02*
X114013220Y-108635660D01*
X114013220Y-107776220D01*
X115070780Y-107776220D01*
X115070780Y-108635660D01*
X115070780Y-108635660D01*
G37*
G36*
X118118780Y-108635660D02*
X117061220Y-108635660D01*
X117061220Y-107776220D01*
X118118780Y-107776220D01*
X118118780Y-108635660D01*
X118118780Y-108635660D01*
G37*
G36*
X108720780Y-108635660D02*
X107663220Y-108635660D01*
X107663220Y-107776220D01*
X108720780Y-107776220D01*
X108720780Y-108635660D01*
X108720780Y-108635660D01*
G37*
G36*
X85324840Y-108169570D02*
X82565480Y-108169570D01*
X82565480Y-105910590D01*
X85324840Y-105910590D01*
X85324840Y-108169570D01*
X85324840Y-108169570D01*
G37*
G36*
X44324840Y-108169570D02*
X41565480Y-108169570D01*
X41565480Y-105910590D01*
X44324840Y-105910590D01*
X44324840Y-108169570D01*
X44324840Y-108169570D01*
G37*
G36*
X90823940Y-108169570D02*
X88064580Y-108169570D01*
X88064580Y-105910590D01*
X90823940Y-105910590D01*
X90823940Y-108169570D01*
X90823940Y-108169570D01*
G37*
G36*
X49823940Y-108169570D02*
X47064580Y-108169570D01*
X47064580Y-105910590D01*
X49823940Y-105910590D01*
X49823940Y-108169570D01*
X49823940Y-108169570D01*
G37*
G36*
X79363442Y-105230715D02*
X79570910Y-105273302D01*
X79766161Y-105355378D01*
X79850601Y-105412334D01*
X79867849Y-105421650D01*
X79886583Y-105427422D01*
X79906520Y-105429430D01*
X80879870Y-105429430D01*
X80879870Y-107190570D01*
X79907168Y-107190570D01*
X79887659Y-107192491D01*
X79868900Y-107198182D01*
X79853585Y-107206137D01*
X79739302Y-107278663D01*
X79541844Y-107355252D01*
X79333257Y-107392032D01*
X79121504Y-107387596D01*
X78914644Y-107342115D01*
X78720560Y-107257322D01*
X78650250Y-107208455D01*
X78633134Y-107198899D01*
X78614482Y-107192865D01*
X78593179Y-107190570D01*
X77620130Y-107190570D01*
X77620130Y-105429430D01*
X78593373Y-105429430D01*
X78612882Y-105427509D01*
X78631641Y-105421818D01*
X78648129Y-105413106D01*
X78747215Y-105348266D01*
X78943592Y-105268924D01*
X79151642Y-105229236D01*
X79363442Y-105230715D01*
X79363442Y-105230715D01*
G37*
G36*
X120363442Y-105230715D02*
X120570910Y-105273302D01*
X120766161Y-105355378D01*
X120850601Y-105412334D01*
X120867849Y-105421650D01*
X120886583Y-105427422D01*
X120906520Y-105429430D01*
X121879870Y-105429430D01*
X121879870Y-107190570D01*
X120907168Y-107190570D01*
X120887659Y-107192491D01*
X120868900Y-107198182D01*
X120853585Y-107206137D01*
X120739302Y-107278663D01*
X120541844Y-107355252D01*
X120333257Y-107392032D01*
X120121504Y-107387596D01*
X119914644Y-107342115D01*
X119720560Y-107257322D01*
X119650250Y-107208455D01*
X119633134Y-107198899D01*
X119614482Y-107192865D01*
X119593179Y-107190570D01*
X118620130Y-107190570D01*
X118620130Y-105429430D01*
X119593373Y-105429430D01*
X119612882Y-105427509D01*
X119631641Y-105421818D01*
X119648129Y-105413106D01*
X119747215Y-105348266D01*
X119943592Y-105268924D01*
X120151642Y-105229236D01*
X120363442Y-105230715D01*
X120363442Y-105230715D01*
G37*
G36*
X75594780Y-107055780D02*
X74537220Y-107055780D01*
X74537220Y-106196340D01*
X75594780Y-106196340D01*
X75594780Y-107055780D01*
X75594780Y-107055780D01*
G37*
G36*
X108720780Y-107055780D02*
X107663220Y-107055780D01*
X107663220Y-106196340D01*
X108720780Y-106196340D01*
X108720780Y-107055780D01*
X108720780Y-107055780D01*
G37*
G36*
X74070780Y-107055780D02*
X73013220Y-107055780D01*
X73013220Y-106196340D01*
X74070780Y-106196340D01*
X74070780Y-107055780D01*
X74070780Y-107055780D01*
G37*
G36*
X67720780Y-107055780D02*
X66663220Y-107055780D01*
X66663220Y-106196340D01*
X67720780Y-106196340D01*
X67720780Y-107055780D01*
X67720780Y-107055780D01*
G37*
G36*
X115070780Y-107055780D02*
X114013220Y-107055780D01*
X114013220Y-106196340D01*
X115070780Y-106196340D01*
X115070780Y-107055780D01*
X115070780Y-107055780D01*
G37*
G36*
X116594780Y-107055780D02*
X115537220Y-107055780D01*
X115537220Y-106196340D01*
X116594780Y-106196340D01*
X116594780Y-107055780D01*
X116594780Y-107055780D01*
G37*
G36*
X118118780Y-107055780D02*
X117061220Y-107055780D01*
X117061220Y-106196340D01*
X118118780Y-106196340D01*
X118118780Y-107055780D01*
X118118780Y-107055780D01*
G37*
G36*
X77118780Y-107055780D02*
X76061220Y-107055780D01*
X76061220Y-106196340D01*
X77118780Y-106196340D01*
X77118780Y-107055780D01*
X77118780Y-107055780D01*
G37*
G36*
X116467780Y-105828780D02*
X115608340Y-105828780D01*
X115608340Y-104771220D01*
X116467780Y-104771220D01*
X116467780Y-105828780D01*
X116467780Y-105828780D01*
G37*
G36*
X118047660Y-105828780D02*
X117188220Y-105828780D01*
X117188220Y-104771220D01*
X118047660Y-104771220D01*
X118047660Y-105828780D01*
X118047660Y-105828780D01*
G37*
G36*
X77047660Y-105828780D02*
X76188220Y-105828780D01*
X76188220Y-104771220D01*
X77047660Y-104771220D01*
X77047660Y-105828780D01*
X77047660Y-105828780D01*
G37*
G36*
X75467780Y-105828780D02*
X74608340Y-105828780D01*
X74608340Y-104771220D01*
X75467780Y-104771220D01*
X75467780Y-105828780D01*
X75467780Y-105828780D01*
G37*
G36*
X66189780Y-105503780D02*
X65330340Y-105503780D01*
X65330340Y-104446220D01*
X66189780Y-104446220D01*
X66189780Y-105503780D01*
X66189780Y-105503780D01*
G37*
G36*
X67769660Y-105503780D02*
X66910220Y-105503780D01*
X66910220Y-104446220D01*
X67769660Y-104446220D01*
X67769660Y-105503780D01*
X67769660Y-105503780D01*
G37*
G36*
X107189780Y-105503780D02*
X106330340Y-105503780D01*
X106330340Y-104446220D01*
X107189780Y-104446220D01*
X107189780Y-105503780D01*
X107189780Y-105503780D01*
G37*
G36*
X108769660Y-105503780D02*
X107910220Y-105503780D01*
X107910220Y-104446220D01*
X108769660Y-104446220D01*
X108769660Y-105503780D01*
X108769660Y-105503780D01*
G37*
G36*
X46005776Y-104210443D02*
X46117123Y-104233299D01*
X46221893Y-104277340D01*
X46316129Y-104340903D01*
X46396221Y-104421555D01*
X46459117Y-104516223D01*
X46502432Y-104621311D01*
X46524372Y-104732120D01*
X46524372Y-104732136D01*
X46524505Y-104732809D01*
X46522692Y-104862632D01*
X46522540Y-104863300D01*
X46522540Y-104863319D01*
X46497514Y-104973473D01*
X46451285Y-105077303D01*
X46385764Y-105170186D01*
X46303456Y-105248566D01*
X46207484Y-105309473D01*
X46101517Y-105350575D01*
X45989580Y-105370312D01*
X45875942Y-105367931D01*
X45764932Y-105343525D01*
X45660779Y-105298022D01*
X45567442Y-105233150D01*
X45488487Y-105151390D01*
X45426914Y-105055848D01*
X45385072Y-104950167D01*
X45364554Y-104838373D01*
X45366141Y-104724724D01*
X45389773Y-104613544D01*
X45434550Y-104509070D01*
X45498764Y-104415290D01*
X45579973Y-104335763D01*
X45675084Y-104273524D01*
X45780465Y-104230947D01*
X45892116Y-104209648D01*
X46005776Y-104210443D01*
X46005776Y-104210443D01*
G37*
G36*
X87005776Y-104210443D02*
X87117123Y-104233299D01*
X87221893Y-104277340D01*
X87316129Y-104340903D01*
X87396221Y-104421555D01*
X87459117Y-104516223D01*
X87502432Y-104621311D01*
X87524372Y-104732120D01*
X87524372Y-104732136D01*
X87524505Y-104732809D01*
X87522692Y-104862632D01*
X87522540Y-104863300D01*
X87522540Y-104863319D01*
X87497514Y-104973473D01*
X87451285Y-105077303D01*
X87385764Y-105170186D01*
X87303456Y-105248566D01*
X87207484Y-105309473D01*
X87101517Y-105350575D01*
X86989580Y-105370312D01*
X86875942Y-105367931D01*
X86764932Y-105343525D01*
X86660779Y-105298022D01*
X86567442Y-105233150D01*
X86488487Y-105151390D01*
X86426914Y-105055848D01*
X86385072Y-104950167D01*
X86364554Y-104838373D01*
X86366141Y-104724724D01*
X86389773Y-104613544D01*
X86434550Y-104509070D01*
X86498764Y-104415290D01*
X86579973Y-104335763D01*
X86675084Y-104273524D01*
X86780465Y-104230947D01*
X86892116Y-104209648D01*
X87005776Y-104210443D01*
X87005776Y-104210443D01*
G37*
G36*
X120363442Y-102690715D02*
X120570910Y-102733302D01*
X120766161Y-102815378D01*
X120850601Y-102872334D01*
X120867849Y-102881650D01*
X120886583Y-102887422D01*
X120906520Y-102889430D01*
X121879870Y-102889430D01*
X121879870Y-104650570D01*
X120907168Y-104650570D01*
X120887659Y-104652491D01*
X120868900Y-104658182D01*
X120853585Y-104666137D01*
X120739302Y-104738663D01*
X120541844Y-104815252D01*
X120333257Y-104852032D01*
X120121504Y-104847596D01*
X119914644Y-104802115D01*
X119720560Y-104717322D01*
X119650250Y-104668455D01*
X119633134Y-104658899D01*
X119614482Y-104652865D01*
X119593179Y-104650570D01*
X118620130Y-104650570D01*
X118620130Y-102889430D01*
X119593373Y-102889430D01*
X119612882Y-102887509D01*
X119631641Y-102881818D01*
X119648129Y-102873106D01*
X119747215Y-102808266D01*
X119943592Y-102728924D01*
X120151642Y-102689236D01*
X120363442Y-102690715D01*
X120363442Y-102690715D01*
G37*
G36*
X79363442Y-102690715D02*
X79570910Y-102733302D01*
X79766161Y-102815378D01*
X79850601Y-102872334D01*
X79867849Y-102881650D01*
X79886583Y-102887422D01*
X79906520Y-102889430D01*
X80879870Y-102889430D01*
X80879870Y-104650570D01*
X79907168Y-104650570D01*
X79887659Y-104652491D01*
X79868900Y-104658182D01*
X79853585Y-104666137D01*
X79739302Y-104738663D01*
X79541844Y-104815252D01*
X79333257Y-104852032D01*
X79121504Y-104847596D01*
X78914644Y-104802115D01*
X78720560Y-104717322D01*
X78650250Y-104668455D01*
X78633134Y-104658899D01*
X78614482Y-104652865D01*
X78593179Y-104650570D01*
X77620130Y-104650570D01*
X77620130Y-102889430D01*
X78593373Y-102889430D01*
X78612882Y-102887509D01*
X78631641Y-102881818D01*
X78648129Y-102873106D01*
X78747215Y-102808266D01*
X78943592Y-102728924D01*
X79151642Y-102689236D01*
X79363442Y-102690715D01*
X79363442Y-102690715D01*
G37*
G36*
X49823940Y-104570390D02*
X47262700Y-104570390D01*
X47262700Y-100609610D01*
X49823940Y-100609610D01*
X49823940Y-104570390D01*
X49823940Y-104570390D01*
G37*
G36*
X90823940Y-104570390D02*
X88262700Y-104570390D01*
X88262700Y-100609610D01*
X90823940Y-100609610D01*
X90823940Y-104570390D01*
X90823940Y-104570390D01*
G37*
G36*
X118255000Y-104260000D02*
X115445000Y-104260000D01*
X115445000Y-102940000D01*
X118255000Y-102940000D01*
X118255000Y-104260000D01*
X118255000Y-104260000D01*
G37*
G36*
X77255000Y-104260000D02*
X74445000Y-104260000D01*
X74445000Y-102940000D01*
X77255000Y-102940000D01*
X77255000Y-104260000D01*
X77255000Y-104260000D01*
G37*
G36*
X112238000Y-103880000D02*
X110918000Y-103880000D01*
X110918000Y-101070000D01*
X112238000Y-101070000D01*
X112238000Y-103880000D01*
X112238000Y-103880000D01*
G37*
G36*
X110038000Y-103880000D02*
X108718000Y-103880000D01*
X108718000Y-101070000D01*
X110038000Y-101070000D01*
X110038000Y-103880000D01*
X110038000Y-103880000D01*
G37*
G36*
X69038000Y-103880000D02*
X67718000Y-103880000D01*
X67718000Y-101070000D01*
X69038000Y-101070000D01*
X69038000Y-103880000D01*
X69038000Y-103880000D01*
G37*
G36*
X71238000Y-103880000D02*
X69918000Y-103880000D01*
X69918000Y-101070000D01*
X71238000Y-101070000D01*
X71238000Y-103880000D01*
X71238000Y-103880000D01*
G37*
G36*
X57717212Y-102801732D02*
X57711521Y-102820491D01*
X57709600Y-102840000D01*
X57709600Y-103853780D01*
X56850160Y-103853780D01*
X56850160Y-102796220D01*
X57695000Y-102796220D01*
X57714509Y-102794299D01*
X57722477Y-102791882D01*
X57717212Y-102801732D01*
X57717212Y-102801732D01*
G37*
G36*
X56129720Y-103853780D02*
X55270280Y-103853780D01*
X55270280Y-102796220D01*
X56129720Y-102796220D01*
X56129720Y-103853780D01*
X56129720Y-103853780D01*
G37*
G36*
X97129720Y-103853780D02*
X96270280Y-103853780D01*
X96270280Y-102796220D01*
X97129720Y-102796220D01*
X97129720Y-103853780D01*
X97129720Y-103853780D01*
G37*
G36*
X98717212Y-102801732D02*
X98711521Y-102820491D01*
X98709600Y-102840000D01*
X98709600Y-103853780D01*
X97850160Y-103853780D01*
X97850160Y-102796220D01*
X98695000Y-102796220D01*
X98714509Y-102794299D01*
X98722477Y-102791882D01*
X98717212Y-102801732D01*
X98717212Y-102801732D01*
G37*
G36*
X100755000Y-102740000D02*
X98809600Y-102740000D01*
X98790091Y-102741921D01*
X98782123Y-102744338D01*
X98787388Y-102734488D01*
X98793079Y-102715729D01*
X98795000Y-102696220D01*
X98795000Y-101830000D01*
X100755000Y-101830000D01*
X100755000Y-102740000D01*
X100755000Y-102740000D01*
G37*
G36*
X59755000Y-102740000D02*
X57809600Y-102740000D01*
X57790091Y-102741921D01*
X57782123Y-102744338D01*
X57787388Y-102734488D01*
X57793079Y-102715729D01*
X57795000Y-102696220D01*
X57795000Y-101830000D01*
X59755000Y-101830000D01*
X59755000Y-102740000D01*
X59755000Y-102740000D01*
G37*
G36*
X67055000Y-102740000D02*
X65095000Y-102740000D01*
X65095000Y-101830000D01*
X67055000Y-101830000D01*
X67055000Y-102740000D01*
X67055000Y-102740000D01*
G37*
G36*
X108055000Y-102740000D02*
X106095000Y-102740000D01*
X106095000Y-101830000D01*
X108055000Y-101830000D01*
X108055000Y-102740000D01*
X108055000Y-102740000D01*
G37*
G36*
X93255780Y-102516660D02*
X92198220Y-102516660D01*
X92198220Y-101657220D01*
X93255780Y-101657220D01*
X93255780Y-102516660D01*
X93255780Y-102516660D01*
G37*
G36*
X52255780Y-102516660D02*
X51198220Y-102516660D01*
X51198220Y-101657220D01*
X52255780Y-101657220D01*
X52255780Y-102516660D01*
X52255780Y-102516660D01*
G37*
G36*
X94528780Y-102509600D02*
X93471220Y-102509600D01*
X93471220Y-101650160D01*
X94528780Y-101650160D01*
X94528780Y-102509600D01*
X94528780Y-102509600D01*
G37*
G36*
X53528780Y-102509600D02*
X52471220Y-102509600D01*
X52471220Y-101650160D01*
X53528780Y-101650160D01*
X53528780Y-102509600D01*
X53528780Y-102509600D01*
G37*
G36*
X54803780Y-102509600D02*
X53746220Y-102509600D01*
X53746220Y-101650160D01*
X54803780Y-101650160D01*
X54803780Y-102509600D01*
X54803780Y-102509600D01*
G37*
G36*
X95803780Y-102509600D02*
X94746220Y-102509600D01*
X94746220Y-101650160D01*
X95803780Y-101650160D01*
X95803780Y-102509600D01*
X95803780Y-102509600D01*
G37*
G36*
X97453780Y-102494660D02*
X96396220Y-102494660D01*
X96396220Y-101635220D01*
X97453780Y-101635220D01*
X97453780Y-102494660D01*
X97453780Y-102494660D01*
G37*
G36*
X56453780Y-102494660D02*
X55396220Y-102494660D01*
X55396220Y-101635220D01*
X56453780Y-101635220D01*
X56453780Y-102494660D01*
X56453780Y-102494660D01*
G37*
G36*
X120363442Y-100150715D02*
X120570910Y-100193302D01*
X120766161Y-100275378D01*
X120850601Y-100332334D01*
X120867849Y-100341650D01*
X120886583Y-100347422D01*
X120906520Y-100349430D01*
X121879870Y-100349430D01*
X121879870Y-102110570D01*
X120907168Y-102110570D01*
X120887659Y-102112491D01*
X120868900Y-102118182D01*
X120853585Y-102126137D01*
X120739302Y-102198663D01*
X120541844Y-102275252D01*
X120333257Y-102312032D01*
X120121504Y-102307596D01*
X119914644Y-102262115D01*
X119720560Y-102177322D01*
X119650250Y-102128455D01*
X119633134Y-102118899D01*
X119614482Y-102112865D01*
X119593179Y-102110570D01*
X118620130Y-102110570D01*
X118620130Y-100349430D01*
X119593373Y-100349430D01*
X119612882Y-100347509D01*
X119631641Y-100341818D01*
X119648129Y-100333106D01*
X119747215Y-100268266D01*
X119943592Y-100188924D01*
X120151642Y-100149236D01*
X120363442Y-100150715D01*
X120363442Y-100150715D01*
G37*
G36*
X79363442Y-100150715D02*
X79570910Y-100193302D01*
X79766161Y-100275378D01*
X79850601Y-100332334D01*
X79867849Y-100341650D01*
X79886583Y-100347422D01*
X79906520Y-100349430D01*
X80879870Y-100349430D01*
X80879870Y-102110570D01*
X79907168Y-102110570D01*
X79887659Y-102112491D01*
X79868900Y-102118182D01*
X79853585Y-102126137D01*
X79739302Y-102198663D01*
X79541844Y-102275252D01*
X79333257Y-102312032D01*
X79121504Y-102307596D01*
X78914644Y-102262115D01*
X78720560Y-102177322D01*
X78650250Y-102128455D01*
X78633134Y-102118899D01*
X78614482Y-102112865D01*
X78593179Y-102110570D01*
X77620130Y-102110570D01*
X77620130Y-100349430D01*
X78593373Y-100349430D01*
X78612882Y-100347509D01*
X78631641Y-100341818D01*
X78648129Y-100333106D01*
X78747215Y-100268266D01*
X78943592Y-100188924D01*
X79151642Y-100149236D01*
X79363442Y-100150715D01*
X79363442Y-100150715D01*
G37*
G36*
X77255000Y-102060000D02*
X74445000Y-102060000D01*
X74445000Y-100740000D01*
X77255000Y-100740000D01*
X77255000Y-102060000D01*
X77255000Y-102060000D01*
G37*
G36*
X118255000Y-102060000D02*
X115445000Y-102060000D01*
X115445000Y-100740000D01*
X118255000Y-100740000D01*
X118255000Y-102060000D01*
X118255000Y-102060000D01*
G37*
G36*
X114816780Y-101777660D02*
X113759220Y-101777660D01*
X113759220Y-100918220D01*
X114816780Y-100918220D01*
X114816780Y-101777660D01*
X114816780Y-101777660D01*
G37*
G36*
X73816780Y-101777660D02*
X72759220Y-101777660D01*
X72759220Y-100918220D01*
X73816780Y-100918220D01*
X73816780Y-101777660D01*
X73816780Y-101777660D01*
G37*
G36*
X100755000Y-101470000D02*
X98795000Y-101470000D01*
X98795000Y-100560000D01*
X100755000Y-100560000D01*
X100755000Y-101470000D01*
X100755000Y-101470000D01*
G37*
G36*
X108055000Y-101470000D02*
X106095000Y-101470000D01*
X106095000Y-100560000D01*
X108055000Y-100560000D01*
X108055000Y-101470000D01*
X108055000Y-101470000D01*
G37*
G36*
X59755000Y-101470000D02*
X57795000Y-101470000D01*
X57795000Y-100560000D01*
X59755000Y-100560000D01*
X59755000Y-101470000D01*
X59755000Y-101470000D01*
G37*
G36*
X67055000Y-101470000D02*
X65095000Y-101470000D01*
X65095000Y-100560000D01*
X67055000Y-100560000D01*
X67055000Y-101470000D01*
X67055000Y-101470000D01*
G37*
G36*
X46005776Y-99811163D02*
X46117123Y-99834019D01*
X46221893Y-99878060D01*
X46316129Y-99941623D01*
X46396221Y-100022275D01*
X46459117Y-100116943D01*
X46502432Y-100222031D01*
X46524372Y-100332840D01*
X46524372Y-100332856D01*
X46524505Y-100333529D01*
X46522692Y-100463352D01*
X46522540Y-100464020D01*
X46522540Y-100464039D01*
X46497514Y-100574193D01*
X46451285Y-100678023D01*
X46385764Y-100770906D01*
X46303456Y-100849286D01*
X46207484Y-100910193D01*
X46101517Y-100951295D01*
X45989580Y-100971032D01*
X45875942Y-100968651D01*
X45764932Y-100944245D01*
X45660779Y-100898742D01*
X45567442Y-100833870D01*
X45488487Y-100752110D01*
X45426914Y-100656568D01*
X45385072Y-100550887D01*
X45364554Y-100439093D01*
X45366141Y-100325444D01*
X45389773Y-100214264D01*
X45434550Y-100109790D01*
X45498764Y-100016010D01*
X45579973Y-99936483D01*
X45675084Y-99874244D01*
X45780465Y-99831667D01*
X45892116Y-99810368D01*
X46005776Y-99811163D01*
X46005776Y-99811163D01*
G37*
G36*
X87005776Y-99811163D02*
X87117123Y-99834019D01*
X87221893Y-99878060D01*
X87316129Y-99941623D01*
X87396221Y-100022275D01*
X87459117Y-100116943D01*
X87502432Y-100222031D01*
X87524372Y-100332840D01*
X87524372Y-100332856D01*
X87524505Y-100333529D01*
X87522692Y-100463352D01*
X87522540Y-100464020D01*
X87522540Y-100464039D01*
X87497514Y-100574193D01*
X87451285Y-100678023D01*
X87385764Y-100770906D01*
X87303456Y-100849286D01*
X87207484Y-100910193D01*
X87101517Y-100951295D01*
X86989580Y-100971032D01*
X86875942Y-100968651D01*
X86764932Y-100944245D01*
X86660779Y-100898742D01*
X86567442Y-100833870D01*
X86488487Y-100752110D01*
X86426914Y-100656568D01*
X86385072Y-100550887D01*
X86364554Y-100439093D01*
X86366141Y-100325444D01*
X86389773Y-100214264D01*
X86434550Y-100109790D01*
X86498764Y-100016010D01*
X86579973Y-99936483D01*
X86675084Y-99874244D01*
X86780465Y-99831667D01*
X86892116Y-99810368D01*
X87005776Y-99811163D01*
X87005776Y-99811163D01*
G37*
G36*
X93255780Y-100936780D02*
X92198220Y-100936780D01*
X92198220Y-100077340D01*
X93255780Y-100077340D01*
X93255780Y-100936780D01*
X93255780Y-100936780D01*
G37*
G36*
X52255780Y-100936780D02*
X51198220Y-100936780D01*
X51198220Y-100077340D01*
X52255780Y-100077340D01*
X52255780Y-100936780D01*
X52255780Y-100936780D01*
G37*
G36*
X94528780Y-100929720D02*
X93471220Y-100929720D01*
X93471220Y-100070280D01*
X94528780Y-100070280D01*
X94528780Y-100929720D01*
X94528780Y-100929720D01*
G37*
G36*
X95803780Y-100929720D02*
X94746220Y-100929720D01*
X94746220Y-100070280D01*
X95803780Y-100070280D01*
X95803780Y-100929720D01*
X95803780Y-100929720D01*
G37*
G36*
X54803780Y-100929720D02*
X53746220Y-100929720D01*
X53746220Y-100070280D01*
X54803780Y-100070280D01*
X54803780Y-100929720D01*
X54803780Y-100929720D01*
G37*
G36*
X53528780Y-100929720D02*
X52471220Y-100929720D01*
X52471220Y-100070280D01*
X53528780Y-100070280D01*
X53528780Y-100929720D01*
X53528780Y-100929720D01*
G37*
G36*
X97453780Y-100914780D02*
X96396220Y-100914780D01*
X96396220Y-100055340D01*
X97453780Y-100055340D01*
X97453780Y-100914780D01*
X97453780Y-100914780D01*
G37*
G36*
X56453780Y-100914780D02*
X55396220Y-100914780D01*
X55396220Y-100055340D01*
X56453780Y-100055340D01*
X56453780Y-100914780D01*
X56453780Y-100914780D01*
G37*
G36*
X118269660Y-100328780D02*
X117410220Y-100328780D01*
X117410220Y-99271220D01*
X118269660Y-99271220D01*
X118269660Y-100328780D01*
X118269660Y-100328780D01*
G37*
G36*
X116689780Y-100328780D02*
X115830340Y-100328780D01*
X115830340Y-99271220D01*
X116689780Y-99271220D01*
X116689780Y-100328780D01*
X116689780Y-100328780D01*
G37*
G36*
X75689780Y-100328780D02*
X74830340Y-100328780D01*
X74830340Y-99271220D01*
X75689780Y-99271220D01*
X75689780Y-100328780D01*
X75689780Y-100328780D01*
G37*
G36*
X77269660Y-100328780D02*
X76410220Y-100328780D01*
X76410220Y-99271220D01*
X77269660Y-99271220D01*
X77269660Y-100328780D01*
X77269660Y-100328780D01*
G37*
G36*
X113348660Y-100324780D02*
X112489220Y-100324780D01*
X112489220Y-99267220D01*
X113348660Y-99267220D01*
X113348660Y-100324780D01*
X113348660Y-100324780D01*
G37*
G36*
X111768780Y-100324780D02*
X110909340Y-100324780D01*
X110909340Y-99267220D01*
X111768780Y-99267220D01*
X111768780Y-100324780D01*
X111768780Y-100324780D01*
G37*
G36*
X70768780Y-100324780D02*
X69909340Y-100324780D01*
X69909340Y-99267220D01*
X70768780Y-99267220D01*
X70768780Y-100324780D01*
X70768780Y-100324780D01*
G37*
G36*
X72348660Y-100324780D02*
X71489220Y-100324780D01*
X71489220Y-99267220D01*
X72348660Y-99267220D01*
X72348660Y-100324780D01*
X72348660Y-100324780D01*
G37*
G36*
X109089780Y-100053780D02*
X108155000Y-100053780D01*
X108135491Y-100055701D01*
X108116732Y-100061392D01*
X108099443Y-100070633D01*
X108084289Y-100083069D01*
X108071853Y-100098223D01*
X108062612Y-100115512D01*
X108056921Y-100134271D01*
X108055000Y-100153780D01*
X108055000Y-100200000D01*
X106095000Y-100200000D01*
X106095000Y-99290000D01*
X108130340Y-99290000D01*
X108149849Y-99288079D01*
X108168608Y-99282388D01*
X108185897Y-99273147D01*
X108201051Y-99260711D01*
X108213487Y-99245557D01*
X108222728Y-99228268D01*
X108228419Y-99209509D01*
X108230340Y-99190000D01*
X108230340Y-99030000D01*
X108228419Y-99010491D01*
X108224090Y-98996220D01*
X109089780Y-98996220D01*
X109089780Y-100053780D01*
X109089780Y-100053780D01*
G37*
G36*
X68089780Y-100053780D02*
X67155000Y-100053780D01*
X67135491Y-100055701D01*
X67116732Y-100061392D01*
X67099443Y-100070633D01*
X67084289Y-100083069D01*
X67071853Y-100098223D01*
X67062612Y-100115512D01*
X67056921Y-100134271D01*
X67055000Y-100153780D01*
X67055000Y-100200000D01*
X65095000Y-100200000D01*
X65095000Y-99290000D01*
X67130340Y-99290000D01*
X67149849Y-99288079D01*
X67168608Y-99282388D01*
X67185897Y-99273147D01*
X67201051Y-99260711D01*
X67213487Y-99245557D01*
X67222728Y-99228268D01*
X67228419Y-99209509D01*
X67230340Y-99190000D01*
X67230340Y-99030000D01*
X67228419Y-99010491D01*
X67224090Y-98996220D01*
X68089780Y-98996220D01*
X68089780Y-100053780D01*
X68089780Y-100053780D01*
G37*
G36*
X100755000Y-100200000D02*
X98795000Y-100200000D01*
X98795000Y-99290000D01*
X100755000Y-99290000D01*
X100755000Y-100200000D01*
X100755000Y-100200000D01*
G37*
G36*
X59755000Y-100200000D02*
X57795000Y-100200000D01*
X57795000Y-99290000D01*
X59755000Y-99290000D01*
X59755000Y-100200000D01*
X59755000Y-100200000D01*
G37*
G36*
X114816780Y-100197780D02*
X113759220Y-100197780D01*
X113759220Y-99338340D01*
X114816780Y-99338340D01*
X114816780Y-100197780D01*
X114816780Y-100197780D01*
G37*
G36*
X73816780Y-100197780D02*
X72759220Y-100197780D01*
X72759220Y-99338340D01*
X73816780Y-99338340D01*
X73816780Y-100197780D01*
X73816780Y-100197780D01*
G37*
G36*
X110669660Y-100053780D02*
X109810220Y-100053780D01*
X109810220Y-98996220D01*
X110669660Y-98996220D01*
X110669660Y-100053780D01*
X110669660Y-100053780D01*
G37*
G36*
X69669660Y-100053780D02*
X68810220Y-100053780D01*
X68810220Y-98996220D01*
X69669660Y-98996220D01*
X69669660Y-100053780D01*
X69669660Y-100053780D01*
G37*
G36*
X80330000Y-97709430D02*
X80331921Y-97728939D01*
X80337612Y-97747698D01*
X80346853Y-97764987D01*
X80359289Y-97780141D01*
X80374443Y-97792577D01*
X80391732Y-97801818D01*
X80410491Y-97807509D01*
X80430000Y-97809430D01*
X80879870Y-97809430D01*
X80879870Y-99570570D01*
X80430000Y-99570570D01*
X80410491Y-99572491D01*
X80391732Y-99578182D01*
X80374443Y-99587423D01*
X80359289Y-99599859D01*
X80346853Y-99615013D01*
X80337612Y-99632302D01*
X80331921Y-99651061D01*
X80330000Y-99670570D01*
X80330000Y-99770000D01*
X78170000Y-99770000D01*
X78170000Y-99670570D01*
X78168079Y-99651061D01*
X78162388Y-99632302D01*
X78153147Y-99615013D01*
X78140711Y-99599859D01*
X78125557Y-99587423D01*
X78108268Y-99578182D01*
X78089509Y-99572491D01*
X78070000Y-99570570D01*
X77620130Y-99570570D01*
X77620130Y-97809430D01*
X78070000Y-97809430D01*
X78089509Y-97807509D01*
X78108268Y-97801818D01*
X78125557Y-97792577D01*
X78140711Y-97780141D01*
X78153147Y-97764987D01*
X78162388Y-97747698D01*
X78168079Y-97728939D01*
X78170000Y-97709430D01*
X78170000Y-97610000D01*
X80330000Y-97610000D01*
X80330000Y-97709430D01*
X80330000Y-97709430D01*
G37*
G36*
X121330000Y-97709430D02*
X121331921Y-97728939D01*
X121337612Y-97747698D01*
X121346853Y-97764987D01*
X121359289Y-97780141D01*
X121374443Y-97792577D01*
X121391732Y-97801818D01*
X121410491Y-97807509D01*
X121430000Y-97809430D01*
X121879870Y-97809430D01*
X121879870Y-99570570D01*
X121430000Y-99570570D01*
X121410491Y-99572491D01*
X121391732Y-99578182D01*
X121374443Y-99587423D01*
X121359289Y-99599859D01*
X121346853Y-99615013D01*
X121337612Y-99632302D01*
X121331921Y-99651061D01*
X121330000Y-99670570D01*
X121330000Y-99770000D01*
X119170000Y-99770000D01*
X119170000Y-99670570D01*
X119168079Y-99651061D01*
X119162388Y-99632302D01*
X119153147Y-99615013D01*
X119140711Y-99599859D01*
X119125557Y-99587423D01*
X119108268Y-99578182D01*
X119089509Y-99572491D01*
X119070000Y-99570570D01*
X118620130Y-99570570D01*
X118620130Y-97809430D01*
X119070000Y-97809430D01*
X119089509Y-97807509D01*
X119108268Y-97801818D01*
X119125557Y-97792577D01*
X119140711Y-97780141D01*
X119153147Y-97764987D01*
X119162388Y-97747698D01*
X119168079Y-97728939D01*
X119170000Y-97709430D01*
X119170000Y-97610000D01*
X121330000Y-97610000D01*
X121330000Y-97709430D01*
X121330000Y-97709430D01*
G37*
G36*
X53855000Y-99635000D02*
X51045000Y-99635000D01*
X51045000Y-98315000D01*
X53855000Y-98315000D01*
X53855000Y-99635000D01*
X53855000Y-99635000D01*
G37*
G36*
X94855000Y-99635000D02*
X92045000Y-99635000D01*
X92045000Y-98315000D01*
X94855000Y-98315000D01*
X94855000Y-99635000D01*
X94855000Y-99635000D01*
G37*
G36*
X90823940Y-99269410D02*
X88064580Y-99269410D01*
X88064580Y-97010430D01*
X90823940Y-97010430D01*
X90823940Y-99269410D01*
X90823940Y-99269410D01*
G37*
G36*
X44324840Y-99269410D02*
X41565480Y-99269410D01*
X41565480Y-97010430D01*
X44324840Y-97010430D01*
X44324840Y-99269410D01*
X44324840Y-99269410D01*
G37*
G36*
X49823940Y-99269410D02*
X47064580Y-99269410D01*
X47064580Y-97010430D01*
X49823940Y-97010430D01*
X49823940Y-99269410D01*
X49823940Y-99269410D01*
G37*
G36*
X85324840Y-99269410D02*
X82565480Y-99269410D01*
X82565480Y-97010430D01*
X85324840Y-97010430D01*
X85324840Y-99269410D01*
X85324840Y-99269410D01*
G37*
G36*
X59755000Y-98930000D02*
X57795000Y-98930000D01*
X57795000Y-98020000D01*
X59755000Y-98020000D01*
X59755000Y-98930000D01*
X59755000Y-98930000D01*
G37*
G36*
X108055000Y-98896220D02*
X108056921Y-98915729D01*
X108061250Y-98930000D01*
X106095000Y-98930000D01*
X106095000Y-98020000D01*
X108055000Y-98020000D01*
X108055000Y-98896220D01*
X108055000Y-98896220D01*
G37*
G36*
X100755000Y-98930000D02*
X98795000Y-98930000D01*
X98795000Y-98020000D01*
X100755000Y-98020000D01*
X100755000Y-98930000D01*
X100755000Y-98930000D01*
G37*
G36*
X67055000Y-98896220D02*
X67056921Y-98915729D01*
X67061250Y-98930000D01*
X65095000Y-98930000D01*
X65095000Y-98020000D01*
X67055000Y-98020000D01*
X67055000Y-98896220D01*
X67055000Y-98896220D01*
G37*
G36*
X96928780Y-98909600D02*
X95871220Y-98909600D01*
X95871220Y-98050160D01*
X96928780Y-98050160D01*
X96928780Y-98909600D01*
X96928780Y-98909600D01*
G37*
G36*
X55928780Y-98909600D02*
X54871220Y-98909600D01*
X54871220Y-98050160D01*
X55928780Y-98050160D01*
X55928780Y-98909600D01*
X55928780Y-98909600D01*
G37*
G36*
X73905000Y-98835000D02*
X71095000Y-98835000D01*
X71095000Y-97515000D01*
X73905000Y-97515000D01*
X73905000Y-98835000D01*
X73905000Y-98835000D01*
G37*
G36*
X114905000Y-98835000D02*
X112095000Y-98835000D01*
X112095000Y-97515000D01*
X114905000Y-97515000D01*
X114905000Y-98835000D01*
X114905000Y-98835000D01*
G37*
G36*
X118081000Y-98524000D02*
X115321000Y-98524000D01*
X115321000Y-97364000D01*
X118081000Y-97364000D01*
X118081000Y-98524000D01*
X118081000Y-98524000D01*
G37*
G36*
X77081000Y-98524000D02*
X74321000Y-98524000D01*
X74321000Y-97364000D01*
X77081000Y-97364000D01*
X77081000Y-98524000D01*
X77081000Y-98524000D01*
G37*
G36*
X109128780Y-97325720D02*
X109130701Y-97345229D01*
X109136392Y-97363988D01*
X109145633Y-97381277D01*
X109158069Y-97396431D01*
X109173223Y-97408867D01*
X109190512Y-97418108D01*
X109209271Y-97423799D01*
X109228780Y-97425720D01*
X109246220Y-97425720D01*
X109265729Y-97423799D01*
X109284488Y-97418108D01*
X109301777Y-97408867D01*
X109316931Y-97396431D01*
X109329367Y-97381277D01*
X109338608Y-97363988D01*
X109344299Y-97345229D01*
X109346220Y-97325720D01*
X109346220Y-96410220D01*
X110403780Y-96410220D01*
X110403780Y-97269660D01*
X109963780Y-97269660D01*
X109944271Y-97271581D01*
X109925512Y-97277272D01*
X109908223Y-97286513D01*
X109893069Y-97298949D01*
X109880633Y-97314103D01*
X109871392Y-97331392D01*
X109865701Y-97350151D01*
X109863780Y-97369660D01*
X109863780Y-98483280D01*
X109004340Y-98483280D01*
X109004340Y-97369660D01*
X109002419Y-97350151D01*
X108996728Y-97331392D01*
X108987487Y-97314103D01*
X108975051Y-97298949D01*
X108959897Y-97286513D01*
X108942608Y-97277272D01*
X108923849Y-97271581D01*
X108904340Y-97269660D01*
X108071220Y-97269660D01*
X108071220Y-96410220D01*
X109128780Y-96410220D01*
X109128780Y-97325720D01*
X109128780Y-97325720D01*
G37*
G36*
X111678780Y-97269660D02*
X111543660Y-97269660D01*
X111524151Y-97271581D01*
X111505392Y-97277272D01*
X111488103Y-97286513D01*
X111472949Y-97298949D01*
X111460513Y-97314103D01*
X111451272Y-97331392D01*
X111445581Y-97350151D01*
X111443660Y-97369660D01*
X111443660Y-98483280D01*
X110584220Y-98483280D01*
X110584220Y-97402759D01*
X110591931Y-97396431D01*
X110604367Y-97381277D01*
X110613608Y-97363988D01*
X110619299Y-97345229D01*
X110621220Y-97325720D01*
X110621220Y-96410220D01*
X111678780Y-96410220D01*
X111678780Y-97269660D01*
X111678780Y-97269660D01*
G37*
G36*
X68128780Y-97325720D02*
X68130701Y-97345229D01*
X68136392Y-97363988D01*
X68145633Y-97381277D01*
X68158069Y-97396431D01*
X68173223Y-97408867D01*
X68190512Y-97418108D01*
X68209271Y-97423799D01*
X68228780Y-97425720D01*
X68246220Y-97425720D01*
X68265729Y-97423799D01*
X68284488Y-97418108D01*
X68301777Y-97408867D01*
X68316931Y-97396431D01*
X68329367Y-97381277D01*
X68338608Y-97363988D01*
X68344299Y-97345229D01*
X68346220Y-97325720D01*
X68346220Y-96410220D01*
X69403780Y-96410220D01*
X69403780Y-97269660D01*
X68963780Y-97269660D01*
X68944271Y-97271581D01*
X68925512Y-97277272D01*
X68908223Y-97286513D01*
X68893069Y-97298949D01*
X68880633Y-97314103D01*
X68871392Y-97331392D01*
X68865701Y-97350151D01*
X68863780Y-97369660D01*
X68863780Y-98483280D01*
X68004340Y-98483280D01*
X68004340Y-97369660D01*
X68002419Y-97350151D01*
X67996728Y-97331392D01*
X67987487Y-97314103D01*
X67975051Y-97298949D01*
X67959897Y-97286513D01*
X67942608Y-97277272D01*
X67923849Y-97271581D01*
X67904340Y-97269660D01*
X67071220Y-97269660D01*
X67071220Y-96410220D01*
X68128780Y-96410220D01*
X68128780Y-97325720D01*
X68128780Y-97325720D01*
G37*
G36*
X70678780Y-97269660D02*
X70543660Y-97269660D01*
X70524151Y-97271581D01*
X70505392Y-97277272D01*
X70488103Y-97286513D01*
X70472949Y-97298949D01*
X70460513Y-97314103D01*
X70451272Y-97331392D01*
X70445581Y-97350151D01*
X70443660Y-97369660D01*
X70443660Y-98483280D01*
X69584220Y-98483280D01*
X69584220Y-97402759D01*
X69591931Y-97396431D01*
X69604367Y-97381277D01*
X69613608Y-97363988D01*
X69619299Y-97345229D01*
X69621220Y-97325720D01*
X69621220Y-96410220D01*
X70678780Y-96410220D01*
X70678780Y-97269660D01*
X70678780Y-97269660D01*
G37*
G36*
X94855000Y-97435000D02*
X92045000Y-97435000D01*
X92045000Y-96115000D01*
X94855000Y-96115000D01*
X94855000Y-97435000D01*
X94855000Y-97435000D01*
G37*
G36*
X53855000Y-97435000D02*
X51045000Y-97435000D01*
X51045000Y-96115000D01*
X53855000Y-96115000D01*
X53855000Y-97435000D01*
X53855000Y-97435000D01*
G37*
G36*
X119824840Y-97378780D02*
X118965400Y-97378780D01*
X118965400Y-96321220D01*
X119824840Y-96321220D01*
X119824840Y-97378780D01*
X119824840Y-97378780D01*
G37*
G36*
X78824840Y-97378780D02*
X77965400Y-97378780D01*
X77965400Y-96321220D01*
X78824840Y-96321220D01*
X78824840Y-97378780D01*
X78824840Y-97378780D01*
G37*
G36*
X121404720Y-97378780D02*
X120545280Y-97378780D01*
X120545280Y-96321220D01*
X121404720Y-96321220D01*
X121404720Y-97378780D01*
X121404720Y-97378780D01*
G37*
G36*
X80404720Y-97378780D02*
X79545280Y-97378780D01*
X79545280Y-96321220D01*
X80404720Y-96321220D01*
X80404720Y-97378780D01*
X80404720Y-97378780D01*
G37*
G36*
X96928780Y-97329720D02*
X95871220Y-97329720D01*
X95871220Y-96470280D01*
X96928780Y-96470280D01*
X96928780Y-97329720D01*
X96928780Y-97329720D01*
G37*
G36*
X55928780Y-97329720D02*
X54871220Y-97329720D01*
X54871220Y-96470280D01*
X55928780Y-96470280D01*
X55928780Y-97329720D01*
X55928780Y-97329720D01*
G37*
G36*
X107828780Y-97269660D02*
X106771220Y-97269660D01*
X106771220Y-96410220D01*
X107828780Y-96410220D01*
X107828780Y-97269660D01*
X107828780Y-97269660D01*
G37*
G36*
X66828780Y-97269660D02*
X65771220Y-97269660D01*
X65771220Y-96410220D01*
X66828780Y-96410220D01*
X66828780Y-97269660D01*
X66828780Y-97269660D01*
G37*
G36*
X73905000Y-96635000D02*
X71095000Y-96635000D01*
X71095000Y-95315000D01*
X73905000Y-95315000D01*
X73905000Y-96635000D01*
X73905000Y-96635000D01*
G37*
G36*
X114905000Y-96635000D02*
X112095000Y-96635000D01*
X112095000Y-95315000D01*
X114905000Y-95315000D01*
X114905000Y-96635000D01*
X114905000Y-96635000D01*
G37*
G36*
X84378500Y-96227000D02*
X82721500Y-96227000D01*
X82721500Y-95078000D01*
X84378500Y-95078000D01*
X84378500Y-96227000D01*
X84378500Y-96227000D01*
G37*
G36*
X43378500Y-96227000D02*
X41721500Y-96227000D01*
X41721500Y-95078000D01*
X43378500Y-95078000D01*
X43378500Y-96227000D01*
X43378500Y-96227000D01*
G37*
G36*
X121384600Y-96003780D02*
X120525160Y-96003780D01*
X120525160Y-94946220D01*
X121384600Y-94946220D01*
X121384600Y-96003780D01*
X121384600Y-96003780D01*
G37*
G36*
X119804720Y-96003780D02*
X118945280Y-96003780D01*
X118945280Y-94946220D01*
X119804720Y-94946220D01*
X119804720Y-96003780D01*
X119804720Y-96003780D01*
G37*
G36*
X78804720Y-96003780D02*
X77945280Y-96003780D01*
X77945280Y-94946220D01*
X78804720Y-94946220D01*
X78804720Y-96003780D01*
X78804720Y-96003780D01*
G37*
G36*
X80384600Y-96003780D02*
X79525160Y-96003780D01*
X79525160Y-94946220D01*
X80384600Y-94946220D01*
X80384600Y-96003780D01*
X80384600Y-96003780D01*
G37*
G36*
X68128780Y-95689780D02*
X67071220Y-95689780D01*
X67071220Y-94830340D01*
X68128780Y-94830340D01*
X68128780Y-95689780D01*
X68128780Y-95689780D01*
G37*
G36*
X66828780Y-95689780D02*
X65771220Y-95689780D01*
X65771220Y-94830340D01*
X66828780Y-94830340D01*
X66828780Y-95689780D01*
X66828780Y-95689780D01*
G37*
G36*
X69403780Y-95689780D02*
X68346220Y-95689780D01*
X68346220Y-94830340D01*
X69403780Y-94830340D01*
X69403780Y-95689780D01*
X69403780Y-95689780D01*
G37*
G36*
X70678780Y-95689780D02*
X69621220Y-95689780D01*
X69621220Y-94830340D01*
X70678780Y-94830340D01*
X70678780Y-95689780D01*
X70678780Y-95689780D01*
G37*
G36*
X107828780Y-95689780D02*
X106771220Y-95689780D01*
X106771220Y-94830340D01*
X107828780Y-94830340D01*
X107828780Y-95689780D01*
X107828780Y-95689780D01*
G37*
G36*
X109128780Y-95689780D02*
X108071220Y-95689780D01*
X108071220Y-94830340D01*
X109128780Y-94830340D01*
X109128780Y-95689780D01*
X109128780Y-95689780D01*
G37*
G36*
X111678780Y-95689780D02*
X110621220Y-95689780D01*
X110621220Y-94830340D01*
X111678780Y-94830340D01*
X111678780Y-95689780D01*
X111678780Y-95689780D01*
G37*
G36*
X110403780Y-95689780D02*
X109346220Y-95689780D01*
X109346220Y-94830340D01*
X110403780Y-94830340D01*
X110403780Y-95689780D01*
X110403780Y-95689780D01*
G37*
G36*
X77081000Y-95624000D02*
X74321000Y-95624000D01*
X74321000Y-94464000D01*
X77081000Y-94464000D01*
X77081000Y-95624000D01*
X77081000Y-95624000D01*
G37*
G36*
X118081000Y-95624000D02*
X115321000Y-95624000D01*
X115321000Y-94464000D01*
X118081000Y-94464000D01*
X118081000Y-95624000D01*
X118081000Y-95624000D01*
G37*
G36*
X48428780Y-95594660D02*
X47371220Y-95594660D01*
X47371220Y-94735220D01*
X48428780Y-94735220D01*
X48428780Y-95594660D01*
X48428780Y-95594660D01*
G37*
G36*
X89428780Y-95594660D02*
X88371220Y-95594660D01*
X88371220Y-94735220D01*
X89428780Y-94735220D01*
X89428780Y-95594660D01*
X89428780Y-95594660D01*
G37*
G36*
X84378500Y-94322000D02*
X82721500Y-94322000D01*
X82721500Y-93173000D01*
X84378500Y-93173000D01*
X84378500Y-94322000D01*
X84378500Y-94322000D01*
G37*
G36*
X43378500Y-94322000D02*
X41721500Y-94322000D01*
X41721500Y-93173000D01*
X43378500Y-93173000D01*
X43378500Y-94322000D01*
X43378500Y-94322000D01*
G37*
G36*
X48428780Y-94014780D02*
X47371220Y-94014780D01*
X47371220Y-93155340D01*
X48428780Y-93155340D01*
X48428780Y-94014780D01*
X48428780Y-94014780D01*
G37*
G36*
X89428780Y-94014780D02*
X88371220Y-94014780D01*
X88371220Y-93155340D01*
X89428780Y-93155340D01*
X89428780Y-94014780D01*
X89428780Y-94014780D01*
G37*
G36*
X43382500Y-90741000D02*
X41725500Y-90741000D01*
X41725500Y-89592000D01*
X43382500Y-89592000D01*
X43382500Y-90741000D01*
X43382500Y-90741000D01*
G37*
G36*
X84382500Y-90741000D02*
X82725500Y-90741000D01*
X82725500Y-89592000D01*
X84382500Y-89592000D01*
X84382500Y-90741000D01*
X84382500Y-90741000D01*
G37*
G36*
X121678500Y-90724500D02*
X120021500Y-90724500D01*
X120021500Y-89575500D01*
X121678500Y-89575500D01*
X121678500Y-90724500D01*
X121678500Y-90724500D01*
G37*
G36*
X80678500Y-90724500D02*
X79021500Y-90724500D01*
X79021500Y-89575500D01*
X80678500Y-89575500D01*
X80678500Y-90724500D01*
X80678500Y-90724500D01*
G37*
G36*
X89253780Y-89869660D02*
X88196220Y-89869660D01*
X88196220Y-89010220D01*
X89253780Y-89010220D01*
X89253780Y-89869660D01*
X89253780Y-89869660D01*
G37*
G36*
X48253780Y-89869660D02*
X47196220Y-89869660D01*
X47196220Y-89010220D01*
X48253780Y-89010220D01*
X48253780Y-89869660D01*
X48253780Y-89869660D01*
G37*
G36*
X90778780Y-89844660D02*
X89721220Y-89844660D01*
X89721220Y-88985220D01*
X90778780Y-88985220D01*
X90778780Y-89844660D01*
X90778780Y-89844660D01*
G37*
G36*
X49778780Y-89844660D02*
X48721220Y-89844660D01*
X48721220Y-88985220D01*
X49778780Y-88985220D01*
X49778780Y-89844660D01*
X49778780Y-89844660D01*
G37*
G36*
X60080000Y-89830000D02*
X58070000Y-89830000D01*
X58070000Y-83270000D01*
X60080000Y-83270000D01*
X60080000Y-89830000D01*
X60080000Y-89830000D01*
G37*
G36*
X93880000Y-89830000D02*
X91870000Y-89830000D01*
X91870000Y-83270000D01*
X93880000Y-83270000D01*
X93880000Y-89830000D01*
X93880000Y-89830000D01*
G37*
G36*
X52880000Y-89830000D02*
X50870000Y-89830000D01*
X50870000Y-83270000D01*
X52880000Y-83270000D01*
X52880000Y-89830000D01*
X52880000Y-89830000D01*
G37*
G36*
X101080000Y-89830000D02*
X99070000Y-89830000D01*
X99070000Y-83270000D01*
X101080000Y-83270000D01*
X101080000Y-89830000D01*
X101080000Y-89830000D01*
G37*
G36*
X43382500Y-88836000D02*
X41725500Y-88836000D01*
X41725500Y-87687000D01*
X43382500Y-87687000D01*
X43382500Y-88836000D01*
X43382500Y-88836000D01*
G37*
G36*
X84382500Y-88836000D02*
X82725500Y-88836000D01*
X82725500Y-87687000D01*
X84382500Y-87687000D01*
X84382500Y-88836000D01*
X84382500Y-88836000D01*
G37*
G36*
X80678500Y-88819500D02*
X79021500Y-88819500D01*
X79021500Y-87670500D01*
X80678500Y-87670500D01*
X80678500Y-88819500D01*
X80678500Y-88819500D01*
G37*
G36*
X121678500Y-88819500D02*
X120021500Y-88819500D01*
X120021500Y-87670500D01*
X121678500Y-87670500D01*
X121678500Y-88819500D01*
X121678500Y-88819500D01*
G37*
G36*
X87069660Y-88726780D02*
X86210220Y-88726780D01*
X86210220Y-87669220D01*
X87069660Y-87669220D01*
X87069660Y-88726780D01*
X87069660Y-88726780D01*
G37*
G36*
X44489780Y-88726780D02*
X43630340Y-88726780D01*
X43630340Y-87669220D01*
X44489780Y-87669220D01*
X44489780Y-88726780D01*
X44489780Y-88726780D01*
G37*
G36*
X46069660Y-88726780D02*
X45210220Y-88726780D01*
X45210220Y-87669220D01*
X46069660Y-87669220D01*
X46069660Y-88726780D01*
X46069660Y-88726780D01*
G37*
G36*
X85489780Y-88726780D02*
X84630340Y-88726780D01*
X84630340Y-87669220D01*
X85489780Y-87669220D01*
X85489780Y-88726780D01*
X85489780Y-88726780D01*
G37*
G36*
X48253780Y-88289780D02*
X47196220Y-88289780D01*
X47196220Y-87430340D01*
X48253780Y-87430340D01*
X48253780Y-88289780D01*
X48253780Y-88289780D01*
G37*
G36*
X89253780Y-88289780D02*
X88196220Y-88289780D01*
X88196220Y-87430340D01*
X89253780Y-87430340D01*
X89253780Y-88289780D01*
X89253780Y-88289780D01*
G37*
G36*
X90778780Y-88264780D02*
X89721220Y-88264780D01*
X89721220Y-87405340D01*
X90778780Y-87405340D01*
X90778780Y-88264780D01*
X90778780Y-88264780D01*
G37*
G36*
X49778780Y-88264780D02*
X48721220Y-88264780D01*
X48721220Y-87405340D01*
X49778780Y-87405340D01*
X49778780Y-88264780D01*
X49778780Y-88264780D01*
G37*
G36*
X69546000Y-87571000D02*
X68226000Y-87571000D01*
X68226000Y-84761000D01*
X69546000Y-84761000D01*
X69546000Y-87571000D01*
X69546000Y-87571000D01*
G37*
G36*
X112746000Y-87571000D02*
X111426000Y-87571000D01*
X111426000Y-84761000D01*
X112746000Y-84761000D01*
X112746000Y-87571000D01*
X112746000Y-87571000D01*
G37*
G36*
X71746000Y-87571000D02*
X70426000Y-87571000D01*
X70426000Y-84761000D01*
X71746000Y-84761000D01*
X71746000Y-87571000D01*
X71746000Y-87571000D01*
G37*
G36*
X110546000Y-87571000D02*
X109226000Y-87571000D01*
X109226000Y-84761000D01*
X110546000Y-84761000D01*
X110546000Y-87571000D01*
X110546000Y-87571000D01*
G37*
G36*
X108720780Y-87385660D02*
X107663220Y-87385660D01*
X107663220Y-86526220D01*
X108720780Y-86526220D01*
X108720780Y-87385660D01*
X108720780Y-87385660D01*
G37*
G36*
X116594780Y-87385660D02*
X115537220Y-87385660D01*
X115537220Y-86526220D01*
X116594780Y-86526220D01*
X116594780Y-87385660D01*
X116594780Y-87385660D01*
G37*
G36*
X118118780Y-87385660D02*
X117061220Y-87385660D01*
X117061220Y-86526220D01*
X118118780Y-86526220D01*
X118118780Y-87385660D01*
X118118780Y-87385660D01*
G37*
G36*
X77118780Y-87385660D02*
X76061220Y-87385660D01*
X76061220Y-86526220D01*
X77118780Y-86526220D01*
X77118780Y-87385660D01*
X77118780Y-87385660D01*
G37*
G36*
X115070780Y-87385660D02*
X114013220Y-87385660D01*
X114013220Y-86526220D01*
X115070780Y-86526220D01*
X115070780Y-87385660D01*
X115070780Y-87385660D01*
G37*
G36*
X67720780Y-87385660D02*
X66663220Y-87385660D01*
X66663220Y-86526220D01*
X67720780Y-86526220D01*
X67720780Y-87385660D01*
X67720780Y-87385660D01*
G37*
G36*
X75594780Y-87385660D02*
X74537220Y-87385660D01*
X74537220Y-86526220D01*
X75594780Y-86526220D01*
X75594780Y-87385660D01*
X75594780Y-87385660D01*
G37*
G36*
X74070780Y-87385660D02*
X73013220Y-87385660D01*
X73013220Y-86526220D01*
X74070780Y-86526220D01*
X74070780Y-87385660D01*
X74070780Y-87385660D01*
G37*
G36*
X44324840Y-86919570D02*
X41565480Y-86919570D01*
X41565480Y-84660590D01*
X44324840Y-84660590D01*
X44324840Y-86919570D01*
X44324840Y-86919570D01*
G37*
G36*
X85324840Y-86919570D02*
X82565480Y-86919570D01*
X82565480Y-84660590D01*
X85324840Y-84660590D01*
X85324840Y-86919570D01*
X85324840Y-86919570D01*
G37*
G36*
X90823940Y-86919570D02*
X88064580Y-86919570D01*
X88064580Y-84660590D01*
X90823940Y-84660590D01*
X90823940Y-86919570D01*
X90823940Y-86919570D01*
G37*
G36*
X49823940Y-86919570D02*
X47064580Y-86919570D01*
X47064580Y-84660590D01*
X49823940Y-84660590D01*
X49823940Y-86919570D01*
X49823940Y-86919570D01*
G37*
G36*
X120363442Y-83980715D02*
X120570910Y-84023302D01*
X120766161Y-84105378D01*
X120850601Y-84162334D01*
X120867849Y-84171650D01*
X120886583Y-84177422D01*
X120906520Y-84179430D01*
X121879870Y-84179430D01*
X121879870Y-85940570D01*
X120907168Y-85940570D01*
X120887659Y-85942491D01*
X120868900Y-85948182D01*
X120853585Y-85956137D01*
X120739302Y-86028663D01*
X120541844Y-86105252D01*
X120333257Y-86142032D01*
X120121504Y-86137596D01*
X119914644Y-86092115D01*
X119720560Y-86007322D01*
X119650250Y-85958455D01*
X119633134Y-85948899D01*
X119614482Y-85942865D01*
X119593179Y-85940570D01*
X118620130Y-85940570D01*
X118620130Y-84179430D01*
X119593373Y-84179430D01*
X119612882Y-84177509D01*
X119631641Y-84171818D01*
X119648129Y-84163106D01*
X119747215Y-84098266D01*
X119943592Y-84018924D01*
X120151642Y-83979236D01*
X120363442Y-83980715D01*
X120363442Y-83980715D01*
G37*
G36*
X79363442Y-83980715D02*
X79570910Y-84023302D01*
X79766161Y-84105378D01*
X79850601Y-84162334D01*
X79867849Y-84171650D01*
X79886583Y-84177422D01*
X79906520Y-84179430D01*
X80879870Y-84179430D01*
X80879870Y-85940570D01*
X79907168Y-85940570D01*
X79887659Y-85942491D01*
X79868900Y-85948182D01*
X79853585Y-85956137D01*
X79739302Y-86028663D01*
X79541844Y-86105252D01*
X79333257Y-86142032D01*
X79121504Y-86137596D01*
X78914644Y-86092115D01*
X78720560Y-86007322D01*
X78650250Y-85958455D01*
X78633134Y-85948899D01*
X78614482Y-85942865D01*
X78593179Y-85940570D01*
X77620130Y-85940570D01*
X77620130Y-84179430D01*
X78593373Y-84179430D01*
X78612882Y-84177509D01*
X78631641Y-84171818D01*
X78648129Y-84163106D01*
X78747215Y-84098266D01*
X78943592Y-84018924D01*
X79151642Y-83979236D01*
X79363442Y-83980715D01*
X79363442Y-83980715D01*
G37*
G36*
X116594780Y-85805780D02*
X115537220Y-85805780D01*
X115537220Y-84946340D01*
X116594780Y-84946340D01*
X116594780Y-85805780D01*
X116594780Y-85805780D01*
G37*
G36*
X118118780Y-85805780D02*
X117061220Y-85805780D01*
X117061220Y-84946340D01*
X118118780Y-84946340D01*
X118118780Y-85805780D01*
X118118780Y-85805780D01*
G37*
G36*
X115070780Y-85805780D02*
X114013220Y-85805780D01*
X114013220Y-84946340D01*
X115070780Y-84946340D01*
X115070780Y-85805780D01*
X115070780Y-85805780D01*
G37*
G36*
X108720780Y-85805780D02*
X107663220Y-85805780D01*
X107663220Y-84946340D01*
X108720780Y-84946340D01*
X108720780Y-85805780D01*
X108720780Y-85805780D01*
G37*
G36*
X75594780Y-85805780D02*
X74537220Y-85805780D01*
X74537220Y-84946340D01*
X75594780Y-84946340D01*
X75594780Y-85805780D01*
X75594780Y-85805780D01*
G37*
G36*
X67720780Y-85805780D02*
X66663220Y-85805780D01*
X66663220Y-84946340D01*
X67720780Y-84946340D01*
X67720780Y-85805780D01*
X67720780Y-85805780D01*
G37*
G36*
X74070780Y-85805780D02*
X73013220Y-85805780D01*
X73013220Y-84946340D01*
X74070780Y-84946340D01*
X74070780Y-85805780D01*
X74070780Y-85805780D01*
G37*
G36*
X77118780Y-85805780D02*
X76061220Y-85805780D01*
X76061220Y-84946340D01*
X77118780Y-84946340D01*
X77118780Y-85805780D01*
X77118780Y-85805780D01*
G37*
G36*
X116467780Y-84578780D02*
X115608340Y-84578780D01*
X115608340Y-83521220D01*
X116467780Y-83521220D01*
X116467780Y-84578780D01*
X116467780Y-84578780D01*
G37*
G36*
X77047660Y-84578780D02*
X76188220Y-84578780D01*
X76188220Y-83521220D01*
X77047660Y-83521220D01*
X77047660Y-84578780D01*
X77047660Y-84578780D01*
G37*
G36*
X75467780Y-84578780D02*
X74608340Y-84578780D01*
X74608340Y-83521220D01*
X75467780Y-83521220D01*
X75467780Y-84578780D01*
X75467780Y-84578780D01*
G37*
G36*
X118047660Y-84578780D02*
X117188220Y-84578780D01*
X117188220Y-83521220D01*
X118047660Y-83521220D01*
X118047660Y-84578780D01*
X118047660Y-84578780D01*
G37*
G36*
X108769660Y-84253780D02*
X107910220Y-84253780D01*
X107910220Y-83196220D01*
X108769660Y-83196220D01*
X108769660Y-84253780D01*
X108769660Y-84253780D01*
G37*
G36*
X107189780Y-84253780D02*
X106330340Y-84253780D01*
X106330340Y-83196220D01*
X107189780Y-83196220D01*
X107189780Y-84253780D01*
X107189780Y-84253780D01*
G37*
G36*
X66189780Y-84253780D02*
X65330340Y-84253780D01*
X65330340Y-83196220D01*
X66189780Y-83196220D01*
X66189780Y-84253780D01*
X66189780Y-84253780D01*
G37*
G36*
X67769660Y-84253780D02*
X66910220Y-84253780D01*
X66910220Y-83196220D01*
X67769660Y-83196220D01*
X67769660Y-84253780D01*
X67769660Y-84253780D01*
G37*
G36*
X87005776Y-82960443D02*
X87117123Y-82983299D01*
X87221893Y-83027340D01*
X87316129Y-83090903D01*
X87396221Y-83171555D01*
X87459117Y-83266223D01*
X87502432Y-83371311D01*
X87524372Y-83482120D01*
X87524372Y-83482136D01*
X87524505Y-83482809D01*
X87522692Y-83612632D01*
X87522540Y-83613300D01*
X87522540Y-83613319D01*
X87497514Y-83723473D01*
X87451285Y-83827303D01*
X87385764Y-83920186D01*
X87303456Y-83998566D01*
X87207484Y-84059473D01*
X87101517Y-84100575D01*
X86989580Y-84120312D01*
X86875942Y-84117931D01*
X86764932Y-84093525D01*
X86660779Y-84048022D01*
X86567442Y-83983150D01*
X86488487Y-83901390D01*
X86426914Y-83805848D01*
X86385072Y-83700167D01*
X86364554Y-83588373D01*
X86366141Y-83474724D01*
X86389773Y-83363544D01*
X86434550Y-83259070D01*
X86498764Y-83165290D01*
X86579973Y-83085763D01*
X86675084Y-83023524D01*
X86780465Y-82980947D01*
X86892116Y-82959648D01*
X87005776Y-82960443D01*
X87005776Y-82960443D01*
G37*
G36*
X46005776Y-82960443D02*
X46117123Y-82983299D01*
X46221893Y-83027340D01*
X46316129Y-83090903D01*
X46396221Y-83171555D01*
X46459117Y-83266223D01*
X46502432Y-83371311D01*
X46524372Y-83482120D01*
X46524372Y-83482136D01*
X46524505Y-83482809D01*
X46522692Y-83612632D01*
X46522540Y-83613300D01*
X46522540Y-83613319D01*
X46497514Y-83723473D01*
X46451285Y-83827303D01*
X46385764Y-83920186D01*
X46303456Y-83998566D01*
X46207484Y-84059473D01*
X46101517Y-84100575D01*
X45989580Y-84120312D01*
X45875942Y-84117931D01*
X45764932Y-84093525D01*
X45660779Y-84048022D01*
X45567442Y-83983150D01*
X45488487Y-83901390D01*
X45426914Y-83805848D01*
X45385072Y-83700167D01*
X45364554Y-83588373D01*
X45366141Y-83474724D01*
X45389773Y-83363544D01*
X45434550Y-83259070D01*
X45498764Y-83165290D01*
X45579973Y-83085763D01*
X45675084Y-83023524D01*
X45780465Y-82980947D01*
X45892116Y-82959648D01*
X46005776Y-82960443D01*
X46005776Y-82960443D01*
G37*
G36*
X120363442Y-81440715D02*
X120570910Y-81483302D01*
X120766161Y-81565378D01*
X120850601Y-81622334D01*
X120867849Y-81631650D01*
X120886583Y-81637422D01*
X120906520Y-81639430D01*
X121879870Y-81639430D01*
X121879870Y-83400570D01*
X120907168Y-83400570D01*
X120887659Y-83402491D01*
X120868900Y-83408182D01*
X120853585Y-83416137D01*
X120739302Y-83488663D01*
X120541844Y-83565252D01*
X120333257Y-83602032D01*
X120121504Y-83597596D01*
X119914644Y-83552115D01*
X119720560Y-83467322D01*
X119650250Y-83418455D01*
X119633134Y-83408899D01*
X119614482Y-83402865D01*
X119593179Y-83400570D01*
X118620130Y-83400570D01*
X118620130Y-81639430D01*
X119593373Y-81639430D01*
X119612882Y-81637509D01*
X119631641Y-81631818D01*
X119648129Y-81623106D01*
X119747215Y-81558266D01*
X119943592Y-81478924D01*
X120151642Y-81439236D01*
X120363442Y-81440715D01*
X120363442Y-81440715D01*
G37*
G36*
X79363442Y-81440715D02*
X79570910Y-81483302D01*
X79766161Y-81565378D01*
X79850601Y-81622334D01*
X79867849Y-81631650D01*
X79886583Y-81637422D01*
X79906520Y-81639430D01*
X80879870Y-81639430D01*
X80879870Y-83400570D01*
X79907168Y-83400570D01*
X79887659Y-83402491D01*
X79868900Y-83408182D01*
X79853585Y-83416137D01*
X79739302Y-83488663D01*
X79541844Y-83565252D01*
X79333257Y-83602032D01*
X79121504Y-83597596D01*
X78914644Y-83552115D01*
X78720560Y-83467322D01*
X78650250Y-83418455D01*
X78633134Y-83408899D01*
X78614482Y-83402865D01*
X78593179Y-83400570D01*
X77620130Y-83400570D01*
X77620130Y-81639430D01*
X78593373Y-81639430D01*
X78612882Y-81637509D01*
X78631641Y-81631818D01*
X78648129Y-81623106D01*
X78747215Y-81558266D01*
X78943592Y-81478924D01*
X79151642Y-81439236D01*
X79363442Y-81440715D01*
X79363442Y-81440715D01*
G37*
G36*
X90823940Y-83320390D02*
X88262700Y-83320390D01*
X88262700Y-79359610D01*
X90823940Y-79359610D01*
X90823940Y-83320390D01*
X90823940Y-83320390D01*
G37*
G36*
X49823940Y-83320390D02*
X47262700Y-83320390D01*
X47262700Y-79359610D01*
X49823940Y-79359610D01*
X49823940Y-83320390D01*
X49823940Y-83320390D01*
G37*
G36*
X77255000Y-83010000D02*
X74445000Y-83010000D01*
X74445000Y-81690000D01*
X77255000Y-81690000D01*
X77255000Y-83010000D01*
X77255000Y-83010000D01*
G37*
G36*
X118255000Y-83010000D02*
X115445000Y-83010000D01*
X115445000Y-81690000D01*
X118255000Y-81690000D01*
X118255000Y-83010000D01*
X118255000Y-83010000D01*
G37*
G36*
X71238000Y-82630000D02*
X69918000Y-82630000D01*
X69918000Y-79820000D01*
X71238000Y-79820000D01*
X71238000Y-82630000D01*
X71238000Y-82630000D01*
G37*
G36*
X112238000Y-82630000D02*
X110918000Y-82630000D01*
X110918000Y-79820000D01*
X112238000Y-79820000D01*
X112238000Y-82630000D01*
X112238000Y-82630000D01*
G37*
G36*
X69038000Y-82630000D02*
X67718000Y-82630000D01*
X67718000Y-79820000D01*
X69038000Y-79820000D01*
X69038000Y-82630000D01*
X69038000Y-82630000D01*
G37*
G36*
X110038000Y-82630000D02*
X108718000Y-82630000D01*
X108718000Y-79820000D01*
X110038000Y-79820000D01*
X110038000Y-82630000D01*
X110038000Y-82630000D01*
G37*
G36*
X56129720Y-82603780D02*
X55270280Y-82603780D01*
X55270280Y-81546220D01*
X56129720Y-81546220D01*
X56129720Y-82603780D01*
X56129720Y-82603780D01*
G37*
G36*
X98717212Y-81551732D02*
X98711521Y-81570491D01*
X98709600Y-81590000D01*
X98709600Y-82603780D01*
X97850160Y-82603780D01*
X97850160Y-81546220D01*
X98695000Y-81546220D01*
X98714509Y-81544299D01*
X98722477Y-81541882D01*
X98717212Y-81551732D01*
X98717212Y-81551732D01*
G37*
G36*
X57717212Y-81551732D02*
X57711521Y-81570491D01*
X57709600Y-81590000D01*
X57709600Y-82603780D01*
X56850160Y-82603780D01*
X56850160Y-81546220D01*
X57695000Y-81546220D01*
X57714509Y-81544299D01*
X57722477Y-81541882D01*
X57717212Y-81551732D01*
X57717212Y-81551732D01*
G37*
G36*
X97129720Y-82603780D02*
X96270280Y-82603780D01*
X96270280Y-81546220D01*
X97129720Y-81546220D01*
X97129720Y-82603780D01*
X97129720Y-82603780D01*
G37*
G36*
X100755000Y-81490000D02*
X98809600Y-81490000D01*
X98790091Y-81491921D01*
X98782123Y-81494338D01*
X98787388Y-81484488D01*
X98793079Y-81465729D01*
X98795000Y-81446220D01*
X98795000Y-80580000D01*
X100755000Y-80580000D01*
X100755000Y-81490000D01*
X100755000Y-81490000D01*
G37*
G36*
X59755000Y-81490000D02*
X57809600Y-81490000D01*
X57790091Y-81491921D01*
X57782123Y-81494338D01*
X57787388Y-81484488D01*
X57793079Y-81465729D01*
X57795000Y-81446220D01*
X57795000Y-80580000D01*
X59755000Y-80580000D01*
X59755000Y-81490000D01*
X59755000Y-81490000D01*
G37*
G36*
X108055000Y-81490000D02*
X106095000Y-81490000D01*
X106095000Y-80580000D01*
X108055000Y-80580000D01*
X108055000Y-81490000D01*
X108055000Y-81490000D01*
G37*
G36*
X67055000Y-81490000D02*
X65095000Y-81490000D01*
X65095000Y-80580000D01*
X67055000Y-80580000D01*
X67055000Y-81490000D01*
X67055000Y-81490000D01*
G37*
G36*
X52255780Y-81266660D02*
X51198220Y-81266660D01*
X51198220Y-80407220D01*
X52255780Y-80407220D01*
X52255780Y-81266660D01*
X52255780Y-81266660D01*
G37*
G36*
X93255780Y-81266660D02*
X92198220Y-81266660D01*
X92198220Y-80407220D01*
X93255780Y-80407220D01*
X93255780Y-81266660D01*
X93255780Y-81266660D01*
G37*
G36*
X53528780Y-81259600D02*
X52471220Y-81259600D01*
X52471220Y-80400160D01*
X53528780Y-80400160D01*
X53528780Y-81259600D01*
X53528780Y-81259600D01*
G37*
G36*
X94528780Y-81259600D02*
X93471220Y-81259600D01*
X93471220Y-80400160D01*
X94528780Y-80400160D01*
X94528780Y-81259600D01*
X94528780Y-81259600D01*
G37*
G36*
X54803780Y-81259600D02*
X53746220Y-81259600D01*
X53746220Y-80400160D01*
X54803780Y-80400160D01*
X54803780Y-81259600D01*
X54803780Y-81259600D01*
G37*
G36*
X95803780Y-81259600D02*
X94746220Y-81259600D01*
X94746220Y-80400160D01*
X95803780Y-80400160D01*
X95803780Y-81259600D01*
X95803780Y-81259600D01*
G37*
G36*
X97453780Y-81244660D02*
X96396220Y-81244660D01*
X96396220Y-80385220D01*
X97453780Y-80385220D01*
X97453780Y-81244660D01*
X97453780Y-81244660D01*
G37*
G36*
X56453780Y-81244660D02*
X55396220Y-81244660D01*
X55396220Y-80385220D01*
X56453780Y-80385220D01*
X56453780Y-81244660D01*
X56453780Y-81244660D01*
G37*
G36*
X120363442Y-78900715D02*
X120570910Y-78943302D01*
X120766161Y-79025378D01*
X120850601Y-79082334D01*
X120867849Y-79091650D01*
X120886583Y-79097422D01*
X120906520Y-79099430D01*
X121879870Y-79099430D01*
X121879870Y-80860570D01*
X120907168Y-80860570D01*
X120887659Y-80862491D01*
X120868900Y-80868182D01*
X120853585Y-80876137D01*
X120739302Y-80948663D01*
X120541844Y-81025252D01*
X120333257Y-81062032D01*
X120121504Y-81057596D01*
X119914644Y-81012115D01*
X119720560Y-80927322D01*
X119650250Y-80878455D01*
X119633134Y-80868899D01*
X119614482Y-80862865D01*
X119593179Y-80860570D01*
X118620130Y-80860570D01*
X118620130Y-79099430D01*
X119593373Y-79099430D01*
X119612882Y-79097509D01*
X119631641Y-79091818D01*
X119648129Y-79083106D01*
X119747215Y-79018266D01*
X119943592Y-78938924D01*
X120151642Y-78899236D01*
X120363442Y-78900715D01*
X120363442Y-78900715D01*
G37*
G36*
X79363442Y-78900715D02*
X79570910Y-78943302D01*
X79766161Y-79025378D01*
X79850601Y-79082334D01*
X79867849Y-79091650D01*
X79886583Y-79097422D01*
X79906520Y-79099430D01*
X80879870Y-79099430D01*
X80879870Y-80860570D01*
X79907168Y-80860570D01*
X79887659Y-80862491D01*
X79868900Y-80868182D01*
X79853585Y-80876137D01*
X79739302Y-80948663D01*
X79541844Y-81025252D01*
X79333257Y-81062032D01*
X79121504Y-81057596D01*
X78914644Y-81012115D01*
X78720560Y-80927322D01*
X78650250Y-80878455D01*
X78633134Y-80868899D01*
X78614482Y-80862865D01*
X78593179Y-80860570D01*
X77620130Y-80860570D01*
X77620130Y-79099430D01*
X78593373Y-79099430D01*
X78612882Y-79097509D01*
X78631641Y-79091818D01*
X78648129Y-79083106D01*
X78747215Y-79018266D01*
X78943592Y-78938924D01*
X79151642Y-78899236D01*
X79363442Y-78900715D01*
X79363442Y-78900715D01*
G37*
G36*
X118255000Y-80810000D02*
X115445000Y-80810000D01*
X115445000Y-79490000D01*
X118255000Y-79490000D01*
X118255000Y-80810000D01*
X118255000Y-80810000D01*
G37*
G36*
X77255000Y-80810000D02*
X74445000Y-80810000D01*
X74445000Y-79490000D01*
X77255000Y-79490000D01*
X77255000Y-80810000D01*
X77255000Y-80810000D01*
G37*
G36*
X114816780Y-80527660D02*
X113759220Y-80527660D01*
X113759220Y-79668220D01*
X114816780Y-79668220D01*
X114816780Y-80527660D01*
X114816780Y-80527660D01*
G37*
G36*
X73816780Y-80527660D02*
X72759220Y-80527660D01*
X72759220Y-79668220D01*
X73816780Y-79668220D01*
X73816780Y-80527660D01*
X73816780Y-80527660D01*
G37*
G36*
X108055000Y-80220000D02*
X106095000Y-80220000D01*
X106095000Y-79310000D01*
X108055000Y-79310000D01*
X108055000Y-80220000D01*
X108055000Y-80220000D01*
G37*
G36*
X59755000Y-80220000D02*
X57795000Y-80220000D01*
X57795000Y-79310000D01*
X59755000Y-79310000D01*
X59755000Y-80220000D01*
X59755000Y-80220000D01*
G37*
G36*
X67055000Y-80220000D02*
X65095000Y-80220000D01*
X65095000Y-79310000D01*
X67055000Y-79310000D01*
X67055000Y-80220000D01*
X67055000Y-80220000D01*
G37*
G36*
X100755000Y-80220000D02*
X98795000Y-80220000D01*
X98795000Y-79310000D01*
X100755000Y-79310000D01*
X100755000Y-80220000D01*
X100755000Y-80220000D01*
G37*
G36*
X87005776Y-78561163D02*
X87117123Y-78584019D01*
X87221893Y-78628060D01*
X87316129Y-78691623D01*
X87396221Y-78772275D01*
X87459117Y-78866943D01*
X87502432Y-78972031D01*
X87524372Y-79082840D01*
X87524372Y-79082856D01*
X87524505Y-79083529D01*
X87522692Y-79213352D01*
X87522540Y-79214020D01*
X87522540Y-79214039D01*
X87497514Y-79324193D01*
X87451285Y-79428023D01*
X87385764Y-79520906D01*
X87303456Y-79599286D01*
X87207484Y-79660193D01*
X87101517Y-79701295D01*
X86989580Y-79721032D01*
X86875942Y-79718651D01*
X86764932Y-79694245D01*
X86660779Y-79648742D01*
X86567442Y-79583870D01*
X86488487Y-79502110D01*
X86426914Y-79406568D01*
X86385072Y-79300887D01*
X86364554Y-79189093D01*
X86366141Y-79075444D01*
X86389773Y-78964264D01*
X86434550Y-78859790D01*
X86498764Y-78766010D01*
X86579973Y-78686483D01*
X86675084Y-78624244D01*
X86780465Y-78581667D01*
X86892116Y-78560368D01*
X87005776Y-78561163D01*
X87005776Y-78561163D01*
G37*
G36*
X46005776Y-78561163D02*
X46117123Y-78584019D01*
X46221893Y-78628060D01*
X46316129Y-78691623D01*
X46396221Y-78772275D01*
X46459117Y-78866943D01*
X46502432Y-78972031D01*
X46524372Y-79082840D01*
X46524372Y-79082856D01*
X46524505Y-79083529D01*
X46522692Y-79213352D01*
X46522540Y-79214020D01*
X46522540Y-79214039D01*
X46497514Y-79324193D01*
X46451285Y-79428023D01*
X46385764Y-79520906D01*
X46303456Y-79599286D01*
X46207484Y-79660193D01*
X46101517Y-79701295D01*
X45989580Y-79721032D01*
X45875942Y-79718651D01*
X45764932Y-79694245D01*
X45660779Y-79648742D01*
X45567442Y-79583870D01*
X45488487Y-79502110D01*
X45426914Y-79406568D01*
X45385072Y-79300887D01*
X45364554Y-79189093D01*
X45366141Y-79075444D01*
X45389773Y-78964264D01*
X45434550Y-78859790D01*
X45498764Y-78766010D01*
X45579973Y-78686483D01*
X45675084Y-78624244D01*
X45780465Y-78581667D01*
X45892116Y-78560368D01*
X46005776Y-78561163D01*
X46005776Y-78561163D01*
G37*
G36*
X52255780Y-79686780D02*
X51198220Y-79686780D01*
X51198220Y-78827340D01*
X52255780Y-78827340D01*
X52255780Y-79686780D01*
X52255780Y-79686780D01*
G37*
G36*
X93255780Y-79686780D02*
X92198220Y-79686780D01*
X92198220Y-78827340D01*
X93255780Y-78827340D01*
X93255780Y-79686780D01*
X93255780Y-79686780D01*
G37*
G36*
X95803780Y-79679720D02*
X94746220Y-79679720D01*
X94746220Y-78820280D01*
X95803780Y-78820280D01*
X95803780Y-79679720D01*
X95803780Y-79679720D01*
G37*
G36*
X94528780Y-79679720D02*
X93471220Y-79679720D01*
X93471220Y-78820280D01*
X94528780Y-78820280D01*
X94528780Y-79679720D01*
X94528780Y-79679720D01*
G37*
G36*
X54803780Y-79679720D02*
X53746220Y-79679720D01*
X53746220Y-78820280D01*
X54803780Y-78820280D01*
X54803780Y-79679720D01*
X54803780Y-79679720D01*
G37*
G36*
X53528780Y-79679720D02*
X52471220Y-79679720D01*
X52471220Y-78820280D01*
X53528780Y-78820280D01*
X53528780Y-79679720D01*
X53528780Y-79679720D01*
G37*
G36*
X56453780Y-79664780D02*
X55396220Y-79664780D01*
X55396220Y-78805340D01*
X56453780Y-78805340D01*
X56453780Y-79664780D01*
X56453780Y-79664780D01*
G37*
G36*
X97453780Y-79664780D02*
X96396220Y-79664780D01*
X96396220Y-78805340D01*
X97453780Y-78805340D01*
X97453780Y-79664780D01*
X97453780Y-79664780D01*
G37*
G36*
X118269660Y-79078780D02*
X117410220Y-79078780D01*
X117410220Y-78021220D01*
X118269660Y-78021220D01*
X118269660Y-79078780D01*
X118269660Y-79078780D01*
G37*
G36*
X77269660Y-79078780D02*
X76410220Y-79078780D01*
X76410220Y-78021220D01*
X77269660Y-78021220D01*
X77269660Y-79078780D01*
X77269660Y-79078780D01*
G37*
G36*
X116689780Y-79078780D02*
X115830340Y-79078780D01*
X115830340Y-78021220D01*
X116689780Y-78021220D01*
X116689780Y-79078780D01*
X116689780Y-79078780D01*
G37*
G36*
X75689780Y-79078780D02*
X74830340Y-79078780D01*
X74830340Y-78021220D01*
X75689780Y-78021220D01*
X75689780Y-79078780D01*
X75689780Y-79078780D01*
G37*
G36*
X70768780Y-79074780D02*
X69909340Y-79074780D01*
X69909340Y-78017220D01*
X70768780Y-78017220D01*
X70768780Y-79074780D01*
X70768780Y-79074780D01*
G37*
G36*
X72348660Y-79074780D02*
X71489220Y-79074780D01*
X71489220Y-78017220D01*
X72348660Y-78017220D01*
X72348660Y-79074780D01*
X72348660Y-79074780D01*
G37*
G36*
X111768780Y-79074780D02*
X110909340Y-79074780D01*
X110909340Y-78017220D01*
X111768780Y-78017220D01*
X111768780Y-79074780D01*
X111768780Y-79074780D01*
G37*
G36*
X113348660Y-79074780D02*
X112489220Y-79074780D01*
X112489220Y-78017220D01*
X113348660Y-78017220D01*
X113348660Y-79074780D01*
X113348660Y-79074780D01*
G37*
G36*
X59755000Y-78950000D02*
X57795000Y-78950000D01*
X57795000Y-78040000D01*
X59755000Y-78040000D01*
X59755000Y-78950000D01*
X59755000Y-78950000D01*
G37*
G36*
X68089780Y-78803780D02*
X67155000Y-78803780D01*
X67135491Y-78805701D01*
X67116732Y-78811392D01*
X67099443Y-78820633D01*
X67084289Y-78833069D01*
X67071853Y-78848223D01*
X67062612Y-78865512D01*
X67056921Y-78884271D01*
X67055000Y-78903780D01*
X67055000Y-78950000D01*
X65095000Y-78950000D01*
X65095000Y-78040000D01*
X67130340Y-78040000D01*
X67149849Y-78038079D01*
X67168608Y-78032388D01*
X67185897Y-78023147D01*
X67201051Y-78010711D01*
X67213487Y-77995557D01*
X67222728Y-77978268D01*
X67228419Y-77959509D01*
X67230340Y-77940000D01*
X67230340Y-77780000D01*
X67228419Y-77760491D01*
X67224090Y-77746220D01*
X68089780Y-77746220D01*
X68089780Y-78803780D01*
X68089780Y-78803780D01*
G37*
G36*
X109089780Y-78803780D02*
X108155000Y-78803780D01*
X108135491Y-78805701D01*
X108116732Y-78811392D01*
X108099443Y-78820633D01*
X108084289Y-78833069D01*
X108071853Y-78848223D01*
X108062612Y-78865512D01*
X108056921Y-78884271D01*
X108055000Y-78903780D01*
X108055000Y-78950000D01*
X106095000Y-78950000D01*
X106095000Y-78040000D01*
X108130340Y-78040000D01*
X108149849Y-78038079D01*
X108168608Y-78032388D01*
X108185897Y-78023147D01*
X108201051Y-78010711D01*
X108213487Y-77995557D01*
X108222728Y-77978268D01*
X108228419Y-77959509D01*
X108230340Y-77940000D01*
X108230340Y-77780000D01*
X108228419Y-77760491D01*
X108224090Y-77746220D01*
X109089780Y-77746220D01*
X109089780Y-78803780D01*
X109089780Y-78803780D01*
G37*
G36*
X100755000Y-78950000D02*
X98795000Y-78950000D01*
X98795000Y-78040000D01*
X100755000Y-78040000D01*
X100755000Y-78950000D01*
X100755000Y-78950000D01*
G37*
G36*
X114816780Y-78947780D02*
X113759220Y-78947780D01*
X113759220Y-78088340D01*
X114816780Y-78088340D01*
X114816780Y-78947780D01*
X114816780Y-78947780D01*
G37*
G36*
X73816780Y-78947780D02*
X72759220Y-78947780D01*
X72759220Y-78088340D01*
X73816780Y-78088340D01*
X73816780Y-78947780D01*
X73816780Y-78947780D01*
G37*
G36*
X110669660Y-78803780D02*
X109810220Y-78803780D01*
X109810220Y-77746220D01*
X110669660Y-77746220D01*
X110669660Y-78803780D01*
X110669660Y-78803780D01*
G37*
G36*
X69669660Y-78803780D02*
X68810220Y-78803780D01*
X68810220Y-77746220D01*
X69669660Y-77746220D01*
X69669660Y-78803780D01*
X69669660Y-78803780D01*
G37*
G36*
X80330000Y-76459430D02*
X80331921Y-76478939D01*
X80337612Y-76497698D01*
X80346853Y-76514987D01*
X80359289Y-76530141D01*
X80374443Y-76542577D01*
X80391732Y-76551818D01*
X80410491Y-76557509D01*
X80430000Y-76559430D01*
X80879870Y-76559430D01*
X80879870Y-78320570D01*
X80430000Y-78320570D01*
X80410491Y-78322491D01*
X80391732Y-78328182D01*
X80374443Y-78337423D01*
X80359289Y-78349859D01*
X80346853Y-78365013D01*
X80337612Y-78382302D01*
X80331921Y-78401061D01*
X80330000Y-78420570D01*
X80330000Y-78520000D01*
X78170000Y-78520000D01*
X78170000Y-78420570D01*
X78168079Y-78401061D01*
X78162388Y-78382302D01*
X78153147Y-78365013D01*
X78140711Y-78349859D01*
X78125557Y-78337423D01*
X78108268Y-78328182D01*
X78089509Y-78322491D01*
X78070000Y-78320570D01*
X77620130Y-78320570D01*
X77620130Y-76559430D01*
X78070000Y-76559430D01*
X78089509Y-76557509D01*
X78108268Y-76551818D01*
X78125557Y-76542577D01*
X78140711Y-76530141D01*
X78153147Y-76514987D01*
X78162388Y-76497698D01*
X78168079Y-76478939D01*
X78170000Y-76459430D01*
X78170000Y-76360000D01*
X80330000Y-76360000D01*
X80330000Y-76459430D01*
X80330000Y-76459430D01*
G37*
G36*
X121330000Y-76459430D02*
X121331921Y-76478939D01*
X121337612Y-76497698D01*
X121346853Y-76514987D01*
X121359289Y-76530141D01*
X121374443Y-76542577D01*
X121391732Y-76551818D01*
X121410491Y-76557509D01*
X121430000Y-76559430D01*
X121879870Y-76559430D01*
X121879870Y-78320570D01*
X121430000Y-78320570D01*
X121410491Y-78322491D01*
X121391732Y-78328182D01*
X121374443Y-78337423D01*
X121359289Y-78349859D01*
X121346853Y-78365013D01*
X121337612Y-78382302D01*
X121331921Y-78401061D01*
X121330000Y-78420570D01*
X121330000Y-78520000D01*
X119170000Y-78520000D01*
X119170000Y-78420570D01*
X119168079Y-78401061D01*
X119162388Y-78382302D01*
X119153147Y-78365013D01*
X119140711Y-78349859D01*
X119125557Y-78337423D01*
X119108268Y-78328182D01*
X119089509Y-78322491D01*
X119070000Y-78320570D01*
X118620130Y-78320570D01*
X118620130Y-76559430D01*
X119070000Y-76559430D01*
X119089509Y-76557509D01*
X119108268Y-76551818D01*
X119125557Y-76542577D01*
X119140711Y-76530141D01*
X119153147Y-76514987D01*
X119162388Y-76497698D01*
X119168079Y-76478939D01*
X119170000Y-76459430D01*
X119170000Y-76360000D01*
X121330000Y-76360000D01*
X121330000Y-76459430D01*
X121330000Y-76459430D01*
G37*
G36*
X94855000Y-78385000D02*
X92045000Y-78385000D01*
X92045000Y-77065000D01*
X94855000Y-77065000D01*
X94855000Y-78385000D01*
X94855000Y-78385000D01*
G37*
G36*
X53855000Y-78385000D02*
X51045000Y-78385000D01*
X51045000Y-77065000D01*
X53855000Y-77065000D01*
X53855000Y-78385000D01*
X53855000Y-78385000D01*
G37*
G36*
X44324840Y-78019410D02*
X41565480Y-78019410D01*
X41565480Y-75760430D01*
X44324840Y-75760430D01*
X44324840Y-78019410D01*
X44324840Y-78019410D01*
G37*
G36*
X90823940Y-78019410D02*
X88064580Y-78019410D01*
X88064580Y-75760430D01*
X90823940Y-75760430D01*
X90823940Y-78019410D01*
X90823940Y-78019410D01*
G37*
G36*
X85324840Y-78019410D02*
X82565480Y-78019410D01*
X82565480Y-75760430D01*
X85324840Y-75760430D01*
X85324840Y-78019410D01*
X85324840Y-78019410D01*
G37*
G36*
X49823940Y-78019410D02*
X47064580Y-78019410D01*
X47064580Y-75760430D01*
X49823940Y-75760430D01*
X49823940Y-78019410D01*
X49823940Y-78019410D01*
G37*
G36*
X108055000Y-77646220D02*
X108056921Y-77665729D01*
X108061250Y-77680000D01*
X106095000Y-77680000D01*
X106095000Y-76770000D01*
X108055000Y-76770000D01*
X108055000Y-77646220D01*
X108055000Y-77646220D01*
G37*
G36*
X67055000Y-77646220D02*
X67056921Y-77665729D01*
X67061250Y-77680000D01*
X65095000Y-77680000D01*
X65095000Y-76770000D01*
X67055000Y-76770000D01*
X67055000Y-77646220D01*
X67055000Y-77646220D01*
G37*
G36*
X59755000Y-77680000D02*
X57795000Y-77680000D01*
X57795000Y-76770000D01*
X59755000Y-76770000D01*
X59755000Y-77680000D01*
X59755000Y-77680000D01*
G37*
G36*
X100755000Y-77680000D02*
X98795000Y-77680000D01*
X98795000Y-76770000D01*
X100755000Y-76770000D01*
X100755000Y-77680000D01*
X100755000Y-77680000D01*
G37*
G36*
X55928780Y-77659600D02*
X54871220Y-77659600D01*
X54871220Y-76800160D01*
X55928780Y-76800160D01*
X55928780Y-77659600D01*
X55928780Y-77659600D01*
G37*
G36*
X96928780Y-77659600D02*
X95871220Y-77659600D01*
X95871220Y-76800160D01*
X96928780Y-76800160D01*
X96928780Y-77659600D01*
X96928780Y-77659600D01*
G37*
G36*
X73905000Y-77585000D02*
X71095000Y-77585000D01*
X71095000Y-76265000D01*
X73905000Y-76265000D01*
X73905000Y-77585000D01*
X73905000Y-77585000D01*
G37*
G36*
X114905000Y-77585000D02*
X112095000Y-77585000D01*
X112095000Y-76265000D01*
X114905000Y-76265000D01*
X114905000Y-77585000D01*
X114905000Y-77585000D01*
G37*
G36*
X77081000Y-77274000D02*
X74321000Y-77274000D01*
X74321000Y-76114000D01*
X77081000Y-76114000D01*
X77081000Y-77274000D01*
X77081000Y-77274000D01*
G37*
G36*
X118081000Y-77274000D02*
X115321000Y-77274000D01*
X115321000Y-76114000D01*
X118081000Y-76114000D01*
X118081000Y-77274000D01*
X118081000Y-77274000D01*
G37*
G36*
X68128780Y-76075720D02*
X68130701Y-76095229D01*
X68136392Y-76113988D01*
X68145633Y-76131277D01*
X68158069Y-76146431D01*
X68173223Y-76158867D01*
X68190512Y-76168108D01*
X68209271Y-76173799D01*
X68228780Y-76175720D01*
X68246220Y-76175720D01*
X68265729Y-76173799D01*
X68284488Y-76168108D01*
X68301777Y-76158867D01*
X68316931Y-76146431D01*
X68329367Y-76131277D01*
X68338608Y-76113988D01*
X68344299Y-76095229D01*
X68346220Y-76075720D01*
X68346220Y-75160220D01*
X69403780Y-75160220D01*
X69403780Y-76019660D01*
X68963780Y-76019660D01*
X68944271Y-76021581D01*
X68925512Y-76027272D01*
X68908223Y-76036513D01*
X68893069Y-76048949D01*
X68880633Y-76064103D01*
X68871392Y-76081392D01*
X68865701Y-76100151D01*
X68863780Y-76119660D01*
X68863780Y-77233280D01*
X68004340Y-77233280D01*
X68004340Y-76119660D01*
X68002419Y-76100151D01*
X67996728Y-76081392D01*
X67987487Y-76064103D01*
X67975051Y-76048949D01*
X67959897Y-76036513D01*
X67942608Y-76027272D01*
X67923849Y-76021581D01*
X67904340Y-76019660D01*
X67071220Y-76019660D01*
X67071220Y-75160220D01*
X68128780Y-75160220D01*
X68128780Y-76075720D01*
X68128780Y-76075720D01*
G37*
G36*
X111678780Y-76019660D02*
X111543660Y-76019660D01*
X111524151Y-76021581D01*
X111505392Y-76027272D01*
X111488103Y-76036513D01*
X111472949Y-76048949D01*
X111460513Y-76064103D01*
X111451272Y-76081392D01*
X111445581Y-76100151D01*
X111443660Y-76119660D01*
X111443660Y-77233280D01*
X110584220Y-77233280D01*
X110584220Y-76152759D01*
X110591931Y-76146431D01*
X110604367Y-76131277D01*
X110613608Y-76113988D01*
X110619299Y-76095229D01*
X110621220Y-76075720D01*
X110621220Y-75160220D01*
X111678780Y-75160220D01*
X111678780Y-76019660D01*
X111678780Y-76019660D01*
G37*
G36*
X109128780Y-76075720D02*
X109130701Y-76095229D01*
X109136392Y-76113988D01*
X109145633Y-76131277D01*
X109158069Y-76146431D01*
X109173223Y-76158867D01*
X109190512Y-76168108D01*
X109209271Y-76173799D01*
X109228780Y-76175720D01*
X109246220Y-76175720D01*
X109265729Y-76173799D01*
X109284488Y-76168108D01*
X109301777Y-76158867D01*
X109316931Y-76146431D01*
X109329367Y-76131277D01*
X109338608Y-76113988D01*
X109344299Y-76095229D01*
X109346220Y-76075720D01*
X109346220Y-75160220D01*
X110403780Y-75160220D01*
X110403780Y-76019660D01*
X109963780Y-76019660D01*
X109944271Y-76021581D01*
X109925512Y-76027272D01*
X109908223Y-76036513D01*
X109893069Y-76048949D01*
X109880633Y-76064103D01*
X109871392Y-76081392D01*
X109865701Y-76100151D01*
X109863780Y-76119660D01*
X109863780Y-77233280D01*
X109004340Y-77233280D01*
X109004340Y-76119660D01*
X109002419Y-76100151D01*
X108996728Y-76081392D01*
X108987487Y-76064103D01*
X108975051Y-76048949D01*
X108959897Y-76036513D01*
X108942608Y-76027272D01*
X108923849Y-76021581D01*
X108904340Y-76019660D01*
X108071220Y-76019660D01*
X108071220Y-75160220D01*
X109128780Y-75160220D01*
X109128780Y-76075720D01*
X109128780Y-76075720D01*
G37*
G36*
X70678780Y-76019660D02*
X70543660Y-76019660D01*
X70524151Y-76021581D01*
X70505392Y-76027272D01*
X70488103Y-76036513D01*
X70472949Y-76048949D01*
X70460513Y-76064103D01*
X70451272Y-76081392D01*
X70445581Y-76100151D01*
X70443660Y-76119660D01*
X70443660Y-77233280D01*
X69584220Y-77233280D01*
X69584220Y-76152759D01*
X69591931Y-76146431D01*
X69604367Y-76131277D01*
X69613608Y-76113988D01*
X69619299Y-76095229D01*
X69621220Y-76075720D01*
X69621220Y-75160220D01*
X70678780Y-75160220D01*
X70678780Y-76019660D01*
X70678780Y-76019660D01*
G37*
G36*
X94855000Y-76185000D02*
X92045000Y-76185000D01*
X92045000Y-74865000D01*
X94855000Y-74865000D01*
X94855000Y-76185000D01*
X94855000Y-76185000D01*
G37*
G36*
X53855000Y-76185000D02*
X51045000Y-76185000D01*
X51045000Y-74865000D01*
X53855000Y-74865000D01*
X53855000Y-76185000D01*
X53855000Y-76185000D01*
G37*
G36*
X80404720Y-76128780D02*
X79545280Y-76128780D01*
X79545280Y-75071220D01*
X80404720Y-75071220D01*
X80404720Y-76128780D01*
X80404720Y-76128780D01*
G37*
G36*
X121404720Y-76128780D02*
X120545280Y-76128780D01*
X120545280Y-75071220D01*
X121404720Y-75071220D01*
X121404720Y-76128780D01*
X121404720Y-76128780D01*
G37*
G36*
X119824840Y-76128780D02*
X118965400Y-76128780D01*
X118965400Y-75071220D01*
X119824840Y-75071220D01*
X119824840Y-76128780D01*
X119824840Y-76128780D01*
G37*
G36*
X78824840Y-76128780D02*
X77965400Y-76128780D01*
X77965400Y-75071220D01*
X78824840Y-75071220D01*
X78824840Y-76128780D01*
X78824840Y-76128780D01*
G37*
G36*
X96928780Y-76079720D02*
X95871220Y-76079720D01*
X95871220Y-75220280D01*
X96928780Y-75220280D01*
X96928780Y-76079720D01*
X96928780Y-76079720D01*
G37*
G36*
X55928780Y-76079720D02*
X54871220Y-76079720D01*
X54871220Y-75220280D01*
X55928780Y-75220280D01*
X55928780Y-76079720D01*
X55928780Y-76079720D01*
G37*
G36*
X66828780Y-76019660D02*
X65771220Y-76019660D01*
X65771220Y-75160220D01*
X66828780Y-75160220D01*
X66828780Y-76019660D01*
X66828780Y-76019660D01*
G37*
G36*
X107828780Y-76019660D02*
X106771220Y-76019660D01*
X106771220Y-75160220D01*
X107828780Y-75160220D01*
X107828780Y-76019660D01*
X107828780Y-76019660D01*
G37*
G36*
X114905000Y-75385000D02*
X112095000Y-75385000D01*
X112095000Y-74065000D01*
X114905000Y-74065000D01*
X114905000Y-75385000D01*
X114905000Y-75385000D01*
G37*
G36*
X73905000Y-75385000D02*
X71095000Y-75385000D01*
X71095000Y-74065000D01*
X73905000Y-74065000D01*
X73905000Y-75385000D01*
X73905000Y-75385000D01*
G37*
G36*
X84378500Y-74977000D02*
X82721500Y-74977000D01*
X82721500Y-73828000D01*
X84378500Y-73828000D01*
X84378500Y-74977000D01*
X84378500Y-74977000D01*
G37*
G36*
X43378500Y-74977000D02*
X41721500Y-74977000D01*
X41721500Y-73828000D01*
X43378500Y-73828000D01*
X43378500Y-74977000D01*
X43378500Y-74977000D01*
G37*
G36*
X80384600Y-74753780D02*
X79525160Y-74753780D01*
X79525160Y-73696220D01*
X80384600Y-73696220D01*
X80384600Y-74753780D01*
X80384600Y-74753780D01*
G37*
G36*
X119804720Y-74753780D02*
X118945280Y-74753780D01*
X118945280Y-73696220D01*
X119804720Y-73696220D01*
X119804720Y-74753780D01*
X119804720Y-74753780D01*
G37*
G36*
X78804720Y-74753780D02*
X77945280Y-74753780D01*
X77945280Y-73696220D01*
X78804720Y-73696220D01*
X78804720Y-74753780D01*
X78804720Y-74753780D01*
G37*
G36*
X121384600Y-74753780D02*
X120525160Y-74753780D01*
X120525160Y-73696220D01*
X121384600Y-73696220D01*
X121384600Y-74753780D01*
X121384600Y-74753780D01*
G37*
G36*
X110403780Y-74439780D02*
X109346220Y-74439780D01*
X109346220Y-73580340D01*
X110403780Y-73580340D01*
X110403780Y-74439780D01*
X110403780Y-74439780D01*
G37*
G36*
X68128780Y-74439780D02*
X67071220Y-74439780D01*
X67071220Y-73580340D01*
X68128780Y-73580340D01*
X68128780Y-74439780D01*
X68128780Y-74439780D01*
G37*
G36*
X70678780Y-74439780D02*
X69621220Y-74439780D01*
X69621220Y-73580340D01*
X70678780Y-73580340D01*
X70678780Y-74439780D01*
X70678780Y-74439780D01*
G37*
G36*
X107828780Y-74439780D02*
X106771220Y-74439780D01*
X106771220Y-73580340D01*
X107828780Y-73580340D01*
X107828780Y-74439780D01*
X107828780Y-74439780D01*
G37*
G36*
X109128780Y-74439780D02*
X108071220Y-74439780D01*
X108071220Y-73580340D01*
X109128780Y-73580340D01*
X109128780Y-74439780D01*
X109128780Y-74439780D01*
G37*
G36*
X66828780Y-74439780D02*
X65771220Y-74439780D01*
X65771220Y-73580340D01*
X66828780Y-73580340D01*
X66828780Y-74439780D01*
X66828780Y-74439780D01*
G37*
G36*
X111678780Y-74439780D02*
X110621220Y-74439780D01*
X110621220Y-73580340D01*
X111678780Y-73580340D01*
X111678780Y-74439780D01*
X111678780Y-74439780D01*
G37*
G36*
X69403780Y-74439780D02*
X68346220Y-74439780D01*
X68346220Y-73580340D01*
X69403780Y-73580340D01*
X69403780Y-74439780D01*
X69403780Y-74439780D01*
G37*
G36*
X77081000Y-74374000D02*
X74321000Y-74374000D01*
X74321000Y-73214000D01*
X77081000Y-73214000D01*
X77081000Y-74374000D01*
X77081000Y-74374000D01*
G37*
G36*
X118081000Y-74374000D02*
X115321000Y-74374000D01*
X115321000Y-73214000D01*
X118081000Y-73214000D01*
X118081000Y-74374000D01*
X118081000Y-74374000D01*
G37*
G36*
X89428780Y-74344660D02*
X88371220Y-74344660D01*
X88371220Y-73485220D01*
X89428780Y-73485220D01*
X89428780Y-74344660D01*
X89428780Y-74344660D01*
G37*
G36*
X48428780Y-74344660D02*
X47371220Y-74344660D01*
X47371220Y-73485220D01*
X48428780Y-73485220D01*
X48428780Y-74344660D01*
X48428780Y-74344660D01*
G37*
G36*
X84378500Y-73072000D02*
X82721500Y-73072000D01*
X82721500Y-71923000D01*
X84378500Y-71923000D01*
X84378500Y-73072000D01*
X84378500Y-73072000D01*
G37*
G36*
X43378500Y-73072000D02*
X41721500Y-73072000D01*
X41721500Y-71923000D01*
X43378500Y-71923000D01*
X43378500Y-73072000D01*
X43378500Y-73072000D01*
G37*
G36*
X48428780Y-72764780D02*
X47371220Y-72764780D01*
X47371220Y-71905340D01*
X48428780Y-71905340D01*
X48428780Y-72764780D01*
X48428780Y-72764780D01*
G37*
G36*
X89428780Y-72764780D02*
X88371220Y-72764780D01*
X88371220Y-71905340D01*
X89428780Y-71905340D01*
X89428780Y-72764780D01*
X89428780Y-72764780D01*
G37*
G36*
X43382500Y-69741000D02*
X41725500Y-69741000D01*
X41725500Y-68592000D01*
X43382500Y-68592000D01*
X43382500Y-69741000D01*
X43382500Y-69741000D01*
G37*
G36*
X84382500Y-69741000D02*
X82725500Y-69741000D01*
X82725500Y-68592000D01*
X84382500Y-68592000D01*
X84382500Y-69741000D01*
X84382500Y-69741000D01*
G37*
G36*
X80678500Y-69724500D02*
X79021500Y-69724500D01*
X79021500Y-68575500D01*
X80678500Y-68575500D01*
X80678500Y-69724500D01*
X80678500Y-69724500D01*
G37*
G36*
X121678500Y-69724500D02*
X120021500Y-69724500D01*
X120021500Y-68575500D01*
X121678500Y-68575500D01*
X121678500Y-69724500D01*
X121678500Y-69724500D01*
G37*
G36*
X48253780Y-68869660D02*
X47196220Y-68869660D01*
X47196220Y-68010220D01*
X48253780Y-68010220D01*
X48253780Y-68869660D01*
X48253780Y-68869660D01*
G37*
G36*
X89253780Y-68869660D02*
X88196220Y-68869660D01*
X88196220Y-68010220D01*
X89253780Y-68010220D01*
X89253780Y-68869660D01*
X89253780Y-68869660D01*
G37*
G36*
X90778780Y-68844660D02*
X89721220Y-68844660D01*
X89721220Y-67985220D01*
X90778780Y-67985220D01*
X90778780Y-68844660D01*
X90778780Y-68844660D01*
G37*
G36*
X49778780Y-68844660D02*
X48721220Y-68844660D01*
X48721220Y-67985220D01*
X49778780Y-67985220D01*
X49778780Y-68844660D01*
X49778780Y-68844660D01*
G37*
G36*
X52880000Y-68830000D02*
X50870000Y-68830000D01*
X50870000Y-62270000D01*
X52880000Y-62270000D01*
X52880000Y-68830000D01*
X52880000Y-68830000D01*
G37*
G36*
X60080000Y-68830000D02*
X58070000Y-68830000D01*
X58070000Y-62270000D01*
X60080000Y-62270000D01*
X60080000Y-68830000D01*
X60080000Y-68830000D01*
G37*
G36*
X93880000Y-68830000D02*
X91870000Y-68830000D01*
X91870000Y-62270000D01*
X93880000Y-62270000D01*
X93880000Y-68830000D01*
X93880000Y-68830000D01*
G37*
G36*
X101080000Y-68830000D02*
X99070000Y-68830000D01*
X99070000Y-62270000D01*
X101080000Y-62270000D01*
X101080000Y-68830000D01*
X101080000Y-68830000D01*
G37*
G36*
X84382500Y-67836000D02*
X82725500Y-67836000D01*
X82725500Y-66687000D01*
X84382500Y-66687000D01*
X84382500Y-67836000D01*
X84382500Y-67836000D01*
G37*
G36*
X43382500Y-67836000D02*
X41725500Y-67836000D01*
X41725500Y-66687000D01*
X43382500Y-66687000D01*
X43382500Y-67836000D01*
X43382500Y-67836000D01*
G37*
G36*
X121678500Y-67819500D02*
X120021500Y-67819500D01*
X120021500Y-66670500D01*
X121678500Y-66670500D01*
X121678500Y-67819500D01*
X121678500Y-67819500D01*
G37*
G36*
X80678500Y-67819500D02*
X79021500Y-67819500D01*
X79021500Y-66670500D01*
X80678500Y-66670500D01*
X80678500Y-67819500D01*
X80678500Y-67819500D01*
G37*
G36*
X87069660Y-67726780D02*
X86210220Y-67726780D01*
X86210220Y-66669220D01*
X87069660Y-66669220D01*
X87069660Y-67726780D01*
X87069660Y-67726780D01*
G37*
G36*
X46069660Y-67726780D02*
X45210220Y-67726780D01*
X45210220Y-66669220D01*
X46069660Y-66669220D01*
X46069660Y-67726780D01*
X46069660Y-67726780D01*
G37*
G36*
X44489780Y-67726780D02*
X43630340Y-67726780D01*
X43630340Y-66669220D01*
X44489780Y-66669220D01*
X44489780Y-67726780D01*
X44489780Y-67726780D01*
G37*
G36*
X85489780Y-67726780D02*
X84630340Y-67726780D01*
X84630340Y-66669220D01*
X85489780Y-66669220D01*
X85489780Y-67726780D01*
X85489780Y-67726780D01*
G37*
G36*
X48253780Y-67289780D02*
X47196220Y-67289780D01*
X47196220Y-66430340D01*
X48253780Y-66430340D01*
X48253780Y-67289780D01*
X48253780Y-67289780D01*
G37*
G36*
X89253780Y-67289780D02*
X88196220Y-67289780D01*
X88196220Y-66430340D01*
X89253780Y-66430340D01*
X89253780Y-67289780D01*
X89253780Y-67289780D01*
G37*
G36*
X90778780Y-67264780D02*
X89721220Y-67264780D01*
X89721220Y-66405340D01*
X90778780Y-66405340D01*
X90778780Y-67264780D01*
X90778780Y-67264780D01*
G37*
G36*
X49778780Y-67264780D02*
X48721220Y-67264780D01*
X48721220Y-66405340D01*
X49778780Y-66405340D01*
X49778780Y-67264780D01*
X49778780Y-67264780D01*
G37*
G36*
X69546000Y-66571000D02*
X68226000Y-66571000D01*
X68226000Y-63761000D01*
X69546000Y-63761000D01*
X69546000Y-66571000D01*
X69546000Y-66571000D01*
G37*
G36*
X71746000Y-66571000D02*
X70426000Y-66571000D01*
X70426000Y-63761000D01*
X71746000Y-63761000D01*
X71746000Y-66571000D01*
X71746000Y-66571000D01*
G37*
G36*
X110546000Y-66571000D02*
X109226000Y-66571000D01*
X109226000Y-63761000D01*
X110546000Y-63761000D01*
X110546000Y-66571000D01*
X110546000Y-66571000D01*
G37*
G36*
X112746000Y-66571000D02*
X111426000Y-66571000D01*
X111426000Y-63761000D01*
X112746000Y-63761000D01*
X112746000Y-66571000D01*
X112746000Y-66571000D01*
G37*
G36*
X67720780Y-66385660D02*
X66663220Y-66385660D01*
X66663220Y-65526220D01*
X67720780Y-65526220D01*
X67720780Y-66385660D01*
X67720780Y-66385660D01*
G37*
G36*
X108720780Y-66385660D02*
X107663220Y-66385660D01*
X107663220Y-65526220D01*
X108720780Y-65526220D01*
X108720780Y-66385660D01*
X108720780Y-66385660D01*
G37*
G36*
X75594780Y-66385660D02*
X74537220Y-66385660D01*
X74537220Y-65526220D01*
X75594780Y-65526220D01*
X75594780Y-66385660D01*
X75594780Y-66385660D01*
G37*
G36*
X118118780Y-66385660D02*
X117061220Y-66385660D01*
X117061220Y-65526220D01*
X118118780Y-65526220D01*
X118118780Y-66385660D01*
X118118780Y-66385660D01*
G37*
G36*
X77118780Y-66385660D02*
X76061220Y-66385660D01*
X76061220Y-65526220D01*
X77118780Y-65526220D01*
X77118780Y-66385660D01*
X77118780Y-66385660D01*
G37*
G36*
X116594780Y-66385660D02*
X115537220Y-66385660D01*
X115537220Y-65526220D01*
X116594780Y-65526220D01*
X116594780Y-66385660D01*
X116594780Y-66385660D01*
G37*
G36*
X115070780Y-66385660D02*
X114013220Y-66385660D01*
X114013220Y-65526220D01*
X115070780Y-65526220D01*
X115070780Y-66385660D01*
X115070780Y-66385660D01*
G37*
G36*
X74070780Y-66385660D02*
X73013220Y-66385660D01*
X73013220Y-65526220D01*
X74070780Y-65526220D01*
X74070780Y-66385660D01*
X74070780Y-66385660D01*
G37*
G36*
X85324840Y-65919570D02*
X82565480Y-65919570D01*
X82565480Y-63660590D01*
X85324840Y-63660590D01*
X85324840Y-65919570D01*
X85324840Y-65919570D01*
G37*
G36*
X44324840Y-65919570D02*
X41565480Y-65919570D01*
X41565480Y-63660590D01*
X44324840Y-63660590D01*
X44324840Y-65919570D01*
X44324840Y-65919570D01*
G37*
G36*
X49823940Y-65919570D02*
X47064580Y-65919570D01*
X47064580Y-63660590D01*
X49823940Y-63660590D01*
X49823940Y-65919570D01*
X49823940Y-65919570D01*
G37*
G36*
X90823940Y-65919570D02*
X88064580Y-65919570D01*
X88064580Y-63660590D01*
X90823940Y-63660590D01*
X90823940Y-65919570D01*
X90823940Y-65919570D01*
G37*
G36*
X79363442Y-62980715D02*
X79570910Y-63023302D01*
X79766161Y-63105378D01*
X79850601Y-63162334D01*
X79867849Y-63171650D01*
X79886583Y-63177422D01*
X79906520Y-63179430D01*
X80879870Y-63179430D01*
X80879870Y-64940570D01*
X79907168Y-64940570D01*
X79887659Y-64942491D01*
X79868900Y-64948182D01*
X79853585Y-64956137D01*
X79739302Y-65028663D01*
X79541844Y-65105252D01*
X79333257Y-65142032D01*
X79121504Y-65137596D01*
X78914644Y-65092115D01*
X78720560Y-65007322D01*
X78650250Y-64958455D01*
X78633134Y-64948899D01*
X78614482Y-64942865D01*
X78593179Y-64940570D01*
X77620130Y-64940570D01*
X77620130Y-63179430D01*
X78593373Y-63179430D01*
X78612882Y-63177509D01*
X78631641Y-63171818D01*
X78648129Y-63163106D01*
X78747215Y-63098266D01*
X78943592Y-63018924D01*
X79151642Y-62979236D01*
X79363442Y-62980715D01*
X79363442Y-62980715D01*
G37*
G36*
X120363442Y-62980715D02*
X120570910Y-63023302D01*
X120766161Y-63105378D01*
X120850601Y-63162334D01*
X120867849Y-63171650D01*
X120886583Y-63177422D01*
X120906520Y-63179430D01*
X121879870Y-63179430D01*
X121879870Y-64940570D01*
X120907168Y-64940570D01*
X120887659Y-64942491D01*
X120868900Y-64948182D01*
X120853585Y-64956137D01*
X120739302Y-65028663D01*
X120541844Y-65105252D01*
X120333257Y-65142032D01*
X120121504Y-65137596D01*
X119914644Y-65092115D01*
X119720560Y-65007322D01*
X119650250Y-64958455D01*
X119633134Y-64948899D01*
X119614482Y-64942865D01*
X119593179Y-64940570D01*
X118620130Y-64940570D01*
X118620130Y-63179430D01*
X119593373Y-63179430D01*
X119612882Y-63177509D01*
X119631641Y-63171818D01*
X119648129Y-63163106D01*
X119747215Y-63098266D01*
X119943592Y-63018924D01*
X120151642Y-62979236D01*
X120363442Y-62980715D01*
X120363442Y-62980715D01*
G37*
G36*
X118118780Y-64805780D02*
X117061220Y-64805780D01*
X117061220Y-63946340D01*
X118118780Y-63946340D01*
X118118780Y-64805780D01*
X118118780Y-64805780D01*
G37*
G36*
X108720780Y-64805780D02*
X107663220Y-64805780D01*
X107663220Y-63946340D01*
X108720780Y-63946340D01*
X108720780Y-64805780D01*
X108720780Y-64805780D01*
G37*
G36*
X115070780Y-64805780D02*
X114013220Y-64805780D01*
X114013220Y-63946340D01*
X115070780Y-63946340D01*
X115070780Y-64805780D01*
X115070780Y-64805780D01*
G37*
G36*
X67720780Y-64805780D02*
X66663220Y-64805780D01*
X66663220Y-63946340D01*
X67720780Y-63946340D01*
X67720780Y-64805780D01*
X67720780Y-64805780D01*
G37*
G36*
X77118780Y-64805780D02*
X76061220Y-64805780D01*
X76061220Y-63946340D01*
X77118780Y-63946340D01*
X77118780Y-64805780D01*
X77118780Y-64805780D01*
G37*
G36*
X74070780Y-64805780D02*
X73013220Y-64805780D01*
X73013220Y-63946340D01*
X74070780Y-63946340D01*
X74070780Y-64805780D01*
X74070780Y-64805780D01*
G37*
G36*
X116594780Y-64805780D02*
X115537220Y-64805780D01*
X115537220Y-63946340D01*
X116594780Y-63946340D01*
X116594780Y-64805780D01*
X116594780Y-64805780D01*
G37*
G36*
X75594780Y-64805780D02*
X74537220Y-64805780D01*
X74537220Y-63946340D01*
X75594780Y-63946340D01*
X75594780Y-64805780D01*
X75594780Y-64805780D01*
G37*
G36*
X75467780Y-63578780D02*
X74608340Y-63578780D01*
X74608340Y-62521220D01*
X75467780Y-62521220D01*
X75467780Y-63578780D01*
X75467780Y-63578780D01*
G37*
G36*
X77047660Y-63578780D02*
X76188220Y-63578780D01*
X76188220Y-62521220D01*
X77047660Y-62521220D01*
X77047660Y-63578780D01*
X77047660Y-63578780D01*
G37*
G36*
X118047660Y-63578780D02*
X117188220Y-63578780D01*
X117188220Y-62521220D01*
X118047660Y-62521220D01*
X118047660Y-63578780D01*
X118047660Y-63578780D01*
G37*
G36*
X116467780Y-63578780D02*
X115608340Y-63578780D01*
X115608340Y-62521220D01*
X116467780Y-62521220D01*
X116467780Y-63578780D01*
X116467780Y-63578780D01*
G37*
G36*
X107189780Y-63253780D02*
X106330340Y-63253780D01*
X106330340Y-62196220D01*
X107189780Y-62196220D01*
X107189780Y-63253780D01*
X107189780Y-63253780D01*
G37*
G36*
X67769660Y-63253780D02*
X66910220Y-63253780D01*
X66910220Y-62196220D01*
X67769660Y-62196220D01*
X67769660Y-63253780D01*
X67769660Y-63253780D01*
G37*
G36*
X108769660Y-63253780D02*
X107910220Y-63253780D01*
X107910220Y-62196220D01*
X108769660Y-62196220D01*
X108769660Y-63253780D01*
X108769660Y-63253780D01*
G37*
G36*
X66189780Y-63253780D02*
X65330340Y-63253780D01*
X65330340Y-62196220D01*
X66189780Y-62196220D01*
X66189780Y-63253780D01*
X66189780Y-63253780D01*
G37*
G36*
X46005776Y-61960443D02*
X46117123Y-61983299D01*
X46221893Y-62027340D01*
X46316129Y-62090903D01*
X46396221Y-62171555D01*
X46459117Y-62266223D01*
X46502432Y-62371311D01*
X46524372Y-62482120D01*
X46524372Y-62482136D01*
X46524505Y-62482809D01*
X46522692Y-62612632D01*
X46522540Y-62613300D01*
X46522540Y-62613319D01*
X46497514Y-62723473D01*
X46451285Y-62827303D01*
X46385764Y-62920186D01*
X46303456Y-62998566D01*
X46207484Y-63059473D01*
X46101517Y-63100575D01*
X45989580Y-63120312D01*
X45875942Y-63117931D01*
X45764932Y-63093525D01*
X45660779Y-63048022D01*
X45567442Y-62983150D01*
X45488487Y-62901390D01*
X45426914Y-62805848D01*
X45385072Y-62700167D01*
X45364554Y-62588373D01*
X45366141Y-62474724D01*
X45389773Y-62363544D01*
X45434550Y-62259070D01*
X45498764Y-62165290D01*
X45579973Y-62085763D01*
X45675084Y-62023524D01*
X45780465Y-61980947D01*
X45892116Y-61959648D01*
X46005776Y-61960443D01*
X46005776Y-61960443D01*
G37*
G36*
X87005776Y-61960443D02*
X87117123Y-61983299D01*
X87221893Y-62027340D01*
X87316129Y-62090903D01*
X87396221Y-62171555D01*
X87459117Y-62266223D01*
X87502432Y-62371311D01*
X87524372Y-62482120D01*
X87524372Y-62482136D01*
X87524505Y-62482809D01*
X87522692Y-62612632D01*
X87522540Y-62613300D01*
X87522540Y-62613319D01*
X87497514Y-62723473D01*
X87451285Y-62827303D01*
X87385764Y-62920186D01*
X87303456Y-62998566D01*
X87207484Y-63059473D01*
X87101517Y-63100575D01*
X86989580Y-63120312D01*
X86875942Y-63117931D01*
X86764932Y-63093525D01*
X86660779Y-63048022D01*
X86567442Y-62983150D01*
X86488487Y-62901390D01*
X86426914Y-62805848D01*
X86385072Y-62700167D01*
X86364554Y-62588373D01*
X86366141Y-62474724D01*
X86389773Y-62363544D01*
X86434550Y-62259070D01*
X86498764Y-62165290D01*
X86579973Y-62085763D01*
X86675084Y-62023524D01*
X86780465Y-61980947D01*
X86892116Y-61959648D01*
X87005776Y-61960443D01*
X87005776Y-61960443D01*
G37*
G36*
X79363442Y-60440715D02*
X79570910Y-60483302D01*
X79766161Y-60565378D01*
X79850601Y-60622334D01*
X79867849Y-60631650D01*
X79886583Y-60637422D01*
X79906520Y-60639430D01*
X80879870Y-60639430D01*
X80879870Y-62400570D01*
X79907168Y-62400570D01*
X79887659Y-62402491D01*
X79868900Y-62408182D01*
X79853585Y-62416137D01*
X79739302Y-62488663D01*
X79541844Y-62565252D01*
X79333257Y-62602032D01*
X79121504Y-62597596D01*
X78914644Y-62552115D01*
X78720560Y-62467322D01*
X78650250Y-62418455D01*
X78633134Y-62408899D01*
X78614482Y-62402865D01*
X78593179Y-62400570D01*
X77620130Y-62400570D01*
X77620130Y-60639430D01*
X78593373Y-60639430D01*
X78612882Y-60637509D01*
X78631641Y-60631818D01*
X78648129Y-60623106D01*
X78747215Y-60558266D01*
X78943592Y-60478924D01*
X79151642Y-60439236D01*
X79363442Y-60440715D01*
X79363442Y-60440715D01*
G37*
G36*
X120363442Y-60440715D02*
X120570910Y-60483302D01*
X120766161Y-60565378D01*
X120850601Y-60622334D01*
X120867849Y-60631650D01*
X120886583Y-60637422D01*
X120906520Y-60639430D01*
X121879870Y-60639430D01*
X121879870Y-62400570D01*
X120907168Y-62400570D01*
X120887659Y-62402491D01*
X120868900Y-62408182D01*
X120853585Y-62416137D01*
X120739302Y-62488663D01*
X120541844Y-62565252D01*
X120333257Y-62602032D01*
X120121504Y-62597596D01*
X119914644Y-62552115D01*
X119720560Y-62467322D01*
X119650250Y-62418455D01*
X119633134Y-62408899D01*
X119614482Y-62402865D01*
X119593179Y-62400570D01*
X118620130Y-62400570D01*
X118620130Y-60639430D01*
X119593373Y-60639430D01*
X119612882Y-60637509D01*
X119631641Y-60631818D01*
X119648129Y-60623106D01*
X119747215Y-60558266D01*
X119943592Y-60478924D01*
X120151642Y-60439236D01*
X120363442Y-60440715D01*
X120363442Y-60440715D01*
G37*
G36*
X90823940Y-62320390D02*
X88262700Y-62320390D01*
X88262700Y-58359610D01*
X90823940Y-58359610D01*
X90823940Y-62320390D01*
X90823940Y-62320390D01*
G37*
G36*
X49823940Y-62320390D02*
X47262700Y-62320390D01*
X47262700Y-58359610D01*
X49823940Y-58359610D01*
X49823940Y-62320390D01*
X49823940Y-62320390D01*
G37*
G36*
X118255000Y-62010000D02*
X115445000Y-62010000D01*
X115445000Y-60690000D01*
X118255000Y-60690000D01*
X118255000Y-62010000D01*
X118255000Y-62010000D01*
G37*
G36*
X77255000Y-62010000D02*
X74445000Y-62010000D01*
X74445000Y-60690000D01*
X77255000Y-60690000D01*
X77255000Y-62010000D01*
X77255000Y-62010000D01*
G37*
G36*
X69038000Y-61630000D02*
X67718000Y-61630000D01*
X67718000Y-58820000D01*
X69038000Y-58820000D01*
X69038000Y-61630000D01*
X69038000Y-61630000D01*
G37*
G36*
X110038000Y-61630000D02*
X108718000Y-61630000D01*
X108718000Y-58820000D01*
X110038000Y-58820000D01*
X110038000Y-61630000D01*
X110038000Y-61630000D01*
G37*
G36*
X71238000Y-61630000D02*
X69918000Y-61630000D01*
X69918000Y-58820000D01*
X71238000Y-58820000D01*
X71238000Y-61630000D01*
X71238000Y-61630000D01*
G37*
G36*
X112238000Y-61630000D02*
X110918000Y-61630000D01*
X110918000Y-58820000D01*
X112238000Y-58820000D01*
X112238000Y-61630000D01*
X112238000Y-61630000D01*
G37*
G36*
X97129720Y-61603780D02*
X96270280Y-61603780D01*
X96270280Y-60546220D01*
X97129720Y-60546220D01*
X97129720Y-61603780D01*
X97129720Y-61603780D01*
G37*
G36*
X57717212Y-60551732D02*
X57711521Y-60570491D01*
X57709600Y-60590000D01*
X57709600Y-61603780D01*
X56850160Y-61603780D01*
X56850160Y-60546220D01*
X57695000Y-60546220D01*
X57714509Y-60544299D01*
X57722477Y-60541882D01*
X57717212Y-60551732D01*
X57717212Y-60551732D01*
G37*
G36*
X98717212Y-60551732D02*
X98711521Y-60570491D01*
X98709600Y-60590000D01*
X98709600Y-61603780D01*
X97850160Y-61603780D01*
X97850160Y-60546220D01*
X98695000Y-60546220D01*
X98714509Y-60544299D01*
X98722477Y-60541882D01*
X98717212Y-60551732D01*
X98717212Y-60551732D01*
G37*
G36*
X56129720Y-61603780D02*
X55270280Y-61603780D01*
X55270280Y-60546220D01*
X56129720Y-60546220D01*
X56129720Y-61603780D01*
X56129720Y-61603780D01*
G37*
G36*
X100755000Y-60490000D02*
X98809600Y-60490000D01*
X98790091Y-60491921D01*
X98782123Y-60494338D01*
X98787388Y-60484488D01*
X98793079Y-60465729D01*
X98795000Y-60446220D01*
X98795000Y-59580000D01*
X100755000Y-59580000D01*
X100755000Y-60490000D01*
X100755000Y-60490000D01*
G37*
G36*
X59755000Y-60490000D02*
X57809600Y-60490000D01*
X57790091Y-60491921D01*
X57782123Y-60494338D01*
X57787388Y-60484488D01*
X57793079Y-60465729D01*
X57795000Y-60446220D01*
X57795000Y-59580000D01*
X59755000Y-59580000D01*
X59755000Y-60490000D01*
X59755000Y-60490000D01*
G37*
G36*
X67055000Y-60490000D02*
X65095000Y-60490000D01*
X65095000Y-59580000D01*
X67055000Y-59580000D01*
X67055000Y-60490000D01*
X67055000Y-60490000D01*
G37*
G36*
X108055000Y-60490000D02*
X106095000Y-60490000D01*
X106095000Y-59580000D01*
X108055000Y-59580000D01*
X108055000Y-60490000D01*
X108055000Y-60490000D01*
G37*
G36*
X93255780Y-60266660D02*
X92198220Y-60266660D01*
X92198220Y-59407220D01*
X93255780Y-59407220D01*
X93255780Y-60266660D01*
X93255780Y-60266660D01*
G37*
G36*
X52255780Y-60266660D02*
X51198220Y-60266660D01*
X51198220Y-59407220D01*
X52255780Y-59407220D01*
X52255780Y-60266660D01*
X52255780Y-60266660D01*
G37*
G36*
X54803780Y-60259600D02*
X53746220Y-60259600D01*
X53746220Y-59400160D01*
X54803780Y-59400160D01*
X54803780Y-60259600D01*
X54803780Y-60259600D01*
G37*
G36*
X53528780Y-60259600D02*
X52471220Y-60259600D01*
X52471220Y-59400160D01*
X53528780Y-59400160D01*
X53528780Y-60259600D01*
X53528780Y-60259600D01*
G37*
G36*
X94528780Y-60259600D02*
X93471220Y-60259600D01*
X93471220Y-59400160D01*
X94528780Y-59400160D01*
X94528780Y-60259600D01*
X94528780Y-60259600D01*
G37*
G36*
X95803780Y-60259600D02*
X94746220Y-60259600D01*
X94746220Y-59400160D01*
X95803780Y-59400160D01*
X95803780Y-60259600D01*
X95803780Y-60259600D01*
G37*
G36*
X56453780Y-60244660D02*
X55396220Y-60244660D01*
X55396220Y-59385220D01*
X56453780Y-59385220D01*
X56453780Y-60244660D01*
X56453780Y-60244660D01*
G37*
G36*
X97453780Y-60244660D02*
X96396220Y-60244660D01*
X96396220Y-59385220D01*
X97453780Y-59385220D01*
X97453780Y-60244660D01*
X97453780Y-60244660D01*
G37*
G36*
X79363442Y-57900715D02*
X79570910Y-57943302D01*
X79766161Y-58025378D01*
X79850601Y-58082334D01*
X79867849Y-58091650D01*
X79886583Y-58097422D01*
X79906520Y-58099430D01*
X80879870Y-58099430D01*
X80879870Y-59860570D01*
X79907168Y-59860570D01*
X79887659Y-59862491D01*
X79868900Y-59868182D01*
X79853585Y-59876137D01*
X79739302Y-59948663D01*
X79541844Y-60025252D01*
X79333257Y-60062032D01*
X79121504Y-60057596D01*
X78914644Y-60012115D01*
X78720560Y-59927322D01*
X78650250Y-59878455D01*
X78633134Y-59868899D01*
X78614482Y-59862865D01*
X78593179Y-59860570D01*
X77620130Y-59860570D01*
X77620130Y-58099430D01*
X78593373Y-58099430D01*
X78612882Y-58097509D01*
X78631641Y-58091818D01*
X78648129Y-58083106D01*
X78747215Y-58018266D01*
X78943592Y-57938924D01*
X79151642Y-57899236D01*
X79363442Y-57900715D01*
X79363442Y-57900715D01*
G37*
G36*
X120363442Y-57900715D02*
X120570910Y-57943302D01*
X120766161Y-58025378D01*
X120850601Y-58082334D01*
X120867849Y-58091650D01*
X120886583Y-58097422D01*
X120906520Y-58099430D01*
X121879870Y-58099430D01*
X121879870Y-59860570D01*
X120907168Y-59860570D01*
X120887659Y-59862491D01*
X120868900Y-59868182D01*
X120853585Y-59876137D01*
X120739302Y-59948663D01*
X120541844Y-60025252D01*
X120333257Y-60062032D01*
X120121504Y-60057596D01*
X119914644Y-60012115D01*
X119720560Y-59927322D01*
X119650250Y-59878455D01*
X119633134Y-59868899D01*
X119614482Y-59862865D01*
X119593179Y-59860570D01*
X118620130Y-59860570D01*
X118620130Y-58099430D01*
X119593373Y-58099430D01*
X119612882Y-58097509D01*
X119631641Y-58091818D01*
X119648129Y-58083106D01*
X119747215Y-58018266D01*
X119943592Y-57938924D01*
X120151642Y-57899236D01*
X120363442Y-57900715D01*
X120363442Y-57900715D01*
G37*
G36*
X118255000Y-59810000D02*
X115445000Y-59810000D01*
X115445000Y-58490000D01*
X118255000Y-58490000D01*
X118255000Y-59810000D01*
X118255000Y-59810000D01*
G37*
G36*
X77255000Y-59810000D02*
X74445000Y-59810000D01*
X74445000Y-58490000D01*
X77255000Y-58490000D01*
X77255000Y-59810000D01*
X77255000Y-59810000D01*
G37*
G36*
X73816780Y-59527660D02*
X72759220Y-59527660D01*
X72759220Y-58668220D01*
X73816780Y-58668220D01*
X73816780Y-59527660D01*
X73816780Y-59527660D01*
G37*
G36*
X114816780Y-59527660D02*
X113759220Y-59527660D01*
X113759220Y-58668220D01*
X114816780Y-58668220D01*
X114816780Y-59527660D01*
X114816780Y-59527660D01*
G37*
G36*
X59755000Y-59220000D02*
X57795000Y-59220000D01*
X57795000Y-58310000D01*
X59755000Y-58310000D01*
X59755000Y-59220000D01*
X59755000Y-59220000D01*
G37*
G36*
X108055000Y-59220000D02*
X106095000Y-59220000D01*
X106095000Y-58310000D01*
X108055000Y-58310000D01*
X108055000Y-59220000D01*
X108055000Y-59220000D01*
G37*
G36*
X100755000Y-59220000D02*
X98795000Y-59220000D01*
X98795000Y-58310000D01*
X100755000Y-58310000D01*
X100755000Y-59220000D01*
X100755000Y-59220000D01*
G37*
G36*
X67055000Y-59220000D02*
X65095000Y-59220000D01*
X65095000Y-58310000D01*
X67055000Y-58310000D01*
X67055000Y-59220000D01*
X67055000Y-59220000D01*
G37*
G36*
X46005776Y-57561163D02*
X46117123Y-57584019D01*
X46221893Y-57628060D01*
X46316129Y-57691623D01*
X46396221Y-57772275D01*
X46459117Y-57866943D01*
X46502432Y-57972031D01*
X46524372Y-58082840D01*
X46524372Y-58082856D01*
X46524505Y-58083529D01*
X46522692Y-58213352D01*
X46522540Y-58214020D01*
X46522540Y-58214039D01*
X46497514Y-58324193D01*
X46451285Y-58428023D01*
X46385764Y-58520906D01*
X46303456Y-58599286D01*
X46207484Y-58660193D01*
X46101517Y-58701295D01*
X45989580Y-58721032D01*
X45875942Y-58718651D01*
X45764932Y-58694245D01*
X45660779Y-58648742D01*
X45567442Y-58583870D01*
X45488487Y-58502110D01*
X45426914Y-58406568D01*
X45385072Y-58300887D01*
X45364554Y-58189093D01*
X45366141Y-58075444D01*
X45389773Y-57964264D01*
X45434550Y-57859790D01*
X45498764Y-57766010D01*
X45579973Y-57686483D01*
X45675084Y-57624244D01*
X45780465Y-57581667D01*
X45892116Y-57560368D01*
X46005776Y-57561163D01*
X46005776Y-57561163D01*
G37*
G36*
X87005776Y-57561163D02*
X87117123Y-57584019D01*
X87221893Y-57628060D01*
X87316129Y-57691623D01*
X87396221Y-57772275D01*
X87459117Y-57866943D01*
X87502432Y-57972031D01*
X87524372Y-58082840D01*
X87524372Y-58082856D01*
X87524505Y-58083529D01*
X87522692Y-58213352D01*
X87522540Y-58214020D01*
X87522540Y-58214039D01*
X87497514Y-58324193D01*
X87451285Y-58428023D01*
X87385764Y-58520906D01*
X87303456Y-58599286D01*
X87207484Y-58660193D01*
X87101517Y-58701295D01*
X86989580Y-58721032D01*
X86875942Y-58718651D01*
X86764932Y-58694245D01*
X86660779Y-58648742D01*
X86567442Y-58583870D01*
X86488487Y-58502110D01*
X86426914Y-58406568D01*
X86385072Y-58300887D01*
X86364554Y-58189093D01*
X86366141Y-58075444D01*
X86389773Y-57964264D01*
X86434550Y-57859790D01*
X86498764Y-57766010D01*
X86579973Y-57686483D01*
X86675084Y-57624244D01*
X86780465Y-57581667D01*
X86892116Y-57560368D01*
X87005776Y-57561163D01*
X87005776Y-57561163D01*
G37*
G36*
X93255780Y-58686780D02*
X92198220Y-58686780D01*
X92198220Y-57827340D01*
X93255780Y-57827340D01*
X93255780Y-58686780D01*
X93255780Y-58686780D01*
G37*
G36*
X52255780Y-58686780D02*
X51198220Y-58686780D01*
X51198220Y-57827340D01*
X52255780Y-57827340D01*
X52255780Y-58686780D01*
X52255780Y-58686780D01*
G37*
G36*
X94528780Y-58679720D02*
X93471220Y-58679720D01*
X93471220Y-57820280D01*
X94528780Y-57820280D01*
X94528780Y-58679720D01*
X94528780Y-58679720D01*
G37*
G36*
X53528780Y-58679720D02*
X52471220Y-58679720D01*
X52471220Y-57820280D01*
X53528780Y-57820280D01*
X53528780Y-58679720D01*
X53528780Y-58679720D01*
G37*
G36*
X54803780Y-58679720D02*
X53746220Y-58679720D01*
X53746220Y-57820280D01*
X54803780Y-57820280D01*
X54803780Y-58679720D01*
X54803780Y-58679720D01*
G37*
G36*
X95803780Y-58679720D02*
X94746220Y-58679720D01*
X94746220Y-57820280D01*
X95803780Y-57820280D01*
X95803780Y-58679720D01*
X95803780Y-58679720D01*
G37*
G36*
X97453780Y-58664780D02*
X96396220Y-58664780D01*
X96396220Y-57805340D01*
X97453780Y-57805340D01*
X97453780Y-58664780D01*
X97453780Y-58664780D01*
G37*
G36*
X56453780Y-58664780D02*
X55396220Y-58664780D01*
X55396220Y-57805340D01*
X56453780Y-57805340D01*
X56453780Y-58664780D01*
X56453780Y-58664780D01*
G37*
G36*
X118269660Y-58078780D02*
X117410220Y-58078780D01*
X117410220Y-57021220D01*
X118269660Y-57021220D01*
X118269660Y-58078780D01*
X118269660Y-58078780D01*
G37*
G36*
X116689780Y-58078780D02*
X115830340Y-58078780D01*
X115830340Y-57021220D01*
X116689780Y-57021220D01*
X116689780Y-58078780D01*
X116689780Y-58078780D01*
G37*
G36*
X77269660Y-58078780D02*
X76410220Y-58078780D01*
X76410220Y-57021220D01*
X77269660Y-57021220D01*
X77269660Y-58078780D01*
X77269660Y-58078780D01*
G37*
G36*
X75689780Y-58078780D02*
X74830340Y-58078780D01*
X74830340Y-57021220D01*
X75689780Y-57021220D01*
X75689780Y-58078780D01*
X75689780Y-58078780D01*
G37*
G36*
X111768780Y-58074780D02*
X110909340Y-58074780D01*
X110909340Y-57017220D01*
X111768780Y-57017220D01*
X111768780Y-58074780D01*
X111768780Y-58074780D01*
G37*
G36*
X70768780Y-58074780D02*
X69909340Y-58074780D01*
X69909340Y-57017220D01*
X70768780Y-57017220D01*
X70768780Y-58074780D01*
X70768780Y-58074780D01*
G37*
G36*
X72348660Y-58074780D02*
X71489220Y-58074780D01*
X71489220Y-57017220D01*
X72348660Y-57017220D01*
X72348660Y-58074780D01*
X72348660Y-58074780D01*
G37*
G36*
X113348660Y-58074780D02*
X112489220Y-58074780D01*
X112489220Y-57017220D01*
X113348660Y-57017220D01*
X113348660Y-58074780D01*
X113348660Y-58074780D01*
G37*
G36*
X59755000Y-57950000D02*
X57795000Y-57950000D01*
X57795000Y-57040000D01*
X59755000Y-57040000D01*
X59755000Y-57950000D01*
X59755000Y-57950000D01*
G37*
G36*
X68089780Y-57803780D02*
X67155000Y-57803780D01*
X67135491Y-57805701D01*
X67116732Y-57811392D01*
X67099443Y-57820633D01*
X67084289Y-57833069D01*
X67071853Y-57848223D01*
X67062612Y-57865512D01*
X67056921Y-57884271D01*
X67055000Y-57903780D01*
X67055000Y-57950000D01*
X65095000Y-57950000D01*
X65095000Y-57040000D01*
X67130340Y-57040000D01*
X67149849Y-57038079D01*
X67168608Y-57032388D01*
X67185897Y-57023147D01*
X67201051Y-57010711D01*
X67213487Y-56995557D01*
X67222728Y-56978268D01*
X67228419Y-56959509D01*
X67230340Y-56940000D01*
X67230340Y-56780000D01*
X67228419Y-56760491D01*
X67224090Y-56746220D01*
X68089780Y-56746220D01*
X68089780Y-57803780D01*
X68089780Y-57803780D01*
G37*
G36*
X100755000Y-57950000D02*
X98795000Y-57950000D01*
X98795000Y-57040000D01*
X100755000Y-57040000D01*
X100755000Y-57950000D01*
X100755000Y-57950000D01*
G37*
G36*
X109089780Y-57803780D02*
X108155000Y-57803780D01*
X108135491Y-57805701D01*
X108116732Y-57811392D01*
X108099443Y-57820633D01*
X108084289Y-57833069D01*
X108071853Y-57848223D01*
X108062612Y-57865512D01*
X108056921Y-57884271D01*
X108055000Y-57903780D01*
X108055000Y-57950000D01*
X106095000Y-57950000D01*
X106095000Y-57040000D01*
X108130340Y-57040000D01*
X108149849Y-57038079D01*
X108168608Y-57032388D01*
X108185897Y-57023147D01*
X108201051Y-57010711D01*
X108213487Y-56995557D01*
X108222728Y-56978268D01*
X108228419Y-56959509D01*
X108230340Y-56940000D01*
X108230340Y-56780000D01*
X108228419Y-56760491D01*
X108224090Y-56746220D01*
X109089780Y-56746220D01*
X109089780Y-57803780D01*
X109089780Y-57803780D01*
G37*
G36*
X114816780Y-57947780D02*
X113759220Y-57947780D01*
X113759220Y-57088340D01*
X114816780Y-57088340D01*
X114816780Y-57947780D01*
X114816780Y-57947780D01*
G37*
G36*
X73816780Y-57947780D02*
X72759220Y-57947780D01*
X72759220Y-57088340D01*
X73816780Y-57088340D01*
X73816780Y-57947780D01*
X73816780Y-57947780D01*
G37*
G36*
X110669660Y-57803780D02*
X109810220Y-57803780D01*
X109810220Y-56746220D01*
X110669660Y-56746220D01*
X110669660Y-57803780D01*
X110669660Y-57803780D01*
G37*
G36*
X69669660Y-57803780D02*
X68810220Y-57803780D01*
X68810220Y-56746220D01*
X69669660Y-56746220D01*
X69669660Y-57803780D01*
X69669660Y-57803780D01*
G37*
G36*
X121330000Y-55459430D02*
X121331921Y-55478939D01*
X121337612Y-55497698D01*
X121346853Y-55514987D01*
X121359289Y-55530141D01*
X121374443Y-55542577D01*
X121391732Y-55551818D01*
X121410491Y-55557509D01*
X121430000Y-55559430D01*
X121879870Y-55559430D01*
X121879870Y-57320570D01*
X121430000Y-57320570D01*
X121410491Y-57322491D01*
X121391732Y-57328182D01*
X121374443Y-57337423D01*
X121359289Y-57349859D01*
X121346853Y-57365013D01*
X121337612Y-57382302D01*
X121331921Y-57401061D01*
X121330000Y-57420570D01*
X121330000Y-57520000D01*
X119170000Y-57520000D01*
X119170000Y-57420570D01*
X119168079Y-57401061D01*
X119162388Y-57382302D01*
X119153147Y-57365013D01*
X119140711Y-57349859D01*
X119125557Y-57337423D01*
X119108268Y-57328182D01*
X119089509Y-57322491D01*
X119070000Y-57320570D01*
X118620130Y-57320570D01*
X118620130Y-55559430D01*
X119070000Y-55559430D01*
X119089509Y-55557509D01*
X119108268Y-55551818D01*
X119125557Y-55542577D01*
X119140711Y-55530141D01*
X119153147Y-55514987D01*
X119162388Y-55497698D01*
X119168079Y-55478939D01*
X119170000Y-55459430D01*
X119170000Y-55360000D01*
X121330000Y-55360000D01*
X121330000Y-55459430D01*
X121330000Y-55459430D01*
G37*
G36*
X80330000Y-55459430D02*
X80331921Y-55478939D01*
X80337612Y-55497698D01*
X80346853Y-55514987D01*
X80359289Y-55530141D01*
X80374443Y-55542577D01*
X80391732Y-55551818D01*
X80410491Y-55557509D01*
X80430000Y-55559430D01*
X80879870Y-55559430D01*
X80879870Y-57320570D01*
X80430000Y-57320570D01*
X80410491Y-57322491D01*
X80391732Y-57328182D01*
X80374443Y-57337423D01*
X80359289Y-57349859D01*
X80346853Y-57365013D01*
X80337612Y-57382302D01*
X80331921Y-57401061D01*
X80330000Y-57420570D01*
X80330000Y-57520000D01*
X78170000Y-57520000D01*
X78170000Y-57420570D01*
X78168079Y-57401061D01*
X78162388Y-57382302D01*
X78153147Y-57365013D01*
X78140711Y-57349859D01*
X78125557Y-57337423D01*
X78108268Y-57328182D01*
X78089509Y-57322491D01*
X78070000Y-57320570D01*
X77620130Y-57320570D01*
X77620130Y-55559430D01*
X78070000Y-55559430D01*
X78089509Y-55557509D01*
X78108268Y-55551818D01*
X78125557Y-55542577D01*
X78140711Y-55530141D01*
X78153147Y-55514987D01*
X78162388Y-55497698D01*
X78168079Y-55478939D01*
X78170000Y-55459430D01*
X78170000Y-55360000D01*
X80330000Y-55360000D01*
X80330000Y-55459430D01*
X80330000Y-55459430D01*
G37*
G36*
X53855000Y-57385000D02*
X51045000Y-57385000D01*
X51045000Y-56065000D01*
X53855000Y-56065000D01*
X53855000Y-57385000D01*
X53855000Y-57385000D01*
G37*
G36*
X94855000Y-57385000D02*
X92045000Y-57385000D01*
X92045000Y-56065000D01*
X94855000Y-56065000D01*
X94855000Y-57385000D01*
X94855000Y-57385000D01*
G37*
G36*
X85324840Y-57019410D02*
X82565480Y-57019410D01*
X82565480Y-54760430D01*
X85324840Y-54760430D01*
X85324840Y-57019410D01*
X85324840Y-57019410D01*
G37*
G36*
X49823940Y-57019410D02*
X47064580Y-57019410D01*
X47064580Y-54760430D01*
X49823940Y-54760430D01*
X49823940Y-57019410D01*
X49823940Y-57019410D01*
G37*
G36*
X44324840Y-57019410D02*
X41565480Y-57019410D01*
X41565480Y-54760430D01*
X44324840Y-54760430D01*
X44324840Y-57019410D01*
X44324840Y-57019410D01*
G37*
G36*
X90823940Y-57019410D02*
X88064580Y-57019410D01*
X88064580Y-54760430D01*
X90823940Y-54760430D01*
X90823940Y-57019410D01*
X90823940Y-57019410D01*
G37*
G36*
X100755000Y-56680000D02*
X98795000Y-56680000D01*
X98795000Y-55770000D01*
X100755000Y-55770000D01*
X100755000Y-56680000D01*
X100755000Y-56680000D01*
G37*
G36*
X67055000Y-56646220D02*
X67056921Y-56665729D01*
X67061250Y-56680000D01*
X65095000Y-56680000D01*
X65095000Y-55770000D01*
X67055000Y-55770000D01*
X67055000Y-56646220D01*
X67055000Y-56646220D01*
G37*
G36*
X108055000Y-56646220D02*
X108056921Y-56665729D01*
X108061250Y-56680000D01*
X106095000Y-56680000D01*
X106095000Y-55770000D01*
X108055000Y-55770000D01*
X108055000Y-56646220D01*
X108055000Y-56646220D01*
G37*
G36*
X59755000Y-56680000D02*
X57795000Y-56680000D01*
X57795000Y-55770000D01*
X59755000Y-55770000D01*
X59755000Y-56680000D01*
X59755000Y-56680000D01*
G37*
G36*
X55928780Y-56659600D02*
X54871220Y-56659600D01*
X54871220Y-55800160D01*
X55928780Y-55800160D01*
X55928780Y-56659600D01*
X55928780Y-56659600D01*
G37*
G36*
X96928780Y-56659600D02*
X95871220Y-56659600D01*
X95871220Y-55800160D01*
X96928780Y-55800160D01*
X96928780Y-56659600D01*
X96928780Y-56659600D01*
G37*
G36*
X73905000Y-56585000D02*
X71095000Y-56585000D01*
X71095000Y-55265000D01*
X73905000Y-55265000D01*
X73905000Y-56585000D01*
X73905000Y-56585000D01*
G37*
G36*
X114905000Y-56585000D02*
X112095000Y-56585000D01*
X112095000Y-55265000D01*
X114905000Y-55265000D01*
X114905000Y-56585000D01*
X114905000Y-56585000D01*
G37*
G36*
X77081000Y-56274000D02*
X74321000Y-56274000D01*
X74321000Y-55114000D01*
X77081000Y-55114000D01*
X77081000Y-56274000D01*
X77081000Y-56274000D01*
G37*
G36*
X118081000Y-56274000D02*
X115321000Y-56274000D01*
X115321000Y-55114000D01*
X118081000Y-55114000D01*
X118081000Y-56274000D01*
X118081000Y-56274000D01*
G37*
G36*
X68128780Y-55075720D02*
X68130701Y-55095229D01*
X68136392Y-55113988D01*
X68145633Y-55131277D01*
X68158069Y-55146431D01*
X68173223Y-55158867D01*
X68190512Y-55168108D01*
X68209271Y-55173799D01*
X68228780Y-55175720D01*
X68246220Y-55175720D01*
X68265729Y-55173799D01*
X68284488Y-55168108D01*
X68301777Y-55158867D01*
X68316931Y-55146431D01*
X68329367Y-55131277D01*
X68338608Y-55113988D01*
X68344299Y-55095229D01*
X68346220Y-55075720D01*
X68346220Y-54160220D01*
X69403780Y-54160220D01*
X69403780Y-55019660D01*
X68963780Y-55019660D01*
X68944271Y-55021581D01*
X68925512Y-55027272D01*
X68908223Y-55036513D01*
X68893069Y-55048949D01*
X68880633Y-55064103D01*
X68871392Y-55081392D01*
X68865701Y-55100151D01*
X68863780Y-55119660D01*
X68863780Y-56233280D01*
X68004340Y-56233280D01*
X68004340Y-55119660D01*
X68002419Y-55100151D01*
X67996728Y-55081392D01*
X67987487Y-55064103D01*
X67975051Y-55048949D01*
X67959897Y-55036513D01*
X67942608Y-55027272D01*
X67923849Y-55021581D01*
X67904340Y-55019660D01*
X67071220Y-55019660D01*
X67071220Y-54160220D01*
X68128780Y-54160220D01*
X68128780Y-55075720D01*
X68128780Y-55075720D01*
G37*
G36*
X70678780Y-55019660D02*
X70543660Y-55019660D01*
X70524151Y-55021581D01*
X70505392Y-55027272D01*
X70488103Y-55036513D01*
X70472949Y-55048949D01*
X70460513Y-55064103D01*
X70451272Y-55081392D01*
X70445581Y-55100151D01*
X70443660Y-55119660D01*
X70443660Y-56233280D01*
X69584220Y-56233280D01*
X69584220Y-55152759D01*
X69591931Y-55146431D01*
X69604367Y-55131277D01*
X69613608Y-55113988D01*
X69619299Y-55095229D01*
X69621220Y-55075720D01*
X69621220Y-54160220D01*
X70678780Y-54160220D01*
X70678780Y-55019660D01*
X70678780Y-55019660D01*
G37*
G36*
X109128780Y-55075720D02*
X109130701Y-55095229D01*
X109136392Y-55113988D01*
X109145633Y-55131277D01*
X109158069Y-55146431D01*
X109173223Y-55158867D01*
X109190512Y-55168108D01*
X109209271Y-55173799D01*
X109228780Y-55175720D01*
X109246220Y-55175720D01*
X109265729Y-55173799D01*
X109284488Y-55168108D01*
X109301777Y-55158867D01*
X109316931Y-55146431D01*
X109329367Y-55131277D01*
X109338608Y-55113988D01*
X109344299Y-55095229D01*
X109346220Y-55075720D01*
X109346220Y-54160220D01*
X110403780Y-54160220D01*
X110403780Y-55019660D01*
X109963780Y-55019660D01*
X109944271Y-55021581D01*
X109925512Y-55027272D01*
X109908223Y-55036513D01*
X109893069Y-55048949D01*
X109880633Y-55064103D01*
X109871392Y-55081392D01*
X109865701Y-55100151D01*
X109863780Y-55119660D01*
X109863780Y-56233280D01*
X109004340Y-56233280D01*
X109004340Y-55119660D01*
X109002419Y-55100151D01*
X108996728Y-55081392D01*
X108987487Y-55064103D01*
X108975051Y-55048949D01*
X108959897Y-55036513D01*
X108942608Y-55027272D01*
X108923849Y-55021581D01*
X108904340Y-55019660D01*
X108071220Y-55019660D01*
X108071220Y-54160220D01*
X109128780Y-54160220D01*
X109128780Y-55075720D01*
X109128780Y-55075720D01*
G37*
G36*
X111678780Y-55019660D02*
X111543660Y-55019660D01*
X111524151Y-55021581D01*
X111505392Y-55027272D01*
X111488103Y-55036513D01*
X111472949Y-55048949D01*
X111460513Y-55064103D01*
X111451272Y-55081392D01*
X111445581Y-55100151D01*
X111443660Y-55119660D01*
X111443660Y-56233280D01*
X110584220Y-56233280D01*
X110584220Y-55152759D01*
X110591931Y-55146431D01*
X110604367Y-55131277D01*
X110613608Y-55113988D01*
X110619299Y-55095229D01*
X110621220Y-55075720D01*
X110621220Y-54160220D01*
X111678780Y-54160220D01*
X111678780Y-55019660D01*
X111678780Y-55019660D01*
G37*
G36*
X53855000Y-55185000D02*
X51045000Y-55185000D01*
X51045000Y-53865000D01*
X53855000Y-53865000D01*
X53855000Y-55185000D01*
X53855000Y-55185000D01*
G37*
G36*
X94855000Y-55185000D02*
X92045000Y-55185000D01*
X92045000Y-53865000D01*
X94855000Y-53865000D01*
X94855000Y-55185000D01*
X94855000Y-55185000D01*
G37*
G36*
X80404720Y-55128780D02*
X79545280Y-55128780D01*
X79545280Y-54071220D01*
X80404720Y-54071220D01*
X80404720Y-55128780D01*
X80404720Y-55128780D01*
G37*
G36*
X119824840Y-55128780D02*
X118965400Y-55128780D01*
X118965400Y-54071220D01*
X119824840Y-54071220D01*
X119824840Y-55128780D01*
X119824840Y-55128780D01*
G37*
G36*
X78824840Y-55128780D02*
X77965400Y-55128780D01*
X77965400Y-54071220D01*
X78824840Y-54071220D01*
X78824840Y-55128780D01*
X78824840Y-55128780D01*
G37*
G36*
X121404720Y-55128780D02*
X120545280Y-55128780D01*
X120545280Y-54071220D01*
X121404720Y-54071220D01*
X121404720Y-55128780D01*
X121404720Y-55128780D01*
G37*
G36*
X55928780Y-55079720D02*
X54871220Y-55079720D01*
X54871220Y-54220280D01*
X55928780Y-54220280D01*
X55928780Y-55079720D01*
X55928780Y-55079720D01*
G37*
G36*
X96928780Y-55079720D02*
X95871220Y-55079720D01*
X95871220Y-54220280D01*
X96928780Y-54220280D01*
X96928780Y-55079720D01*
X96928780Y-55079720D01*
G37*
G36*
X107828780Y-55019660D02*
X106771220Y-55019660D01*
X106771220Y-54160220D01*
X107828780Y-54160220D01*
X107828780Y-55019660D01*
X107828780Y-55019660D01*
G37*
G36*
X66828780Y-55019660D02*
X65771220Y-55019660D01*
X65771220Y-54160220D01*
X66828780Y-54160220D01*
X66828780Y-55019660D01*
X66828780Y-55019660D01*
G37*
G36*
X73905000Y-54385000D02*
X71095000Y-54385000D01*
X71095000Y-53065000D01*
X73905000Y-53065000D01*
X73905000Y-54385000D01*
X73905000Y-54385000D01*
G37*
G36*
X114905000Y-54385000D02*
X112095000Y-54385000D01*
X112095000Y-53065000D01*
X114905000Y-53065000D01*
X114905000Y-54385000D01*
X114905000Y-54385000D01*
G37*
G36*
X84378500Y-53977000D02*
X82721500Y-53977000D01*
X82721500Y-52828000D01*
X84378500Y-52828000D01*
X84378500Y-53977000D01*
X84378500Y-53977000D01*
G37*
G36*
X43378500Y-53977000D02*
X41721500Y-53977000D01*
X41721500Y-52828000D01*
X43378500Y-52828000D01*
X43378500Y-53977000D01*
X43378500Y-53977000D01*
G37*
G36*
X80384600Y-53753780D02*
X79525160Y-53753780D01*
X79525160Y-52696220D01*
X80384600Y-52696220D01*
X80384600Y-53753780D01*
X80384600Y-53753780D01*
G37*
G36*
X119804720Y-53753780D02*
X118945280Y-53753780D01*
X118945280Y-52696220D01*
X119804720Y-52696220D01*
X119804720Y-53753780D01*
X119804720Y-53753780D01*
G37*
G36*
X78804720Y-53753780D02*
X77945280Y-53753780D01*
X77945280Y-52696220D01*
X78804720Y-52696220D01*
X78804720Y-53753780D01*
X78804720Y-53753780D01*
G37*
G36*
X121384600Y-53753780D02*
X120525160Y-53753780D01*
X120525160Y-52696220D01*
X121384600Y-52696220D01*
X121384600Y-53753780D01*
X121384600Y-53753780D01*
G37*
G36*
X70678780Y-53439780D02*
X69621220Y-53439780D01*
X69621220Y-52580340D01*
X70678780Y-52580340D01*
X70678780Y-53439780D01*
X70678780Y-53439780D01*
G37*
G36*
X109128780Y-53439780D02*
X108071220Y-53439780D01*
X108071220Y-52580340D01*
X109128780Y-52580340D01*
X109128780Y-53439780D01*
X109128780Y-53439780D01*
G37*
G36*
X69403780Y-53439780D02*
X68346220Y-53439780D01*
X68346220Y-52580340D01*
X69403780Y-52580340D01*
X69403780Y-53439780D01*
X69403780Y-53439780D01*
G37*
G36*
X110403780Y-53439780D02*
X109346220Y-53439780D01*
X109346220Y-52580340D01*
X110403780Y-52580340D01*
X110403780Y-53439780D01*
X110403780Y-53439780D01*
G37*
G36*
X68128780Y-53439780D02*
X67071220Y-53439780D01*
X67071220Y-52580340D01*
X68128780Y-52580340D01*
X68128780Y-53439780D01*
X68128780Y-53439780D01*
G37*
G36*
X107828780Y-53439780D02*
X106771220Y-53439780D01*
X106771220Y-52580340D01*
X107828780Y-52580340D01*
X107828780Y-53439780D01*
X107828780Y-53439780D01*
G37*
G36*
X111678780Y-53439780D02*
X110621220Y-53439780D01*
X110621220Y-52580340D01*
X111678780Y-52580340D01*
X111678780Y-53439780D01*
X111678780Y-53439780D01*
G37*
G36*
X66828780Y-53439780D02*
X65771220Y-53439780D01*
X65771220Y-52580340D01*
X66828780Y-52580340D01*
X66828780Y-53439780D01*
X66828780Y-53439780D01*
G37*
G36*
X118081000Y-53374000D02*
X115321000Y-53374000D01*
X115321000Y-52214000D01*
X118081000Y-52214000D01*
X118081000Y-53374000D01*
X118081000Y-53374000D01*
G37*
G36*
X77081000Y-53374000D02*
X74321000Y-53374000D01*
X74321000Y-52214000D01*
X77081000Y-52214000D01*
X77081000Y-53374000D01*
X77081000Y-53374000D01*
G37*
G36*
X48428780Y-53344660D02*
X47371220Y-53344660D01*
X47371220Y-52485220D01*
X48428780Y-52485220D01*
X48428780Y-53344660D01*
X48428780Y-53344660D01*
G37*
G36*
X89428780Y-53344660D02*
X88371220Y-53344660D01*
X88371220Y-52485220D01*
X89428780Y-52485220D01*
X89428780Y-53344660D01*
X89428780Y-53344660D01*
G37*
G36*
X43378500Y-52072000D02*
X41721500Y-52072000D01*
X41721500Y-50923000D01*
X43378500Y-50923000D01*
X43378500Y-52072000D01*
X43378500Y-52072000D01*
G37*
G36*
X84378500Y-52072000D02*
X82721500Y-52072000D01*
X82721500Y-50923000D01*
X84378500Y-50923000D01*
X84378500Y-52072000D01*
X84378500Y-52072000D01*
G37*
G36*
X89428780Y-51764780D02*
X88371220Y-51764780D01*
X88371220Y-50905340D01*
X89428780Y-50905340D01*
X89428780Y-51764780D01*
X89428780Y-51764780D01*
G37*
G36*
X48428780Y-51764780D02*
X47371220Y-51764780D01*
X47371220Y-50905340D01*
X48428780Y-50905340D01*
X48428780Y-51764780D01*
X48428780Y-51764780D01*
G37*
M02*
