M48
;DRILL file {KiCad 0.201603131216+6619~43~ubuntu14.04.1-product} date Do 28 Apr 2016 22:30:18 CEST
;FORMAT={-:-/ absolute / metric / decimal}
FMAT,2
METRIC,TZ
T1C0.500
T2C1.001
%
G90
G05
M71
T1
X45.295Y-63.49
X45.295Y-84.49
X45.295Y-105.74
X45.295Y-126.74
X45.5Y-66.049
X45.5Y-87.049
X45.5Y-108.299
X45.5Y-129.299
X45.745Y-61.458
X45.745Y-82.458
X45.745Y-103.708
X45.745Y-124.708
X46.725Y-68.4
X46.725Y-89.4
X46.725Y-110.65
X46.725Y-131.65
X52.425Y-55.705
X52.425Y-76.705
X52.425Y-97.955
X52.425Y-118.955
X53.5Y-65.175
X53.5Y-86.175
X53.5Y-107.425
X53.5Y-128.425
X53.514Y-64.039
X53.514Y-85.039
X53.514Y-106.289
X53.514Y-127.289
X55.198Y-67.097
X55.198Y-88.097
X55.198Y-109.347
X55.198Y-130.347
X55.416Y-57.281
X55.416Y-78.281
X55.416Y-99.531
X55.416Y-120.531
X55.5Y-65.7
X55.5Y-86.7
X55.5Y-107.95
X55.5Y-128.95
X56.2Y-67.9
X56.2Y-88.9
X56.2Y-110.15
X56.2Y-131.15
X56.966Y-57.574
X56.966Y-78.574
X56.966Y-99.824
X56.966Y-120.824
X57.025Y-66.35
X57.025Y-87.35
X57.025Y-108.6
X57.025Y-129.6
X57.05Y-59.075
X57.05Y-80.075
X57.05Y-101.325
X57.05Y-122.325
X57.525Y-65.225
X57.525Y-86.225
X57.525Y-107.475
X57.525Y-128.475
X58.8Y-60.9
X58.8Y-81.9
X58.8Y-103.15
X58.8Y-124.15
X65.175Y-54.65
X65.175Y-75.65
X65.175Y-96.9
X65.175Y-117.9
X66.049Y-51.514
X66.049Y-72.513
X66.049Y-93.763
X66.049Y-114.763
X67.192Y-68.087
X67.192Y-89.087
X67.192Y-110.337
X67.192Y-131.337
X67.382Y-51.514
X67.382Y-72.513
X67.382Y-93.763
X67.382Y-114.763
X67.57Y-58.362
X67.57Y-79.362
X67.57Y-100.612
X67.57Y-121.612
X68.075Y-67.2
X68.075Y-88.2
X68.075Y-109.45
X68.075Y-130.45
X68.144Y-69.04
X68.144Y-90.039
X68.144Y-111.289
X68.144Y-132.29
X68.225Y-62.85
X68.225Y-83.85
X68.225Y-105.1
X68.225Y-126.1
X68.716Y-51.514
X68.716Y-72.513
X68.716Y-93.763
X68.716Y-114.763
X69.65Y-68.65
X69.65Y-89.65
X69.65Y-110.9
X69.65Y-131.9
X70.049Y-51.514
X70.049Y-72.513
X70.049Y-93.763
X70.049Y-114.763
X70.227Y-63.27
X70.227Y-84.27
X70.227Y-105.52
X70.227Y-126.52
X72.239Y-59.07
X72.239Y-80.07
X72.239Y-101.32
X72.239Y-122.32
X72.272Y-65.166
X72.272Y-86.166
X72.272Y-107.416
X72.272Y-128.416
X72.492Y-69.45
X72.492Y-90.45
X72.492Y-111.7
X72.492Y-132.7
X73.25Y-61.15
X73.25Y-82.15
X73.25Y-103.4
X73.25Y-124.4
X73.525Y-63.125
X73.525Y-84.125
X73.525Y-105.375
X73.525Y-126.375
X73.55Y-51.85
X73.55Y-72.85
X73.55Y-94.1
X73.55Y-115.1
X74.25Y-67.706
X74.25Y-88.706
X74.25Y-109.956
X74.25Y-130.956
X74.475Y-56.475
X74.475Y-77.475
X74.475Y-98.725
X74.475Y-119.725
X75.891Y-68.341
X75.891Y-89.341
X75.891Y-110.591
X75.891Y-131.591
X77.479Y-51.514
X77.479Y-72.513
X77.479Y-93.763
X77.479Y-114.763
X86.295Y-63.49
X86.295Y-84.49
X86.295Y-105.74
X86.295Y-126.74
X86.5Y-66.049
X86.5Y-87.049
X86.5Y-108.299
X86.5Y-129.299
X86.745Y-61.458
X86.745Y-82.458
X86.745Y-103.708
X86.745Y-124.708
X87.725Y-68.4
X87.725Y-89.4
X87.725Y-110.65
X87.725Y-131.65
X93.425Y-55.705
X93.425Y-76.705
X93.425Y-97.955
X93.425Y-118.955
X94.5Y-65.175
X94.5Y-86.175
X94.5Y-107.425
X94.5Y-128.425
X94.514Y-64.039
X94.514Y-85.039
X94.514Y-106.289
X94.514Y-127.289
X96.198Y-67.097
X96.198Y-88.097
X96.198Y-109.347
X96.198Y-130.347
X96.416Y-57.281
X96.416Y-78.281
X96.416Y-99.531
X96.416Y-120.531
X96.5Y-65.7
X96.5Y-86.7
X96.5Y-107.95
X96.5Y-128.95
X97.2Y-67.9
X97.2Y-88.9
X97.2Y-110.15
X97.2Y-131.15
X97.966Y-57.574
X97.966Y-78.574
X97.966Y-99.824
X97.966Y-120.824
X98.025Y-66.35
X98.025Y-87.35
X98.025Y-108.6
X98.025Y-129.6
X98.05Y-59.075
X98.05Y-80.075
X98.05Y-101.325
X98.05Y-122.325
X98.525Y-65.225
X98.525Y-86.225
X98.525Y-107.475
X98.525Y-128.475
X99.8Y-60.9
X99.8Y-81.9
X99.8Y-103.15
X99.8Y-124.15
X106.175Y-54.65
X106.175Y-75.65
X106.175Y-96.9
X106.175Y-117.9
X107.049Y-51.514
X107.049Y-72.513
X107.049Y-93.763
X107.049Y-114.763
X108.192Y-68.087
X108.192Y-89.087
X108.192Y-110.337
X108.192Y-131.337
X108.382Y-51.514
X108.382Y-72.513
X108.382Y-93.763
X108.382Y-114.763
X108.57Y-58.362
X108.57Y-79.362
X108.57Y-100.612
X108.57Y-121.612
X109.075Y-67.2
X109.075Y-88.2
X109.075Y-109.45
X109.075Y-130.45
X109.144Y-69.04
X109.144Y-90.039
X109.144Y-111.289
X109.144Y-132.29
X109.225Y-62.85
X109.225Y-83.85
X109.225Y-105.1
X109.225Y-126.1
X109.716Y-51.514
X109.716Y-72.513
X109.716Y-93.763
X109.716Y-114.763
X110.65Y-68.65
X110.65Y-89.65
X110.65Y-110.9
X110.65Y-131.9
X111.049Y-51.514
X111.049Y-72.513
X111.049Y-93.763
X111.049Y-114.763
X111.227Y-63.27
X111.227Y-84.27
X111.227Y-105.52
X111.227Y-126.52
X113.239Y-59.07
X113.239Y-80.07
X113.239Y-101.32
X113.239Y-122.32
X113.272Y-65.166
X113.272Y-86.166
X113.272Y-107.416
X113.272Y-128.416
X113.492Y-69.45
X113.492Y-90.45
X113.492Y-111.7
X113.492Y-132.7
X114.25Y-61.15
X114.25Y-82.15
X114.25Y-103.4
X114.25Y-124.4
X114.525Y-63.125
X114.525Y-84.125
X114.525Y-105.375
X114.525Y-126.375
X114.55Y-51.85
X114.55Y-72.85
X114.55Y-94.1
X114.55Y-115.1
X115.25Y-67.706
X115.25Y-88.706
X115.25Y-109.956
X115.25Y-130.956
X115.475Y-56.475
X115.475Y-77.475
X115.475Y-98.725
X115.475Y-119.725
X116.891Y-68.341
X116.891Y-89.341
X116.891Y-110.591
X116.891Y-131.591
X118.479Y-51.514
X118.479Y-72.513
X118.479Y-93.763
X118.479Y-114.763
T2
X79.25Y-56.44
X79.25Y-58.98
X79.25Y-61.52
X79.25Y-64.06
X79.25Y-77.44
X79.25Y-79.98
X79.25Y-82.52
X79.25Y-85.06
X79.25Y-98.69
X79.25Y-101.23
X79.25Y-103.77
X79.25Y-106.31
X79.25Y-119.69
X79.25Y-122.23
X79.25Y-124.77
X79.25Y-127.31
X120.25Y-56.44
X120.25Y-58.98
X120.25Y-61.52
X120.25Y-64.06
X120.25Y-77.44
X120.25Y-79.98
X120.25Y-82.52
X120.25Y-85.06
X120.25Y-98.69
X120.25Y-101.23
X120.25Y-103.77
X120.25Y-106.31
X120.25Y-119.69
X120.25Y-122.23
X120.25Y-124.77
X120.25Y-127.31
T0
M30
