G04 #@! TF.FileFunction,Profile,NP*
%FSLAX46Y46*%
G04 Gerber Fmt 4.6, Leading zero omitted, Abs format (unit mm)*
G04 Created by KiCad (PCBNEW 0.201603131216+6619~43~ubuntu14.04.1-product) date Do 28 Apr 2016 22:30:15 CEST*
%MOMM*%
G01*
G04 APERTURE LIST*
%ADD10C,0.100000*%
%ADD11C,1.200000*%
%ADD12C,0.150000*%
G04 APERTURE END LIST*
D10*
D11*
X37000000Y-134000000D02*
X40750000Y-134000000D01*
X40750000Y-49750000D02*
X37000000Y-49750000D01*
X37000000Y-134000000D02*
X37000000Y-50000000D01*
X127000000Y-134000000D02*
X127000000Y-50000000D01*
X71250000Y-133500000D02*
X71250000Y-132100000D01*
X70000000Y-113000000D02*
X82000000Y-113000000D01*
X71250000Y-114958000D02*
X71250000Y-113558000D01*
X71250000Y-112500000D02*
X71250000Y-111100000D01*
X71250000Y-93958000D02*
X71250000Y-92558000D01*
X70000000Y-92000000D02*
X82000000Y-92000000D01*
X81750000Y-113000000D02*
X70000000Y-113000000D01*
X47500000Y-113000000D02*
X40750000Y-113000000D01*
X40750000Y-113000000D02*
X47500000Y-113000000D01*
X45250000Y-112500000D02*
X45250000Y-110900000D01*
X40750000Y-113000000D02*
X40750000Y-105250000D01*
X40750000Y-92000000D02*
X40750000Y-99750000D01*
X45250000Y-92500000D02*
X45250000Y-93900000D01*
X40750000Y-92000000D02*
X47500000Y-92000000D01*
X127000000Y-134250000D02*
X40750000Y-134000000D01*
X40750000Y-134000000D02*
X40750000Y-126250000D01*
X40750000Y-113000000D02*
X40750000Y-120750000D01*
X45250000Y-133500000D02*
X45250000Y-131900000D01*
X45250000Y-113500000D02*
X45250000Y-114900000D01*
D12*
X41250000Y-133500000D02*
X81250000Y-133500000D01*
D11*
X53000000Y-92000000D02*
X64500000Y-92000000D01*
X53000000Y-113000000D02*
X64500000Y-113000000D01*
X64500000Y-113000000D02*
X53000000Y-113000000D01*
X105500000Y-113000000D02*
X94000000Y-113000000D01*
X111000000Y-92000000D02*
X122000000Y-92000000D01*
X94000000Y-113000000D02*
X105500000Y-113000000D01*
X94000000Y-92000000D02*
X105500000Y-92000000D01*
X81750000Y-113000000D02*
X81750000Y-105500000D01*
X81750000Y-113000000D02*
X81750000Y-105250000D01*
X88500000Y-113000000D02*
X81750000Y-113000000D01*
X81750000Y-113000000D02*
X81750000Y-120500000D01*
X81750000Y-113000000D02*
X81750000Y-120750000D01*
X86250000Y-113500000D02*
X86250000Y-114900000D01*
X81750000Y-113000000D02*
X88500000Y-113000000D01*
X112250000Y-93958000D02*
X112250000Y-92558000D01*
D12*
X122250000Y-92500000D02*
X122250000Y-112500000D01*
D11*
X112250000Y-112500000D02*
X112250000Y-111100000D01*
X122750000Y-113000000D02*
X122750000Y-105250000D01*
X122750000Y-92000000D02*
X122750000Y-99750000D01*
X81750000Y-134000000D02*
X81750000Y-126500000D01*
X81750000Y-134000000D02*
X81750000Y-126250000D01*
X86250000Y-133500000D02*
X86250000Y-131900000D01*
X86250000Y-112500000D02*
X86250000Y-110900000D01*
D12*
X82250000Y-133500000D02*
X122250000Y-133500000D01*
X122250000Y-113500000D02*
X122250000Y-133500000D01*
D11*
X111000000Y-113000000D02*
X122000000Y-113000000D01*
X112250000Y-133500000D02*
X112250000Y-132100000D01*
X122750000Y-113000000D02*
X122750000Y-120750000D01*
X112250000Y-114958000D02*
X112250000Y-113558000D01*
X122750000Y-113000000D02*
X111000000Y-113000000D01*
X122750000Y-134000000D02*
X122750000Y-126250000D01*
X86250000Y-92500000D02*
X86250000Y-93900000D01*
X81750000Y-92000000D02*
X81750000Y-99500000D01*
X81750000Y-92000000D02*
X81750000Y-99750000D01*
X81750000Y-92000000D02*
X88500000Y-92000000D01*
X94000000Y-70750000D02*
X105500000Y-70750000D01*
X105500000Y-91750000D02*
X94000000Y-91750000D01*
X112250000Y-91250000D02*
X112250000Y-89850000D01*
X81750000Y-70750000D02*
X81750000Y-78250000D01*
X86250000Y-71250000D02*
X86250000Y-72650000D01*
X81750000Y-70750000D02*
X81750000Y-78500000D01*
X81750000Y-70750000D02*
X88500000Y-70750000D01*
X122750000Y-91750000D02*
X122750000Y-84000000D01*
X122750000Y-91750000D02*
X111000000Y-91750000D01*
X111000000Y-70750000D02*
X122000000Y-70750000D01*
X122750000Y-70750000D02*
X122750000Y-78500000D01*
D12*
X122250000Y-71250000D02*
X122250000Y-91250000D01*
D11*
X112250000Y-72708000D02*
X112250000Y-71308000D01*
X45250000Y-91250000D02*
X45250000Y-89650000D01*
X53000000Y-70750000D02*
X64500000Y-70750000D01*
X64500000Y-91750000D02*
X53000000Y-91750000D01*
X70000000Y-70750000D02*
X82000000Y-70750000D01*
X71250000Y-72708000D02*
X71250000Y-71308000D01*
X71250000Y-91250000D02*
X71250000Y-89850000D01*
X81750000Y-91750000D02*
X70000000Y-91750000D01*
X40750000Y-91750000D02*
X40750000Y-84000000D01*
X47500000Y-91750000D02*
X40750000Y-91750000D01*
X45250000Y-71250000D02*
X45250000Y-72650000D01*
X40750000Y-70750000D02*
X47500000Y-70750000D01*
X40750000Y-70750000D02*
X40750000Y-78500000D01*
X81750000Y-91750000D02*
X81750000Y-84250000D01*
X88500000Y-91750000D02*
X81750000Y-91750000D01*
X86250000Y-91250000D02*
X86250000Y-89650000D01*
X81750000Y-91750000D02*
X81750000Y-84000000D01*
X112250000Y-51708000D02*
X112250000Y-50308000D01*
X112250000Y-70250000D02*
X112250000Y-68850000D01*
X105500000Y-70750000D02*
X94000000Y-70750000D01*
X88500000Y-70750000D02*
X81750000Y-70750000D01*
X86250000Y-70250000D02*
X86250000Y-68650000D01*
X81750000Y-70750000D02*
X81750000Y-63000000D01*
X81750000Y-49750000D02*
X81750000Y-57500000D01*
X86250000Y-50250000D02*
X86250000Y-51650000D01*
X122750000Y-70750000D02*
X111000000Y-70750000D01*
X122750000Y-70750000D02*
X122750000Y-63000000D01*
X122750000Y-49750000D02*
X122750000Y-57500000D01*
D12*
X122250000Y-50250000D02*
X122250000Y-70250000D01*
D11*
X81750000Y-49750000D02*
X81750000Y-57250000D01*
X81750000Y-70750000D02*
X81750000Y-63250000D01*
X40750000Y-49750000D02*
X40750000Y-57500000D01*
X40750000Y-70750000D02*
X40750000Y-63000000D01*
X47500000Y-70750000D02*
X40750000Y-70750000D01*
X64500000Y-70750000D02*
X53000000Y-70750000D01*
X81750000Y-70750000D02*
X70000000Y-70750000D01*
X40750000Y-49750000D02*
X127000000Y-49750000D01*
X45250000Y-50250000D02*
X45250000Y-51650000D01*
X71250000Y-51708000D02*
X71250000Y-50308000D01*
X71250000Y-70250000D02*
X71250000Y-68850000D01*
X45250000Y-70250000D02*
X45250000Y-68650000D01*
M02*
