<?xml version="1.0" encoding="UTF-8" standalone="no"?>
<svg
   xmlns:dc="http://purl.org/dc/elements/1.1/"
   xmlns:cc="http://creativecommons.org/ns#"
   xmlns:rdf="http://www.w3.org/1999/02/22-rdf-syntax-ns#"
   xmlns:svg="http://www.w3.org/2000/svg"
   xmlns="http://www.w3.org/2000/svg"
   xmlns:xlink="http://www.w3.org/1999/xlink"
   xmlns:sodipodi="http://sodipodi.sourceforge.net/DTD/sodipodi-0.dtd"
   xmlns:inkscape="http://www.inkscape.org/namespaces/inkscape"
   width="744.094488189"
   height="1052.36220472"
   id="svg3004"
   version="1.1"
   inkscape:version="0.48.4 r9939"
   sodipodi:docname="label1.svg">
  <metadata
     id="metadata3091">
    <rdf:RDF>
      <cc:Work
         rdf:about="">
        <dc:format>image/svg+xml</dc:format>
        <dc:type
           rdf:resource="http://purl.org/dc/dcmitype/StillImage" />
        <dc:title></dc:title>
      </cc:Work>
    </rdf:RDF>
  </metadata>
  <sodipodi:namedview
     pagecolor="#ffffff"
     bordercolor="#666666"
     borderopacity="1"
     objecttolerance="10"
     gridtolerance="10"
     guidetolerance="10"
     inkscape:pageopacity="0"
     inkscape:pageshadow="2"
     inkscape:window-width="1853"
     inkscape:window-height="1056"
     id="namedview3089"
     showgrid="false"
     inkscape:zoom="3.5881183"
     inkscape:cx="368.58254"
     inkscape:cy="277.67414"
     inkscape:window-x="67"
     inkscape:window-y="24"
     inkscape:window-maximized="1"
     inkscape:current-layer="g3085" />
  <desc
     id="desc3006">/home/michael/bitsync/michael_private/studium/stupro/rs232_iso/case/case3.dxf - scale = 1.000000</desc>
  <defs
     id="defs3008">
    <marker
       id="DistanceX"
       orient="auto"
       refX="0.0"
       refY="0.0"
       style="overflow:visible">
      <path
         d="M 3,-3 L -3,3 M 0,-5 L  0,5"
         style="stroke:#000000; stroke-width:0.5"
         id="path3011" />
    </marker>
    <pattern
       height="8"
       id="Hatch"
       patternUnits="userSpaceOnUse"
       width="8"
       x="0"
       y="0">
      <path
         d="M8 4 l-4,4"
         linecap="square"
         stroke="#000000"
         stroke-width="0.25"
         id="path3014" />
      <path
         d="M6 2 l-4,4"
         linecap="square"
         stroke="#000000"
         stroke-width="0.25"
         id="path3016" />
      <path
         d="M4 0 l-4,4"
         linecap="square"
         stroke="#000000"
         stroke-width="0.25"
         id="path3018" />
    </pattern>
    <symbol
       id="POCKET002">
      <path
         d="M -160.901173,1047.047244 A 2.480315,2.480315 -0.000000 1 0 -165.861803,1047.047244 2.480315,2.480315 -0.000000 1 0 -160.901173,1047.047244 z"
         style="stroke:#000000;fill:none"
         id="path3021" />
      <path
         d="M 0.000000,1052.362205 -170.078740,1052.362205"
         style="stroke:#000000;fill:none"
         id="path3023" />
      <path
         d="M 0.000000,1027.559055 0.000000,1052.362205"
         style="stroke:#000000;fill:none"
         id="path3025" />
      <path
         d="M -170.078740,1052.362205 -170.078740,953.149606"
         style="stroke:#000000;fill:none"
         id="path3027" />
      <path
         d="M 0.000000,1027.559055 -14.173228,1027.559055"
         style="stroke:#000000;fill:none"
         id="path3029" />
      <path
         d="M -170.078740,953.149606 0.000000,953.149606"
         style="stroke:#000000;fill:none"
         id="path3031" />
      <path
         d="M -14.173228,1038.188976 -14.173228,1027.559055"
         style="stroke:#000000;fill:none"
         id="path3033" />
      <path
         d="M 0.000000,953.149606 0.000000,977.952756"
         style="stroke:#000000;fill:none"
         id="path3035" />
      <path
         d="M -24.803150,1038.188976 -14.173228,1038.188976"
         style="stroke:#000000;fill:none"
         id="path3037" />
      <path
         d="M 0.000000,977.952756 -12.751444,977.952756"
         style="stroke:#000000;fill:none"
         id="path3039" />
      <path
         d="M -24.803150,1027.559055 -24.803150,1038.188976"
         style="stroke:#000000;fill:none"
         id="path3041" />
      <path
         d="M -12.751444,967.322835 -12.751444,977.952756"
         style="stroke:#000000;fill:none"
         id="path3043" />
      <path
         d="M -24.803150,1027.559055 -53.149606,1027.559055"
         style="stroke:#000000;fill:none"
         id="path3045" />
      <path
         d="M -23.381365,967.322835 -12.751444,967.322835"
         style="stroke:#000000;fill:none"
         id="path3047" />
      <path
         d="M -53.149606,1027.559055 -53.149606,977.952756"
         style="stroke:#000000;fill:none"
         id="path3049" />
      <path
         d="M -23.381365,977.952756 -23.381365,967.322835"
         style="stroke:#000000;fill:none"
         id="path3051" />
      <path
         d="M -23.381365,977.952756 -53.149606,977.952756"
         style="stroke:#000000;fill:none"
         id="path3053" />
      <path
         d="M -141.732283,1024.015748 -155.905512,1024.015748"
         style="stroke:#000000;fill:none"
         id="path3055" />
      <path
         d="M -141.732283,981.496063 -141.732283,1024.015748"
         style="stroke:#000000;fill:none"
         id="path3057" />
      <path
         d="M -155.905512,1024.015748 -155.905512,981.496063"
         style="stroke:#000000;fill:none"
         id="path3059" />
      <path
         d="M -155.905512,981.496063 -141.732283,981.496063"
         style="stroke:#000000;fill:none"
         id="path3061" />
      <path
         d="M -152.362205,1025.787402 -141.732283,1025.787402"
         style="stroke:#000000;fill:none"
         id="path3063" />
      <path
         d="M -152.362205,1036.417323 -152.362205,1025.787402"
         style="stroke:#000000;fill:none"
         id="path3065" />
      <path
         d="M -141.732283,1025.787402 -141.732283,1036.417323"
         style="stroke:#000000;fill:none"
         id="path3067" />
      <path
         d="M -141.732283,1036.417323 -152.362205,1036.417323"
         style="stroke:#000000;fill:none"
         id="path3069" />
      <path
         d="M -53.149606,977.952756 -53.149606,1027.559055"
         style="stroke:#000000;fill:none"
         id="path3071" />
      <path
         d="M -160.901173,958.464567 A 2.480315,2.480315 -0.000000 1 0 -165.861803,958.464567 2.480315,2.480315 -0.000000 1 0 -160.901173,958.464567 z"
         style="stroke:#000000;fill:none"
         id="path3073" />
      <path
         d="M -2.834646,958.464567 A 2.480315,2.480315 -0.000000 1 0 -7.795276,958.464567 2.480315,2.480315 -0.000000 1 0 -2.834646,958.464567 z"
         style="stroke:#000000;fill:none"
         id="path3075" />
      <path
         d="M -2.834646,1047.047244 A 2.480315,2.480315 -0.000000 1 0 -7.795276,1047.047244 2.480315,2.480315 -0.000000 1 0 -2.834646,1047.047244 z"
         style="stroke:#000000;fill:none"
         id="path3077" />
      <path
         d="M -7.086614,1027.559055 -7.086614,977.952756"
         style="stroke:#000000;fill:none"
         id="path3079" />
      <path
         d="M -14.173228,1027.559055 -24.803150,1027.559055"
         style="stroke:#000000;fill:none"
         id="path3081" />
      <path
         d="M -12.751444,977.952756 -23.381365,977.952756"
         style="stroke:#000000;fill:none"
         id="path3083" />
    </symbol>
  </defs>
  <g
     inkscape:groupmode="layer"
     inkscape:label="0"
     id="g3085">
    <text
       xml:space="preserve"
       style="font-size:40px;font-style:normal;font-weight:normal;text-align:end;line-height:125%;letter-spacing:0px;word-spacing:0px;text-anchor:end;fill:#000000;fill-opacity:1;stroke:none;font-family:Sans"
       x="359.31076"
       y="753.45898"
       id="text3159"
       sodipodi:linespacing="125%"><tspan
         sodipodi:role="line"
         id="tspan3161"
         x="359.31076"
         y="753.45898"
         style="font-size:9px;text-align:end;text-anchor:end">VCC</tspan><tspan
         sodipodi:role="line"
         x="359.31076"
         y="764.70898"
         id="tspan3163"
         style="font-size:9px;text-align:end;text-anchor:end">RX</tspan><tspan
         sodipodi:role="line"
         x="359.31076"
         y="775.95898"
         id="tspan3165"
         style="font-size:9px;text-align:end;text-anchor:end">TX</tspan><tspan
         sodipodi:role="line"
         x="359.31076"
         y="787.20898"
         id="tspan3167"
         style="font-size:9px;text-align:end;text-anchor:end">GND</tspan></text>
    <use
       x="0"
       y="0"
       xlink:href="#POCKET002"
       id="use3087"
       transform="matrix(-0.99999888,0.00149517,0.00149517,0.99999888,218.04132,-235.09253)"
       width="744.09448"
       height="1052.3622" />
    <text
       xml:space="preserve"
       style="font-size:11px;font-style:normal;font-variant:normal;font-weight:normal;font-stretch:normal;text-indent:0;text-align:start;text-decoration:none;line-height:125%;letter-spacing:0px;word-spacing:0px;text-transform:none;direction:ltr;block-progression:tb;writing-mode:lr-tb;text-anchor:start;baseline-shift:baseline;color:#000000;fill:#000000;fill-opacity:1;fill-rule:nonzero;stroke:none;marker:none;visibility:visible;display:inline;overflow:visible;enable-background:accumulate;font-family:Sans;-inkscape-font-specification:Sans"
       x="247.76218"
       y="740.22083"
       id="text3106"
       sodipodi:linespacing="125%"><tspan
         sodipodi:role="line"
         id="tspan3108"
         x="247.76218"
         y="740.22083"
         style="font-size:11px;font-style:normal;font-variant:normal;font-weight:normal;font-stretch:normal;text-indent:0;text-align:start;text-decoration:none;line-height:125%;letter-spacing:0px;word-spacing:0px;text-transform:none;direction:ltr;block-progression:tb;writing-mode:lr-tb;text-anchor:start;baseline-shift:baseline;color:#000000;fill:#000000;fill-opacity:1;fill-rule:nonzero;stroke:none;marker:none;visibility:visible;display:inline;overflow:visible;enable-background:accumulate;font-family:Sans;-inkscape-font-specification:Sans">RX</tspan></text>
    <text
       xml:space="preserve"
       style="font-size:40px;font-style:normal;font-weight:normal;line-height:125%;letter-spacing:0px;word-spacing:0px;fill:#000000;fill-opacity:1;stroke:none;font-family:Sans"
       x="246.39398"
       y="802.47821"
       id="text3106-0"
       sodipodi:linespacing="125%"><tspan
         sodipodi:role="line"
         id="tspan3108-9"
         x="246.39398"
         y="802.47821"
         style="font-size:11px">TX</tspan></text>
    <rect
       style="color:#000000;fill:#000000;fill-opacity:1;fill-rule:nonzero;stroke:none;marker:none;visibility:visible;display:inline;overflow:visible;enable-background:accumulate"
       id="rect3171"
       width="9.7544193"
       height="98.937706"
       x="302.66559"
       y="717.64642" />
    <rect
       style="color:#000000;fill:#ffffff;fill-opacity:1;fill-rule:nonzero;stroke:none;marker:none;visibility:visible;display:inline;overflow:visible;enable-background:accumulate"
       id="rect3175"
       width="34.00111"
       height="4.1804643"
       x="222.12199"
       y="809.89526"
       ry="0" />
    <rect
       style="color:#000000;fill:#ffffff;fill-opacity:1;fill-rule:nonzero;stroke:none;marker:none;visibility:visible;display:inline;overflow:visible;enable-background:accumulate"
       id="rect3177"
       width="7.5248356"
       height="9.4757185"
       x="221.2859"
       y="718.48242" />
    <rect
       style="color:#000000;fill:#ffffff;fill-opacity:1;fill-rule:nonzero;stroke:none;marker:none;visibility:visible;display:inline;overflow:visible;enable-background:accumulate"
       id="rect3179"
       width="8.3609285"
       height="8.3609285"
       x="377.63525"
       y="719.59723" />
    <rect
       style="color:#000000;fill:#ffffff;fill-opacity:1;fill-rule:nonzero;stroke:none;marker:none;visibility:visible;display:inline;overflow:visible;enable-background:accumulate"
       id="rect3181"
       width="11.147904"
       height="8.3609285"
       x="376.79916"
       y="806.5509" />
    <rect
       style="color:#000000;fill:#ffffff;fill-opacity:1;fill-rule:nonzero;stroke:none;marker:none;visibility:visible;display:inline;overflow:visible;enable-background:accumulate"
       id="rect3183"
       width="9.1970224"
       height="10.590487"
       x="220.44981"
       y="805.4361" />
    <text
       xml:space="preserve"
       style="font-size:40px;font-style:normal;font-weight:normal;line-height:125%;letter-spacing:0px;word-spacing:0px;fill:#000000;fill-opacity:1;stroke:none;font-family:Sans"
       x="330.39597"
       y="738.2699"
       id="text3185"
       sodipodi:linespacing="125%"><tspan
         sodipodi:role="line"
         id="tspan3187"
         x="330.39597"
         y="738.2699"
         style="font-size:16px">Serial</tspan></text>
    <rect
       style="color:#000000;fill:#ffffff;fill-opacity:1;fill-rule:nonzero;stroke:none;marker:none;visibility:visible;display:inline;overflow:visible;enable-background:accumulate"
       id="rect3210"
       width="4.9180226"
       height="56.575615"
       x="226.77823"
       y="739.66345" />
    <rect
       style="color:#000000;fill:#ffffff;fill-opacity:1;fill-rule:nonzero;stroke:none;marker:none;visibility:visible;display:inline;overflow:visible;enable-background:accumulate"
       id="rect3212"
       width="1.2809483"
       height="6.4047418"
       x="231.95018"
       y="789.86633" />
    <rect
       style="color:#000000;fill:#ffffff;fill-opacity:1;fill-rule:nonzero;stroke:none;marker:none;visibility:visible;display:inline;overflow:visible;enable-background:accumulate"
       id="rect3214"
       width="32.023708"
       height="53.011555"
       x="244.8582"
       y="741.38733" />
    <rect
       style="color:#000000;fill:#ffffff;fill-opacity:1;fill-rule:nonzero;stroke:none;marker:none;visibility:visible;display:inline;overflow:visible;enable-background:accumulate"
       id="rect3216"
       width="2.1677587"
       height="4.2369828"
       x="243.57726"
       y="741.19025" />
    <path
       id="path1334"
       d="m 282.34252,768.09156 -5.17565,-2.9889 0,2.13213 -26.45417,0 5.15092,-5.44199 c 0.43836,-0.35138 1.01192,-0.59787 1.60192,-0.61152 2.3868,0 3.80419,-6.2e-4 4.32592,-0.002 0.35365,1.00757 1.30361,1.73483 2.43293,1.73483 1.42866,0 2.58808,-1.15931 2.58808,-2.58849 0,-1.42981 -1.15932,-2.58871 -2.58808,-2.58871 -1.12932,0 -2.07928,0.72685 -2.43293,1.7336 l -4.27524,-7.3e-4 c -1.15869,0 -2.37283,0.63572 -3.1456,1.38098 0.0211,-0.0221 0.043,-0.0457 -0.001,4.2e-4 -0.0163,0.0184 -5.46496,5.77319 -5.46496,5.77319 -0.43743,0.35086 -1.01068,0.5958 -1.60026,0.60987 l -2.99263,0 c -0.39668,-1.97698 -2.14248,-3.46647 -4.23665,-3.46647 -2.38762,0 -4.32302,1.9354 -4.32302,4.3223 0,2.38762 1.9354,4.32312 4.32302,4.32312 2.09459,0 3.84039,-1.49072 4.23707,-3.46936 l 2.94018,0 c 0.008,0 0.0151,4.2e-4 0.0228,0 l 6.50315,0 c 0.58845,0.015 1.16097,0.26025 1.59799,0.61152 0,0 5.44738,5.75437 5.46424,5.77299 0.0436,0.0462 0.0219,0.0221 4.1e-4,4.2e-4 0.77277,0.74515 1.98743,1.38046 3.14633,1.38046 l 4.12008,-9.3e-4 0,1.73535 5.17699,0 0,-5.17647 -5.17699,0 0,1.73307 c 0,0 -1.08515,-0.002 -4.17056,-0.002 -0.5901,-0.0136 -1.16428,-0.25973 -1.60243,-0.6111 l -5.15207,-5.44304 19.98485,0 0,2.13555 5.17565,-2.98848 z"
       inkscape:connector-curvature="0" />
  </g>
</svg>
