M48
;DRILL file {KiCad 0.201512231246+6403~40~ubuntu14.04.1-stable} date Mo 22 Feb 2016 17:08:39 CET
;FORMAT={-:-/ absolute / metric / decimal}
FMAT,2
METRIC,TZ
T1C0.400
T2C0.500
T3C1.001
%
G90
G05
M71
T1
X173.2Y-87.357
T2
X146.4Y-86.8
X148.475Y-84.2
X148.711Y-91.1
X149.1Y-79.3
X149.493Y-90.327
X149.592Y-88.5
X150.476Y-84.323
X151.6Y-78.8
X152.146Y-76.962
X152.7Y-87.7
X154.475Y-89.106
X154.5Y-93.1
X155.1Y-78.7
X155.702Y-77.724
X156.014Y-93.705
X157.433Y-79.064
X157.511Y-90.709
X157.9Y-76.2
X158.951Y-92.149
X159.Y-82.6
X159.127Y-84.371
X159.379Y-88.322
X160.39Y-77.459
X160.8Y-87.2
X161.Y-82.9
X161.101Y-81.463
X161.29Y-92.456
X161.3Y-78.2
X161.7Y-94.2
X161.925Y-88.1
X162.4Y-78.2
X168.9Y-88.646
X170.3Y-85.7
X170.8Y-83.708
X172.131Y-86.87
X172.472Y-80.772
X173.14Y-87.306
X173.4Y-93.4
X173.977Y-88.02
X175.006Y-87.63
X175.989Y-83.82
X176.022Y-89.916
X176.242Y-94.2
X177.Y-85.9
X177.292Y-81.28
X178.Y-92.456
T3
X183.Y-81.19
X183.Y-83.73
X183.Y-86.27
X183.Y-88.81
T0
M30
